<svg width="100" height="100" viewBox="0 0 100 100" fill="none" xmlns="http://www.w3.org/2000/svg">
<path d="M85.9375 50.0019C85.9375 53.3458 83.2267 56.0566 79.8828 56.0566H58.9844L50 37.8906L59.6974 21.0947C61.3693 18.1989 65.0721 17.2067 67.9679 18.8784L67.9691 18.8791C70.8651 20.5509 71.8575 24.254 70.1856 27.15L60.4883 43.9473H79.8828C83.2267 43.9473 85.9375 46.658 85.9375 50.0019Z" fill="#1A73E8"/>
<path d="M67.9688 81.1228L67.9676 81.1235C65.0717 82.7952 61.369 81.803 59.6971 78.9073L49.9997 62.1113L40.3023 78.9072C38.6304 81.803 34.9276 82.7952 32.0317 81.1235L32.0306 81.1228C29.1345 79.451 28.1421 75.748 29.8141 72.852L39.5114 56.0547L49.9997 55.6641L60.488 56.0547L70.1853 72.852C71.8572 75.748 70.8648 79.451 67.9688 81.1228Z" fill="#EA4335"/>
<path d="M49.9997 37.8906L47.2653 45.3144L39.5114 43.9473L29.8141 27.15C28.1422 24.254 29.1345 20.5509 32.0306 18.8791L32.0317 18.8784C34.9276 17.2067 38.6304 18.1989 40.3023 21.0947L49.9997 37.8906Z" fill="#FBBC04"/>
<path d="M48.4375 43.9453L41.4062 56.0547H20.1172C16.7733 56.0547 14.0625 53.3439 14.0625 50C14.0625 46.6561 16.7733 43.9453 20.1172 43.9453H48.4375Z" fill="#34A853"/>
<path d="M60.4883 56.0566H39.5117L50 37.8906L60.4883 56.0566Z" fill="#185DB7"/>
</svg>
