<svg xmlns="http://www.w3.org/2000/svg" fill="none" viewBox="0 0 56 56">
  <g filter="url(#a)">
    <path fill="url(#b)" d="M0 20.187C0 20.084.084 20 .187 20h23.546a3.733 3.733 0 1 1 0 7.467H7.28A7.28 7.28 0 0 1 0 20.187"/>
  </g>
  <g filter="url(#c)">
    <path fill="url(#d)" d="M56 20.187a.187.187 0 0 0-.187-.187H32.267a3.733 3.733 0 1 0 0 7.467H48.72a7.28 7.28 0 0 0 7.28-7.28"/>
  </g>
  <g filter="url(#e)">
    <path fill="url(#f)" d="M3.031 28.722c0-.103.084-.187.187-.187h21.715a3.733 3.733 0 1 1 0 7.467H10.311a7.28 7.28 0 0 1-7.28-7.28"/>
  </g>
  <g filter="url(#g)">
    <path fill="url(#h)" d="M52.969 28.722a.187.187 0 0 0-.187-.187H31.067a3.733 3.733 0 1 0 0 7.467h14.622a7.28 7.28 0 0 0 7.28-7.28"/>
  </g>
  <path fill="url(#i)" stroke="#B3A5F3" stroke-width=".8" d="m29.133 5.07-.2.347.2-.347a2.53 2.53 0 0 0-2.533 0L8.757 15.372a2.53 2.53 0 0 0-1.267 2.194v20.603c0 .905.483 1.742 1.267 2.194L26.6 50.665c.784.452 1.75.452 2.533 0l17.843-10.302a2.53 2.53 0 0 0 1.267-2.194V17.566c0-.905-.483-1.742-1.267-2.194z"/>
  <path fill="url(#j)" d="M26.8 8.616a2.13 2.13 0 0 1 2.133 0l14.841 8.568a2.13 2.13 0 0 1 1.067 1.848v17.136c0 .763-.407 1.467-1.067 1.848l-14.84 8.568a2.13 2.13 0 0 1-2.134 0l-14.84-8.568a2.13 2.13 0 0 1-1.068-1.848V19.032c0-.762.407-1.467 1.067-1.848z"/>
  <path stroke="url(#k)" stroke-opacity=".47" stroke-width=".267" d="M26.867 8.731a2 2 0 0 1 2 0l14.84 8.569a2 2 0 0 1 1 1.732v17.136a2 2 0 0 1-1 1.732l-14.84 8.569a2 2 0 0 1-2 0L12.026 37.9a2 2 0 0 1-1-1.732V19.032a2 2 0 0 1 1-1.732z"/>
  <path fill="url(#l)" d="M26.8 11.284a2.13 2.13 0 0 1 2.133 0l12.532 7.235a2.13 2.13 0 0 1 1.066 1.847v14.47c0 .763-.406 1.467-1.066 1.848l-12.532 7.235a2.13 2.13 0 0 1-2.133 0l-12.531-7.235a2.13 2.13 0 0 1-1.067-1.848v-14.47c0-.762.407-1.466 1.067-1.847z"/>
  <g filter="url(#m)">
    <path stroke="url(#n)" stroke-width="1.867" d="m13.6 18.668 14.667 8.4m0 0 13.866-8.4m-13.866 8.4v15.6"/>
  </g>
  <g filter="url(#o)">
    <path stroke="url(#p)" stroke-width="1.867" d="M8.533 16.535 28 27.602m19.467 11.067L28 27.602m0 0 19.467-11.067M28 27.602 8.533 38.669"/>
  </g>
  <path fill="url(#q)" d="m19.31 26.91-.377.378zm0-.753.377.377zm1.063 1.816.377.377.377-.377-.377-.377zm-1.063 1.062.377.377zm0 .755.377-.378zm8.446 8.445-.377.377zm.754 0 .377.377zm8.446-8.445.377.377zm0-.755-.377.377zm-1.062-1.062-.377-.377-.377.377.377.377zm1.062-1.062.377.377zm0-.754-.377.377zM28.51 17.71l.377-.377zm-.754 0 .377.377zm-8.069 8.823-.754-.755a1.067 1.067 0 0 0 0 1.509zm1.063 1.062-1.063-1.062-.754.754 1.062 1.062zm-1.063 1.816 1.063-1.062-.755-.754-1.062 1.062zm0 0-.754-.754a1.067 1.067 0 0 0 0 1.509zm8.446 8.446-8.446-8.446-.754.755 8.446 8.445zm0 0-.754.754a1.067 1.067 0 0 0 1.508 0zm8.446-8.446-8.446 8.446.754.754 8.446-8.445zm0 0 .754.755a1.067 1.067 0 0 0 0-1.509zm-1.062-1.062 1.062 1.062.754-.754-1.062-1.062zm1.062-1.816-1.062 1.062.754.754 1.062-1.062zm0 0 .754.754a1.067 1.067 0 0 0 0-1.509zm-8.446-8.446 8.446 8.446.754-.755-8.446-8.445zm0 0 .754-.754a1.067 1.067 0 0 0-1.508 0zm-8.446 8.446 8.446-8.446-.754-.754-8.446 8.446z"/>
  <rect width="12.744" height="12.744" x="19.122" y="29.41" fill="#654CEB" stroke="url(#r)" stroke-width=".267" rx=".4" transform="rotate(-45 19.122 29.41)"/>
  <rect width="12.744" height="12.744" x="19.122" y="26.535" fill="url(#s)" stroke="url(#t)" stroke-width=".267" rx=".4" transform="rotate(-45 19.122 26.535)"/>
  <path stroke="url(#u)" stroke-width=".267" d="M28.267 26.535V17.98c0-.119.143-.178.227-.094l8.557 8.556a.133.133 0 0 1 0 .188l-8.557 8.557a.133.133 0 0 1-.227-.095z"/>
  <path stroke="url(#v)" stroke-width=".267" d="M19.385 26.668h17.626l-8.877 8.878z"/>
  <rect width="7.276" height="7.276" x="22.989" y="26.535" fill="url(#w)" stroke="url(#x)" stroke-width=".267" rx=".4" transform="rotate(-45 22.989 26.535)"/>
  <g filter="url(#y)">
    <path fill="url(#z)" d="M27.555 40.677c.21-.32.68-.32.89 0l5.403 8.21a.533.533 0 0 1-.14.73l-5.403 3.77a.53.53 0 0 1-.61 0l-5.403-3.77a.533.533 0 0 1-.14-.73z"/>
  </g>
  <path fill="#654CEB" stroke="url(#A)" stroke-width=".267" d="M27.622 40.817c.073-.11.245-.059.245.073V53.09a.133.133 0 0 1-.21.11l-5.501-3.84a.133.133 0 0 1-.035-.182z"/>
  <defs>
    <linearGradient id="b" x1="27.467" x2="3.58" y1="27.467" y2="14.789" gradientUnits="userSpaceOnUse">
      <stop stop-color="#4A15EA"/>
      <stop offset=".458" stop-color="#7256F2"/>
      <stop offset="1" stop-color="#B378F2"/>
    </linearGradient>
    <linearGradient id="d" x1="28.533" x2="52.42" y1="27.467" y2="14.789" gradientUnits="userSpaceOnUse">
      <stop stop-color="#4A15EA"/>
      <stop offset=".458" stop-color="#7256F2"/>
      <stop offset="1" stop-color="#B378F2"/>
    </linearGradient>
    <linearGradient id="f" x1="28.667" x2="5.723" y1="36.002" y2="24.637" gradientUnits="userSpaceOnUse">
      <stop stop-color="#4A15EA"/>
      <stop offset=".458" stop-color="#7256F2"/>
      <stop offset="1" stop-color="#B378F2"/>
    </linearGradient>
    <linearGradient id="h" x1="27.333" x2="50.277" y1="36.002" y2="24.637" gradientUnits="userSpaceOnUse">
      <stop stop-color="#4A15EA"/>
      <stop offset=".458" stop-color="#7256F2"/>
      <stop offset="1" stop-color="#B378F2"/>
    </linearGradient>
    <linearGradient id="k" x1="27.867" x2="27.867" y1="8" y2="47.2" gradientUnits="userSpaceOnUse">
      <stop stop-color="#fff"/>
      <stop offset=".489" stop-color="#fff" stop-opacity=".22"/>
      <stop offset="1" stop-color="#fff"/>
    </linearGradient>
    <linearGradient id="q" x1="28.133" x2="28.133" y1="17.555" y2="38.392" gradientUnits="userSpaceOnUse">
      <stop stop-color="#6941B9"/>
      <stop offset=".495" stop-color="#C4ADE4"/>
      <stop offset="1" stop-color="#916CC6"/>
    </linearGradient>
    <linearGradient id="r" x1="31.85" x2="18.839" y1="29.316" y2="42.327" gradientUnits="userSpaceOnUse">
      <stop stop-color="#fff"/>
      <stop offset=".447" stop-color="#fff" stop-opacity=".19"/>
      <stop offset="1" stop-color="#fff"/>
    </linearGradient>
    <linearGradient id="s" x1="31.85" x2="19.499" y1="26.441" y2="38.792" gradientUnits="userSpaceOnUse">
      <stop stop-color="#854DF6"/>
      <stop offset=".545" stop-color="#C3A2E5"/>
      <stop offset=".545" stop-color="#9745ED"/>
      <stop offset="1" stop-color="#3C0279"/>
    </linearGradient>
    <linearGradient id="t" x1="31.85" x2="18.839" y1="26.441" y2="39.452" gradientUnits="userSpaceOnUse">
      <stop stop-color="#fff"/>
      <stop offset=".447" stop-color="#fff" stop-opacity=".19"/>
      <stop offset="1" stop-color="#fff"/>
    </linearGradient>
    <linearGradient id="u" x1="28" x2="28" y1="17.335" y2="35.735" gradientUnits="userSpaceOnUse">
      <stop stop-color="#fff"/>
      <stop offset=".447" stop-color="#fff" stop-opacity=".19"/>
      <stop offset="1" stop-color="#fff"/>
    </linearGradient>
    <linearGradient id="v" x1="28" x2="28" y1="17.335" y2="35.735" gradientUnits="userSpaceOnUse">
      <stop stop-color="#fff"/>
      <stop offset=".447" stop-color="#fff" stop-opacity=".19"/>
      <stop offset="1" stop-color="#fff"/>
    </linearGradient>
    <linearGradient id="x" x1="30.288" x2="22.745" y1="26.48" y2="34.023" gradientUnits="userSpaceOnUse">
      <stop stop-color="#fff"/>
      <stop offset=".447" stop-color="#fff" stop-opacity=".19"/>
      <stop offset="1" stop-color="#fff"/>
    </linearGradient>
    <linearGradient id="z" x1="32.4" x2="28" y1="53.067" y2="42.267" gradientUnits="userSpaceOnUse">
      <stop stop-color="#7A49DC"/>
      <stop offset=".458" stop-color="#E5D3EC"/>
      <stop offset="1" stop-color="#A281E4"/>
    </linearGradient>
    <linearGradient id="A" x1="27.956" x2="17.762" y1="39.901" y2="44.498" gradientUnits="userSpaceOnUse">
      <stop stop-color="#fff"/>
      <stop offset=".447" stop-color="#fff" stop-opacity=".19"/>
      <stop offset="1" stop-color="#fff"/>
    </linearGradient>
    <filter id="a" width="27.467" height="8.585" x="0" y="19.947" color-interpolation-filters="sRGB" filterUnits="userSpaceOnUse">
      <feFlood flood-opacity="0" result="BackgroundImageFix"/>
      <feBlend in="SourceGraphic" in2="BackgroundImageFix" result="shape"/>
      <feColorMatrix in="SourceAlpha" result="hardAlpha" values="0 0 0 0 0 0 0 0 0 0 0 0 0 0 0 0 0 0 127 0"/>
      <feOffset dy="1.067"/>
      <feGaussianBlur stdDeviation=".533"/>
      <feComposite in2="hardAlpha" k2="-1" k3="1" operator="arithmetic"/>
      <feColorMatrix values="0 0 0 0 1 0 0 0 0 1 0 0 0 0 1 0 0 0 0.25 0"/>
      <feBlend in2="shape" result="effect1_innerShadow_1642_17120"/>
      <feColorMatrix in="SourceAlpha" result="hardAlpha" values="0 0 0 0 0 0 0 0 0 0 0 0 0 0 0 0 0 0 127 0"/>
      <feOffset dy="-1.333"/>
      <feGaussianBlur stdDeviation=".027"/>
      <feComposite in2="hardAlpha" k2="-1" k3="1" operator="arithmetic"/>
      <feColorMatrix values="0 0 0 0 0 0 0 0 0 0 0 0 0 0 0 0 0 0 0.25 0"/>
      <feBlend in2="effect1_innerShadow_1642_17120" result="effect2_innerShadow_1642_17120"/>
    </filter>
    <filter id="c" width="27.467" height="8.585" x="28.533" y="19.947" color-interpolation-filters="sRGB" filterUnits="userSpaceOnUse">
      <feFlood flood-opacity="0" result="BackgroundImageFix"/>
      <feBlend in="SourceGraphic" in2="BackgroundImageFix" result="shape"/>
      <feColorMatrix in="SourceAlpha" result="hardAlpha" values="0 0 0 0 0 0 0 0 0 0 0 0 0 0 0 0 0 0 127 0"/>
      <feOffset dy="1.067"/>
      <feGaussianBlur stdDeviation=".533"/>
      <feComposite in2="hardAlpha" k2="-1" k3="1" operator="arithmetic"/>
      <feColorMatrix values="0 0 0 0 1 0 0 0 0 1 0 0 0 0 1 0 0 0 0.25 0"/>
      <feBlend in2="shape" result="effect1_innerShadow_1642_17120"/>
      <feColorMatrix in="SourceAlpha" result="hardAlpha" values="0 0 0 0 0 0 0 0 0 0 0 0 0 0 0 0 0 0 127 0"/>
      <feOffset dy="-1.333"/>
      <feGaussianBlur stdDeviation=".027"/>
      <feComposite in2="hardAlpha" k2="-1" k3="1" operator="arithmetic"/>
      <feColorMatrix values="0 0 0 0 0 0 0 0 0 0 0 0 0 0 0 0 0 0 0.25 0"/>
      <feBlend in2="effect1_innerShadow_1642_17120" result="effect2_innerShadow_1642_17120"/>
    </filter>
    <filter id="e" width="25.636" height="8.51" x="3.031" y="28.485" color-interpolation-filters="sRGB" filterUnits="userSpaceOnUse">
      <feFlood flood-opacity="0" result="BackgroundImageFix"/>
      <feBlend in="SourceGraphic" in2="BackgroundImageFix" result="shape"/>
      <feColorMatrix in="SourceAlpha" result="hardAlpha" values="0 0 0 0 0 0 0 0 0 0 0 0 0 0 0 0 0 0 127 0"/>
      <feOffset dy=".996"/>
      <feGaussianBlur stdDeviation=".498"/>
      <feComposite in2="hardAlpha" k2="-1" k3="1" operator="arithmetic"/>
      <feColorMatrix values="0 0 0 0 1 0 0 0 0 1 0 0 0 0 1 0 0 0 0.25 0"/>
      <feBlend in2="shape" result="effect1_innerShadow_1642_17120"/>
      <feColorMatrix in="SourceAlpha" result="hardAlpha" values="0 0 0 0 0 0 0 0 0 0 0 0 0 0 0 0 0 0 127 0"/>
      <feOffset dy="-1.244"/>
      <feGaussianBlur stdDeviation=".025"/>
      <feComposite in2="hardAlpha" k2="-1" k3="1" operator="arithmetic"/>
      <feColorMatrix values="0 0 0 0 0 0 0 0 0 0 0 0 0 0 0 0 0 0 0.25 0"/>
      <feBlend in2="effect1_innerShadow_1642_17120" result="effect2_innerShadow_1642_17120"/>
    </filter>
    <filter id="g" width="25.636" height="8.51" x="27.333" y="28.485" color-interpolation-filters="sRGB" filterUnits="userSpaceOnUse">
      <feFlood flood-opacity="0" result="BackgroundImageFix"/>
      <feBlend in="SourceGraphic" in2="BackgroundImageFix" result="shape"/>
      <feColorMatrix in="SourceAlpha" result="hardAlpha" values="0 0 0 0 0 0 0 0 0 0 0 0 0 0 0 0 0 0 127 0"/>
      <feOffset dy=".996"/>
      <feGaussianBlur stdDeviation=".498"/>
      <feComposite in2="hardAlpha" k2="-1" k3="1" operator="arithmetic"/>
      <feColorMatrix values="0 0 0 0 1 0 0 0 0 1 0 0 0 0 1 0 0 0 0.25 0"/>
      <feBlend in2="shape" result="effect1_innerShadow_1642_17120"/>
      <feColorMatrix in="SourceAlpha" result="hardAlpha" values="0 0 0 0 0 0 0 0 0 0 0 0 0 0 0 0 0 0 127 0"/>
      <feOffset dy="-1.244"/>
      <feGaussianBlur stdDeviation=".025"/>
      <feComposite in2="hardAlpha" k2="-1" k3="1" operator="arithmetic"/>
      <feColorMatrix values="0 0 0 0 0 0 0 0 0 0 0 0 0 0 0 0 0 0 0.25 0"/>
      <feBlend in2="effect1_innerShadow_1642_17120" result="effect2_innerShadow_1642_17120"/>
    </filter>
    <filter id="m" width="31.614" height="26.942" x="12.07" y="16.793" color-interpolation-filters="sRGB" filterUnits="userSpaceOnUse">
      <feFlood flood-opacity="0" result="BackgroundImageFix"/>
      <feBlend in="SourceGraphic" in2="BackgroundImageFix" result="shape"/>
      <feGaussianBlur result="effect1_foregroundBlur_1642_17120" stdDeviation=".533"/>
    </filter>
    <filter id="o" width="41.989" height="25.891" x="7.006" y="14.656" color-interpolation-filters="sRGB" filterUnits="userSpaceOnUse">
      <feFlood flood-opacity="0" result="BackgroundImageFix"/>
      <feBlend in="SourceGraphic" in2="BackgroundImageFix" result="shape"/>
      <feGaussianBlur result="effect1_foregroundBlur_1642_17120" stdDeviation=".533"/>
    </filter>
    <filter id="y" width="11.872" height="14.114" x="22.064" y="40.438" color-interpolation-filters="sRGB" filterUnits="userSpaceOnUse">
      <feFlood flood-opacity="0" result="BackgroundImageFix"/>
      <feBlend in="SourceGraphic" in2="BackgroundImageFix" result="shape"/>
      <feColorMatrix in="SourceAlpha" result="hardAlpha" values="0 0 0 0 0 0 0 0 0 0 0 0 0 0 0 0 0 0 127 0"/>
      <feOffset dy="1.067"/>
      <feGaussianBlur stdDeviation=".613"/>
      <feComposite in2="hardAlpha" k2="-1" k3="1" operator="arithmetic"/>
      <feColorMatrix values="0 0 0 0 1 0 0 0 0 1 0 0 0 0 1 0 0 0 0.25 0"/>
      <feBlend in2="shape" result="effect1_innerShadow_1642_17120"/>
    </filter>
    <radialGradient id="i" cx="0" cy="0" r="1" gradientTransform="rotate(-125.322 21.137 6.73)scale(24.6757)" gradientUnits="userSpaceOnUse">
      <stop stop-color="#6B5AFE"/>
      <stop offset=".458" stop-color="#FBF9FD"/>
      <stop offset="1" stop-color="#63F"/>
    </radialGradient>
    <radialGradient id="j" cx="0" cy="0" r="1" gradientTransform="rotate(90 .133 27.733)scale(19.6)" gradientUnits="userSpaceOnUse">
      <stop stop-color="#191461"/>
      <stop offset="1" stop-color="#4511AE"/>
    </radialGradient>
    <radialGradient id="l" cx="0" cy="0" r="1" gradientTransform="rotate(-135 19.65 8.03)scale(23.9473)" gradientUnits="userSpaceOnUse">
      <stop stop-color="#F5EFFA"/>
      <stop offset="1" stop-color="#9D80F1"/>
    </radialGradient>
    <radialGradient id="n" cx="0" cy="0" r="1" gradientTransform="matrix(0 12 -14.2667 0 27.867 30.668)" gradientUnits="userSpaceOnUse">
      <stop stop-color="#fff"/>
      <stop offset="1" stop-color="#fff" stop-opacity="0"/>
    </radialGradient>
    <radialGradient id="p" cx="0" cy="0" r="1" gradientTransform="matrix(0 11.0667 -19.4667 0 28 27.602)" gradientUnits="userSpaceOnUse">
      <stop stop-color="#fff"/>
      <stop offset="1" stop-color="#fff" stop-opacity="0"/>
    </radialGradient>
    <radialGradient id="w" cx="0" cy="0" r="1" gradientTransform="rotate(135 7.128 20.562)scale(5.0628)" gradientUnits="userSpaceOnUse">
      <stop stop-color="#9559EA"/>
      <stop offset="1" stop-color="#6B0AD3"/>
    </radialGradient>
  </defs>
</svg>
