<svg xmlns="http://www.w3.org/2000/svg" width="137" height="112" fill="none" viewBox="0 0 137 112">
  <path fill="#2D3033" stroke="#000" stroke-linecap="round" stroke-miterlimit="10" stroke-width=".241" d="M36.136 89.962c-1.752-.638-2.42-1.527-2.005-2.356.257-.511 5.663-5.268 6.743-5.66L62.39 76.66c2.832-1.031 7.467-1.031 10.289 0l21.666 5.358c1.08.392 6.334 5.076 6.591 5.588.416.829-.253 1.718-2.006 2.356l-26.251 9.554c-2.832 1.031-7.467 1.031-10.289 0z"/>
  <mask id="a" width="69" height="26" x="33" y="75" maskUnits="userSpaceOnUse" style="mask-type:alpha">
    <path fill="#fff" stroke="#000" stroke-linecap="round" stroke-miterlimit="10" stroke-width=".3" d="M36.136 89.962c-1.752-.638-2.42-1.527-2.005-2.356.257-.511 5.663-5.268 6.743-5.66L62.39 76.66c2.832-1.031 7.467-1.031 10.289 0l21.666 5.358c1.08.392 6.334 5.076 6.591 5.588.416.829-.253 1.718-2.006 2.356l-26.251 9.554c-2.832 1.031-7.467 1.031-10.289 0z"/>
  </mask>
  <g mask="url(#a)">
    <path fill="#000" d="M67.717 104.073c1.535 0 3.068-.201 4.225-.634l28.436-10.494c1.163-.423 1.744-.982 1.744-1.54v-9.303s-8.673-.902-6.95.227c2.294 1.503-1.594 3.014-1.594 3.014l-22.779 8.335c-1.698.62-3.089 2.606-3.089 4.413z"/>
    <path fill="#F66754" d="m54.519 95.205-9.925-3.506a3.58 3.58 0 0 0-3.389.55l14.986 5.32c0-1.063-.67-2.01-1.672-2.364"/>
    <path stroke="#000" stroke-linecap="round" stroke-miterlimit="10" stroke-width=".241" d="M36.136 89.962c-1.752-.638-2.42-1.527-2.005-2.356.257-.511 5.663-5.268 6.743-5.66L62.39 76.66c2.832-1.031 7.467-1.031 10.289 0l21.666 5.358c1.08.392 6.334 5.076 6.591 5.588.416.829-.253 1.718-2.006 2.356l-26.251 9.554c-2.832 1.031-7.467 1.031-10.289 0z"/>
  </g>
  <path fill="#2D3033" stroke="#000" stroke-linecap="round" stroke-miterlimit="10" stroke-width=".3" d="M41.872 84.477c-2.314-.843-2.314-2.222 0-3.063l21.457-7.808c2.315-.843 6.102-.843 8.409 0l21.455 7.808c2.316.841 2.316 2.22 0 3.063l-21.455 7.809c-2.314.843-6.103.843-8.409 0z"/>
  <path stroke="#777E87" stroke-linecap="round" stroke-miterlimit="10" stroke-width=".481" d="M46.684 84.19c-1.88-.684-1.88-1.805 0-2.488l17.433-6.345c1.88-.684 4.959-.684 6.832 0l17.432 6.345c1.882.683 1.882 1.804 0 2.488L70.95 90.535c-1.881.684-4.959.684-6.833 0z"/>
  <path fill="#E9EFF5" stroke="#000" stroke-linecap="round" stroke-miterlimit="10" stroke-width=".241" d="M110.213 23.683c0-1.577-1.548-3.063-4.075-3.671l-31.354-7.57c-3.29-.793-6.994.204-8.275 2.225L36.57 61.925a2.64 2.64 0 0 0-.43 1.422l-.023 3.924c0 1.578 1.544 3.07 4.075 3.68l31.355 7.568c3.287.793 6.994-.203 8.274-2.223l29.942-47.257c.276-.418.426-.913.432-1.42l.021-3.924z"/>
  <mask id="b" width="76" height="67" x="35" y="12" maskUnits="userSpaceOnUse" style="mask-type:alpha">
    <path fill="#fff" stroke="#000" stroke-linecap="round" stroke-miterlimit="10" stroke-width=".241" d="M110.213 23.683c0-1.577-1.548-3.063-4.075-3.671l-31.354-7.57c-3.29-.793-6.994.204-8.275 2.225L36.57 61.925a2.64 2.64 0 0 0-.43 1.422l-.023 3.924c0 1.578 1.544 3.07 4.075 3.68l31.355 7.568c3.287.793 6.994-.203 8.274-2.223l29.942-47.257c.276-.418.426-.913.432-1.42l.021-3.924z"/>
  </mask>
  <g mask="url(#b)">
    <path fill="#2E3033" d="M110.213 23.683c0-1.577-1.548-3.063-4.075-3.671l-31.354-7.57c-3.29-.793-6.994.204-8.275 2.225L36.57 61.925a2.64 2.64 0 0 0-.43 1.422l-.023 3.924c0 1.578 1.544 3.07 4.075 3.68l31.355 7.568c3.287.793 6.994-.203 8.274-2.223l29.942-47.257c.276-.418.426-.913.432-1.42l.021-3.924z"/>
    <path fill="#222427" d="M36.57 61.925a2.64 2.64 0 0 0-.432 1.422l-.021 3.924c0 1.578 1.543 3.07 4.074 3.681l31.355 7.567c1.158.274 2.351.343 3.531.203V72.8l-37.22-12.895z"/>
    <path fill="#505356" d="M106.138 20.023c3.29.794 4.918 3.077 3.637 5.099l-29.94 47.257c-1.278 2.029-4.984 3.018-8.274 2.225l-31.355-7.57c-3.287-.793-4.917-3.076-3.637-5.098L66.51 14.68c1.281-2.029 4.985-3.018 8.275-2.225z"/>
    <path fill="#000" d="M63.17 75.095a.477.477 0 0 0 .465-.487.477.477 0 0 0-.465-.487.477.477 0 0 0-.466.487c0 .269.209.487.466.487M64.772 75.483a.477.477 0 0 0 .465-.487.477.477 0 0 0-.465-.487.477.477 0 0 0-.466.487c0 .269.208.487.466.487M66.373 75.867a.477.477 0 0 0 .466-.487.477.477 0 0 0-.466-.486.477.477 0 0 0-.465.486c0 .27.208.487.465.487M67.973 76.255a.477.477 0 0 0 .466-.487.477.477 0 0 0-.466-.487.477.477 0 0 0-.465.487c0 .27.208.487.465.487M41.058 69.724a.477.477 0 0 0 .466-.487.477.477 0 0 0-.466-.487.477.477 0 0 0-.466.487c0 .269.209.487.466.487M42.66 70.11a.477.477 0 0 0 .466-.486.477.477 0 0 0-.466-.487.477.477 0 0 0-.466.487c0 .269.209.486.466.486M44.26 70.496a.477.477 0 0 0 .465-.487.477.477 0 0 0-.465-.487.477.477 0 0 0-.466.487c0 .27.208.487.466.487M45.862 70.884a.477.477 0 0 0 .465-.487.477.477 0 0 0-.465-.487.477.477 0 0 0-.466.487c0 .269.208.487.465.487"/>
  </g>
  <path stroke="#2E3033" stroke-width=".3" d="M42.22 65.4c-1.313-.317-2.274-.926-2.78-1.638Zm64.788-42.325c.502.703.565 1.51.081 2.277ZM39.439 63.762c-.501-.703-.565-1.511-.082-2.277Z"/>
  <path fill="#2E3033" d="M71.304 18.395 86.06 21.65l-1.12 1.756-14.757-3.256zM68.347 22.906l30.623 7.268-1.12 1.757-30.624-7.268zM65.22 27.56l25.612 5.926-1.121 1.756-25.612-5.925zM61.97 32.262l30.624 7.268-1.121 1.756-30.624-7.268zM58.713 37.24l20.425 4.607-1.121 1.756-20.425-4.606zM53.303 47.084l30.623 7.268-1.12 1.756-30.624-7.267zM49.988 52.183 80.61 59.45l-1.121 1.757-30.623-7.268zM45.672 56.996l20.425 4.606-1.121 1.757-20.425-4.606z"/>
  <path stroke="#000" stroke-linecap="round" stroke-miterlimit="10" stroke-width=".241" d="M110.213 23.683c0-1.577-1.548-3.063-4.075-3.671l-31.354-7.57c-3.29-.793-6.994.204-8.275 2.225L36.57 61.925a2.64 2.64 0 0 0-.43 1.422l-.023 3.924c0 1.578 1.544 3.07 4.075 3.68l31.355 7.568c3.287.793 6.994-.203 8.274-2.223l29.942-47.257c.276-.418.426-.913.432-1.42l.021-3.924z"/>
  <mask id="c" width="76" height="67" x="35" y="12" maskUnits="userSpaceOnUse" style="mask-type:alpha">
    <path fill="#fff" stroke="#000" stroke-linecap="round" stroke-miterlimit="10" stroke-width=".3" d="M110.213 23.683c0-1.577-1.548-3.063-4.075-3.671l-31.354-7.57c-3.29-.793-6.994.204-8.275 2.225L36.57 61.925a2.64 2.64 0 0 0-.43 1.422l-.023 3.924c0 1.578 1.544 3.07 4.075 3.68l31.355 7.568c3.287.793 6.994-.203 8.274-2.223l29.942-47.257c.276-.418.426-.913.432-1.42l.021-3.924z"/>
  </mask>
  <g mask="url(#c)">
    <path fill="#000" d="m40.084 53.53-2.003 3.192s6.113 1.776 12.165.98c6.053-.797 11.607-2.247 11.607-2.247z"/>
  </g>
  <path fill="#404346" stroke="#000" stroke-linecap="round" stroke-width=".241" d="M36.3 55.062c-9.022-2.906-17.095-9.576-19.76-22.958 1.343-.146 2.803-.264 4.356-.39 6.26-.506 14.042-1.135 21.783-4.177 1.707 9.752 6.372 20.079 18.893 27.928-6.468 1.662-16.337 2.475-25.272-.403Z"/>
  <path stroke="#2E3033" stroke-linecap="round" stroke-width=".962" d="M21.96 35.214c4.75-.24 14.16-1.889 17.665-2.839M22.866 37.709c4.454-.304 8.703-.98 12.42-1.748M25.18 42.653c5.54 0 14.064-1.936 17.569-2.886M27.216 45.035c5.87-.283 13.272-1.933 16.777-2.884M29.543 47.363c5.557-.267 12.563-1.83 15.881-2.73M31.925 49.609c2.7-.168 6.04-.633 9.162-1.4M38.729 53.11c4.455-.304 8.703-.98 12.421-1.748M42.862 54.822c1.336 0 2.416-.205 4.98-.633"/>
  <mask id="d" width="46" height="31" x="16" y="27" maskUnits="userSpaceOnUse" style="mask-type:alpha">
    <path fill="#404346" stroke="#000" stroke-linecap="round" stroke-width=".3" d="M36.31 55.034c-9.007-2.901-17.066-9.554-19.734-22.904 1.332-.144 2.78-.26 4.32-.385 6.252-.506 14.026-1.135 21.76-4.167 1.71 9.733 6.372 20.035 18.842 27.876-6.466 1.649-16.292 2.446-25.189-.42Z"/>
  </mask>
  <g mask="url(#d)">
    <path fill="#2E3033" stroke="#000" stroke-linecap="round" stroke-width=".3" d="M47.885 57.336c-4.209-.253-12.153-1.325-18.266-4.123.916-.09 2.16-.32 3.446-.771 1.53-.537 3.132-1.389 4.31-2.694 1.492 1.962 5.392 5.83 10.51 7.588Z"/>
  </g>
  <path stroke="#000" stroke-linecap="round" stroke-width=".241" d="M36.3 55.062c-9.022-2.906-17.095-9.576-19.76-22.958 1.343-.146 2.803-.264 4.356-.39 6.26-.506 14.042-1.135 21.783-4.177 1.707 9.752 6.372 20.079 18.893 27.928-6.468 1.662-16.337 2.475-25.272-.403Z"/>
  <path fill="#404346" stroke="#000" stroke-width=".241" d="m101.061 72.655-4.508-9.176 4.515-8.193 10.686-1.45 4.508 9.175-4.514 8.192z"/>
  <mask id="e" width="21" height="20" x="96" y="53" maskUnits="userSpaceOnUse" style="mask-type:alpha">
    <path fill="#404346" stroke="#000" stroke-width=".3" d="m101.078 72.623-4.491-9.143 4.5-8.166 10.65-1.446 4.491 9.142-4.499 8.165z"/>
  </mask>
  <g mask="url(#e)">
    <path fill="#2E3033" d="m107.364 62.133 4.402-8.299 4.486 9.168-4.486 8.216z"/>
    <path stroke="#000" stroke-width=".3" d="m111.811 53.765-4.419 8.357m0 0-10.859 1.395m10.859-1.395 4.307 9.046"/>
  </g>
  <path fill="#000" d="m98.928 64.714 7.266-.93 1.248 2.68-7.265.93zM100.668 68.47l7.265-.93 1.249 2.68-7.266.93z"/>
  <path stroke="#66DD8C" stroke-linecap="round" stroke-width=".722" d="m100.468 65.644 1.083-.13M103 65.274l2.435-.278M103.55 69.202l1.082-.13M106.025 68.84l1.083-.131"/>
  <path stroke="#000" stroke-width=".241" d="m101.061 72.655-4.508-9.176 4.515-8.193 10.686-1.45 4.508 9.175-4.514 8.192z"/>
</svg>
