<svg xmlns="http://www.w3.org/2000/svg" width="80" height="81" fill="none" viewBox="0 0 80 81">
  <path fill="#C2C8CF" stroke="#000" stroke-linecap="round" stroke-linejoin="round" stroke-width=".286" d="M66.126 68.562c0 .916-.273 1.834-.826 2.708-.511.813-1.26 1.586-2.249 2.287q-.45.317-.97.615c-5.395 3.1-14.141 3.1-19.534 0a12 12 0 0 1-.97-.615c-.988-.701-1.737-1.474-2.248-2.287-.553-.874-.829-1.792-.829-2.708 0-2.03 1.351-4.062 4.047-5.61 5.393-3.1 14.14-3.1 19.535 0 2.696 1.548 4.044 3.58 4.044 5.61"/>
  <path fill="#000" stroke="#000" stroke-linecap="round" stroke-linejoin="round" stroke-width=".286" d="M58.1 35.019v4.21c0 .599-.28 1.199-.84 1.728q-.357.341-.867.636c-2.277 1.306-5.967 1.306-8.243 0a4.5 4.5 0 0 1-.867-.635c-.56-.53-.84-1.13-.84-1.73v-4.21c0 .719.379 1.39 1.202 2.03q.047.04.096.076.19.136.41.26c2.275 1.306 5.965 1.306 8.242 0q.218-.126.409-.26c.865-.612 1.297-1.36 1.297-2.105"/>
  <path fill="#E9EFF5" stroke="#000" stroke-linecap="round" stroke-linejoin="round" stroke-width=".286" d="M48.15 37.383"/>
  <path stroke="#000" stroke-linecap="round" stroke-linejoin="round" stroke-width=".286" d="M55.78 37.688v1.733l.577.572.036 1.6M48.2 37.411v1.67l.576.573v2.25"/>
  <path fill="#C2C8CF" stroke="#000" stroke-linecap="round" stroke-linejoin="round" stroke-width=".286" d="M57.15 69.47c.168-.302.253-.62.253-.94V40.958a.143.143 0 0 0-.241-.103 4.4 4.4 0 0 1-.84.614c-1.112.637-2.578.96-4.05.96-1.474 0-2.94-.323-4.05-.96l-.072.124m9 27.877q0 0 0 0l-.125-.069m.125.07v-.001l-.125-.069m.125.07c-.248.45-.68.865-1.28 1.209-1.001.574-2.304.856-3.6.856-1.294 0-2.597-.282-3.597-.856-.601-.345-1.03-.76-1.28-1.21h0a1.9 1.9 0 0 1-.253-.938V40.958a.143.143 0 0 1 .242-.103 4.4 4.4 0 0 0 .84.614l-.072.124m8.875 27.808c-.233.422-.643.82-1.227 1.155-1.948 1.117-5.107 1.117-7.054 0-.584-.335-.992-.733-1.227-1.155a1.8 1.8 0 0 1-.234-.869v-27.38l-.098-.09.098-.104h.143v.129q.313.268.724.506m8.875 27.808a1.8 1.8 0 0 0 .235-.871V41.152l.098-.09-.098-.104h-.143v.129q-.312.268-.724.506c-2.277 1.305-5.967 1.305-8.243 0"/>
  <mask id="a" width="11" height="32" x="47" y="40" maskUnits="userSpaceOnUse" style="mask-type:alpha">
    <path fill="#E9EAEB" d="M57.26 40.958V68.53c0 .294-.078.588-.235.871-.232.422-.643.82-1.227 1.155-1.947 1.117-5.106 1.117-7.054 0-.584-.335-.992-.733-1.226-1.155a1.8 1.8 0 0 1-.235-.869V40.958q.357.34.867.635c2.276 1.305 5.966 1.305 8.243 0q.51-.295.867-.635"/>
  </mask>
  <g mask="url(#a)">
    <path fill="#777E87" d="M54.12 36.955h11.657v56.069H54.12z"/>
  </g>
  <path fill="#777E87" stroke="#000" stroke-linecap="round" stroke-linejoin="round" stroke-width=".286" d="M57.26 40.958v1.948a4.5 4.5 0 0 1-.867.634c-2.277 1.306-5.967 1.306-8.243 0a4.5 4.5 0 0 1-.867-.634v-1.948q.357.34.867.635c2.276 1.305 5.966 1.305 8.243 0q.51-.295.867-.635"/>
  <path stroke="#000" stroke-linecap="round" stroke-linejoin="round" stroke-width=".286" d="M54.736 42.26v4.032l1.078 1.071.035 23.163M49.592 42.199v7.214l-1.077 1.07-.035 19.908"/>
  <path fill="#000" d="M57.326 38.848c.076-.176.056-.354-.045-.397-.1-.042-.244.066-.32.243-.075.177-.055.354.046.397.1.043.244-.066.32-.243M56.331 45.21c.076-.177.055-.355-.045-.397-.101-.043-.244.066-.32.242-.075.177-.055.355.046.397.1.043.243-.066.319-.242M47.71 40.246c.101-.042.122-.22.046-.397-.075-.176-.218-.285-.32-.242-.1.042-.12.22-.045.397.076.176.219.285.32.242M48.457 49.083c.1-.042.12-.22.045-.396-.076-.177-.219-.286-.32-.243-.1.042-.12.22-.045.397.076.176.219.285.32.242"/>
  <path fill="#E9EFF5" stroke="#000" stroke-linecap="round" stroke-linejoin="round" stroke-width=".286" d="M53.204 50.515a.93.93 0 0 0-.933-.927.93.93 0 0 0-.932.927v9.73a.93.93 0 0 0 .932.928.93.93 0 0 0 .933-.927z"/>
  <path fill="#777E87" stroke="#000" stroke-linecap="round" stroke-linejoin="round" stroke-width=".286" d="M52.271 51.047c.272 0 .493-.22.493-.49 0-.271-.22-.49-.493-.49a.49.49 0 0 0-.493.49c0 .27.22.49.493.49M52.271 53.153h-.001a.49.49 0 0 0-.493.49v6.556c0 .271.22.49.493.49h.001c.272 0 .493-.219.493-.49v-6.556c0-.271-.22-.49-.493-.49M66.126 68.62v3.318c0 1.767-1.025 3.536-3.075 4.984a13 13 0 0 1-.97.615c-5.395 3.094-14.141 3.094-19.534 0a12 12 0 0 1-.97-.615c-2.05-1.448-3.077-3.217-3.077-4.984V68.62c0 .914.276 1.83.829 2.702.51.812 1.26 1.582 2.249 2.282q.45.317.97.614c5.392 3.094 14.138 3.094 19.534 0q.517-.297.97-.614c.988-.7 1.737-1.47 2.248-2.282.553-.872.826-1.788.826-2.702"/>
  <path stroke="#000" stroke-linecap="round" stroke-linejoin="round" stroke-width=".286" d="M61.58 76.034q.284-.15.555-.307.513-.3.96-.62M53.537 78.004c2.029-.095 4.024-.444 5.828-1.043"/>
  <path fill="#000" d="M41.24 75.467c.206-.086.247-.45.092-.811s-.447-.585-.652-.498-.246.45-.09.812c.154.361.446.584.65.497M42.993 76.48c.205-.088.246-.451.09-.813-.154-.361-.446-.584-.65-.497-.206.086-.247.45-.092.811s.447.585.652.498"/>
  <path fill="#E9EFF5" stroke="#000" stroke-linecap="round" stroke-linejoin="round" stroke-width=".286" d="M58.1 35.019c0 .746-.433 1.493-1.298 2.105q-.19.134-.41.26c-2.276 1.306-5.966 1.306-8.242 0a4 4 0 0 1-.409-.26l-.096-.076c-.823-.64-1.202-1.31-1.202-2.03 0-.855.57-1.711 1.707-2.364 2.276-1.306 5.966-1.306 8.243 0 1.138.653 1.706 1.509 1.706 2.365"/>
  <path fill="#C2C8CF" stroke="#000" stroke-linecap="round" stroke-linejoin="round" stroke-width=".286" d="M55.506 35.61c-.159.287-.437.557-.835.785-1.325.76-3.475.76-4.799 0-.397-.228-.675-.498-.834-.785-.371-.672-.093-1.437.834-1.97 1.325-.76 3.475-.76 4.8 0 .928.533 1.207 1.297.834 1.97"/>
  <path fill="#777E87" stroke="#000" stroke-linecap="round" stroke-linejoin="round" stroke-width=".286" d="M55.506 35.61c-.159.287-.437.557-.835.785-1.325.76-3.475.76-4.799 0-.397-.228-.675-.498-.834-.786.16-.287.437-.557.834-.785 1.326-.76 3.475-.76 4.8 0 .397.228.675.498.834.785"/>
  <path fill="#E9EFF5" stroke="#000" stroke-miterlimit="10" stroke-width=".286" d="M60.271 3.673c5.024 2.883 9.083 9.87 9.067 15.607l-.03 10.388-18.192-10.44.03-10.387c.016-5.736 4.101-8.051 9.125-5.168Z"/>
  <path fill="#777E87" stroke="#000" stroke-miterlimit="10" stroke-width=".286" d="M44.662 43.902 26.47 33.463l24.646-14.235L69.31 29.668z"/>
  <path fill="#000" stroke="#000" stroke-miterlimit="10" stroke-width=".286" d="M29.153 17.278c-1.633.943-2.645 2.948-2.653 5.798l-.03 10.388L51.118 19.23l.03-10.388c.008-2.85 1.02-4.855 2.653-5.798z"/>
  <path fill="#E9EFF5" stroke="#000" stroke-miterlimit="10" stroke-width=".286" d="M60.271 3.673c-2.528-1.45-4.818-1.584-6.471-.63L29.153 17.278c1.654-.956 3.944-.82 6.472.63 5.024 2.883 9.083 9.87 9.066 15.607l-.029 10.388 24.647-14.234.029-10.388c.016-5.737-4.043-12.724-9.067-15.607Z"/>
  <path fill="#C2C8CF" fill-rule="evenodd" d="M45.854 34.074c.019-6.416-4.52-14.23-10.137-17.452h-.002c-5.617-3.223-10.185-.636-10.204 5.779l-.032 11.616 20.343 11.672zm-1.162-.56c.017-5.736-4.042-12.724-9.066-15.606h-.001c-5.024-2.883-9.11-.569-9.126 5.168l-.03 10.388 18.194 10.439z" clip-rule="evenodd"/>
  <path fill="#000" d="m35.717 16.622.07-.124-.032-.02h-.038zm10.137 17.452h-.142zM35.715 16.622l-.07.123.032.02h.038zM25.511 22.4h-.143zm-.032 11.616h-.143v.082l.072.042zm20.343 11.672-.071.124.213.122v-.245zM35.626 17.91l.07-.125-.032-.019h-.038zm9.066 15.606h-.143zm-9.067-15.607-.072.124.034.02h.038zm-9.126 5.168h-.143zm-.03 10.388h-.142v.083l.071.04zm18.194 10.439-.071.124.213.122.001-.246zm-9.017-27.158c2.781 1.596 5.304 4.335 7.13 7.477s2.945 6.675 2.935 9.851h.286c.01-3.238-1.13-6.82-2.974-9.995s-4.4-5.954-7.235-7.58zm.07.02v-.286zM25.653 22.4c.01-3.177 1.144-5.368 2.93-6.38 1.788-1.012 4.278-.872 7.06.724l.142-.247c-2.834-1.627-5.437-1.805-7.343-.725s-3.065 3.389-3.075 6.628zm-.032 11.616.032-11.616h-.286l-.032 11.615zm20.27 11.548L25.55 33.893l-.143.248 20.344 11.672zm-.18-11.492-.033 11.616h.286l.032-11.615zm-10.157-16.04c2.485 1.425 4.74 3.872 6.37 6.68 1.632 2.808 2.633 5.964 2.624 8.801l.286.001c.008-2.9-1.012-6.105-2.662-8.946s-3.937-5.328-6.476-6.785zm.07.018v-.286zm-8.983 5.026c.008-2.838 1.02-4.792 2.612-5.693 1.592-.902 3.813-.779 6.3.648l.142-.248c-2.538-1.456-4.872-1.617-6.583-.649-1.711.97-2.749 3.041-2.757 5.94zm-.03 10.387.03-10.387-.286-.001-.03 10.388zM44.734 43.78 26.541 33.34l-.143.248 18.194 10.439zm-.185-10.265-.029 10.388.286.001.03-10.388z"/>
  <path fill="#E9EFF5" stroke="#000" stroke-miterlimit="10" stroke-width=".286" d="M60.362 2.386C57.535.765 54.974.614 53.125 1.682L28.478 15.916c1.85-1.068 4.41-.918 7.237.704 5.618 3.223 10.157 11.037 10.138 17.452l-.032 11.616 24.646-14.234.033-11.615c.019-6.416-4.52-14.229-10.138-17.453Z"/>
  <mask id="b" width="43" height="45" x="28" y="1" maskUnits="userSpaceOnUse" style="mask-type:alpha">
    <path fill="#fff" d="M60.362 2.386C57.535.765 54.974.614 53.125 1.682L28.478 15.916c1.85-1.068 4.41-.918 7.237.704 5.618 3.223 10.157 11.037 10.138 17.452l-.032 11.616 24.646-14.234.033-11.615c.019-6.416-4.52-14.229-10.138-17.453"/>
  </mask>
  <g mask="url(#b)">
    <path fill="#C2C8CF" d="m25.228 24.64 45.73-26.239 9.092 15.651-45.73 26.239zM7.393 8.422l45.73-26.239 9.092 15.65-45.73 26.24z"/>
    <path fill="#777E87" d="m33.387 32.75 45.73-26.24 9.092 15.651L42.48 48.4z"/>
  </g>
  <path stroke="#000" stroke-miterlimit="10" stroke-width=".286" d="M60.362 2.386C57.535.765 54.974.614 53.125 1.682L28.478 15.916c1.85-1.068 4.41-.918 7.237.704 5.618 3.223 10.157 11.037 10.138 17.452l-.032 11.616 24.646-14.234.033-11.615c.019-6.416-4.52-14.229-10.138-17.453Z"/>
  <path fill="#000" d="m35.717 16.622.07-.124-.032-.02h-.038zm10.137 17.452h-.142zM35.715 16.622l-.07.123.032.02h.038zM25.511 22.4h-.143zm-.032 11.616h-.143v.082l.072.042zm20.343 11.672-.071.124.213.122v-.245zM35.626 17.91l.07-.125-.032-.019h-.038zm9.066 15.606h-.143zm-9.067-15.607-.072.124.034.02h.038zm-9.126 5.168h-.143zm-.03 10.388h-.142v.083l.071.04zm18.194 10.439-.071.124.213.122.001-.246zm-9.017-27.158c2.781 1.596 5.304 4.335 7.13 7.477s2.945 6.675 2.935 9.851h.286c.01-3.238-1.13-6.82-2.974-9.995s-4.4-5.954-7.235-7.58zm.07.02v-.286zM25.653 22.4c.01-3.177 1.144-5.368 2.93-6.38 1.788-1.012 4.278-.872 7.06.724l.142-.247c-2.834-1.627-5.437-1.805-7.343-.725s-3.065 3.389-3.075 6.628zm-.032 11.616.032-11.616h-.286l-.032 11.615zm20.27 11.548L25.55 33.893l-.143.248 20.344 11.672zm-.18-11.492-.033 11.616h.286l.032-11.615zm-10.157-16.04c2.485 1.425 4.74 3.872 6.37 6.68 1.632 2.808 2.633 5.964 2.624 8.801l.286.001c.008-2.9-1.012-6.105-2.662-8.946s-3.937-5.328-6.476-6.785zm.07.018v-.286zm-8.983 5.026c.008-2.838 1.02-4.792 2.612-5.693 1.592-.902 3.813-.779 6.3.648l.142-.248c-2.538-1.456-4.872-1.617-6.583-.649-1.711.97-2.749 3.041-2.757 5.94zm-.03 10.387.03-10.387-.286-.001-.03 10.388zM44.734 43.78 26.541 33.34l-.143.248 18.194 10.439zm-.185-10.265-.029 10.388.286.001.03-10.388z"/>
  <path fill="#777E87" stroke="#000" stroke-linecap="round" stroke-linejoin="round" stroke-width=".286" d="M58.32 28.712v5.427c0 .584-.315 1.122-.82 1.411l-4.731 2.714a.65.65 0 0 1-.632.012l-.054-.031a.65.65 0 0 1-.3-.546V32.27c0-.582.314-1.12.82-1.411l4.062-2.33.669-.384a.65.65 0 0 1 .608-.024l.095.056c.166.114.28.305.28.535z"/>
  <path fill="#000" stroke="#000" stroke-linecap="round" stroke-linejoin="round" stroke-width=".286" d="M56.756 32.227c0 1.081-.763 2.396-1.704 2.937-.642.367-1.2.282-1.492-.152a1 1 0 0 1-.089-.161 1.6 1.6 0 0 1-.126-.665c0-1.082.764-2.397 1.707-2.938.3-.172.584-.247.83-.226a1 1 0 0 1 .097.01c.468.078.777.507.777 1.195"/>
  <path fill="#E9EFF5" stroke="#000" stroke-linecap="round" stroke-linejoin="round" stroke-width=".286" d="M57.882 28.25q.03.015.061.014h.002a.143.143 0 0 0 .071-.267l-1.559-.894h0l-.097-.055h0l-.01-.005a.79.79 0 0 0-.739.029q0 0 0 0l-4.73 2.713h0c-.55.317-.892.902-.892 1.536v5.429c0 .288.15.524.36.662.026.02.053.033.07.041l1.594.916a.143.143 0 0 0 .149-.244.5.5 0 0 1-.234-.426V32.27c0-.53.286-1.022.748-1.287q0 0 0 0l4.061-2.33h0l.669-.384q0 0 0 0a.5.5 0 0 1 .476-.019"/>
  <mask id="c" width="8" height="12" x="50" y="27" maskUnits="userSpaceOnUse" style="mask-type:alpha">
    <path fill="#fff" d="M57.943 28.121a.65.65 0 0 0-.608.024l-.669.385-4.061 2.329a1.63 1.63 0 0 0-.82 1.411V37.7c0 .237.123.432.3.546l-1.6-.918q-.029-.014-.053-.032a.65.65 0 0 1-.3-.545v-5.43c0-.582.314-1.12.82-1.41l4.73-2.714c.201-.116.424-.111.607-.024l.097.055 1.559.894z"/>
  </mask>
  <g mask="url(#c)">
    <path fill="#C2C8CF" d="M53.105 31.857 49.84 30.12l-1.399 9.673 4.663.347z"/>
  </g>
  <path fill="#000" d="M57.24 30.044c.149-.256.149-.53.001-.616-.148-.084-.387.054-.536.309-.148.255-.148.53 0 .615.147.085.387-.053.535-.308M53.156 32.221c.148-.255.148-.53 0-.615-.147-.085-.387.053-.535.308s-.149.53 0 .615c.147.085.387-.053.535-.308M57.375 34.642c.148-.255.149-.53 0-.615-.147-.085-.387.053-.535.308s-.148.53 0 .615c.147.085.387-.053.535-.308M53.334 36.77c.148-.256.148-.531 0-.616-.147-.085-.387.053-.535.308s-.148.531 0 .616c.147.085.387-.053.535-.309"/>
  <path fill="#777E87" stroke="#000" stroke-miterlimit="10" stroke-width=".286" d="M35.013 51.799c-5.581 3.223-14.66 3.223-20.277 0-2.827-1.622-4.238-3.751-4.232-5.877l-.004 1.133c-.006 2.126 1.406 4.255 4.233 5.877 5.617 3.223 14.695 3.223 20.276 0l10.105-5.836.004-1.133z"/>
  <path fill="#000" stroke="#000" stroke-miterlimit="10" stroke-width=".286" d="m24.78 35.218 18.193 10.438-.002.944-18.192-10.438z"/>
  <path fill="#000" stroke="#000" stroke-miterlimit="10" stroke-width=".286" d="M15.745 40.437c-2.48 1.432-3.721 3.306-3.726 5.183l-.002.944c.006-1.877 1.246-3.751 3.725-5.183l9.037-5.219.003-.944z"/>
  <path fill="#777E87" stroke="#000" stroke-miterlimit="10" stroke-width=".286" d="m42.97 46.6-9.037 5.219c-4.991 2.882-13.109 2.882-18.133 0s-5.05-7.556-.06-10.44l9.038-5.218z"/>
  <path fill="#E9EFF5" stroke="#000" stroke-miterlimit="10" stroke-width=".286" d="M33.936 50.875c-4.991 2.882-13.11 2.882-18.133 0-2.527-1.45-3.79-3.354-3.785-5.255l-.002.944c-.006 1.9 1.256 3.805 3.784 5.256 5.025 2.882 13.142 2.882 18.134 0L42.97 46.6l.002-.944-9.037 5.219z"/>
  <path fill="#E9EFF5" fill-rule="evenodd" d="m35.013 51.799 10.105-5.836L24.774 34.29 14.67 40.126c-5.58 3.223-5.55 8.45.067 11.673s14.695 3.223 20.277 0m-1.077-.925 9.037-5.218-18.192-10.44-9.038 5.22c-4.99 2.883-4.964 7.556.06 10.438s13.141 2.883 18.133 0" clip-rule="evenodd"/>
  <path fill="#000" d="m45.118 45.963.071.123.215-.124-.215-.123zm-10.105 5.836.071.124zM24.775 34.29l.07-.124-.07-.04-.072.04zM14.67 40.126l.07.124zm28.303 5.53.071.123.215-.124-.215-.123zm-9.037 5.218.071.124zM24.78 35.217l.07-.124-.07-.041-.072.041zm-9.038 5.219-.071-.124zm.06 10.438.07-.123zm29.243-5.035-10.105 5.836.143.248 10.105-5.837zM24.704 34.414l20.343 11.673.142-.248-20.343-11.673zM14.74 40.25l10.105-5.836-.143-.248-10.105 5.837zm.066 11.425c-2.783-1.597-4.15-3.67-4.16-5.713-.013-2.043 1.33-4.116 4.094-5.712l-.143-.247c-2.817 1.626-4.25 3.779-4.238 5.96.013 2.182 1.47 4.334 4.305 5.96zm20.134 0c-2.764 1.596-6.402 2.398-10.053 2.398s-7.3-.802-10.081-2.398l-.142.248c2.835 1.627 6.535 2.436 10.223 2.436 3.687 0 7.378-.81 10.196-2.436zm7.96-6.143-9.037 5.219.143.247 9.037-5.219zM24.71 35.34l18.193 10.438.142-.247-18.192-10.439zm-8.894 5.218 9.037-5.218-.143-.248-9.037 5.219zm.059 10.192c-2.487-1.427-3.703-3.276-3.714-5.096-.01-1.82 1.186-3.669 3.655-5.096l-.143-.247c-2.522 1.457-3.808 3.386-3.797 5.344s1.319 3.886 3.857 5.342zm17.99 0c-2.469 1.425-5.72 2.142-8.983 2.142s-6.522-.717-9.007-2.142l-.143.247c2.54 1.457 5.85 2.181 9.15 2.181s6.604-.724 9.126-2.18z"/>
</svg>
