<svg xmlns="http://www.w3.org/2000/svg" width="136" height="136" fill="none" viewBox="0 0 136 136">
  <defs>
    <filter id="a" width="109.249" height="55.925" x="10.58" y="11.084" color-interpolation-filters="sRGB" filterUnits="userSpaceOnUse">
      <feFlood flood-opacity="0" result="BackgroundImageFix"/>
      <feBlend in="SourceGraphic" in2="BackgroundImageFix" result="shape"/>
      <feColorMatrix in="SourceAlpha" result="hardAlpha" values="0 0 0 0 0 0 0 0 0 0 0 0 0 0 0 0 0 0 127 0"/>
      <feOffset dy="-1.433"/>
      <feComposite in2="hardAlpha" k2="-1" k3="1" operator="arithmetic"/>
      <feColorMatrix values="0 0 0 0 0.0769869 0 0 0 0 0.928011 0 0 0 0 0.630153 0 0 0 1 0"/>
      <feBlend in2="shape" result="effect1_innerShadow_126_2899"/>
    </filter>
    <filter id="b" width="9.11" height="26.482" x="33.272" y="50.656" color-interpolation-filters="sRGB" filterUnits="userSpaceOnUse">
      <feFlood flood-opacity="0" result="BackgroundImageFix"/>
      <feBlend in="SourceGraphic" in2="BackgroundImageFix" result="shape"/>
      <feColorMatrix in="SourceAlpha" result="hardAlpha" values="0 0 0 0 0 0 0 0 0 0 0 0 0 0 0 0 0 0 127 0"/>
      <feOffset dy="-2.866"/>
      <feComposite in2="hardAlpha" k2="-1" k3="1" operator="arithmetic"/>
      <feColorMatrix values="0 0 0 0 0.890511 0 0 0 0 0.890511 0 0 0 0 0.890511 0 0 0 1 0"/>
      <feBlend in2="shape" result="effect1_innerShadow_126_2899"/>
    </filter>
    <filter id="c" width="9.108" height="41.883" x="34.568" y="78.318" color-interpolation-filters="sRGB" filterUnits="userSpaceOnUse">
      <feFlood flood-opacity="0" result="BackgroundImageFix"/>
      <feBlend in="SourceGraphic" in2="BackgroundImageFix" result="shape"/>
      <feColorMatrix in="SourceAlpha" result="hardAlpha" values="0 0 0 0 0 0 0 0 0 0 0 0 0 0 0 0 0 0 127 0"/>
      <feOffset dy="-2.866"/>
      <feComposite in2="hardAlpha" k2="-1" k3="1" operator="arithmetic"/>
      <feColorMatrix values="0 0 0 0 0.890511 0 0 0 0 0.890511 0 0 0 0 0.890511 0 0 0 1 0"/>
      <feBlend in2="shape" result="effect1_innerShadow_126_2899"/>
    </filter>
    <filter id="d" width="8.954" height="41.598" x="87.061" y="78.317" color-interpolation-filters="sRGB" filterUnits="userSpaceOnUse">
      <feFlood flood-opacity="0" result="BackgroundImageFix"/>
      <feBlend in="SourceGraphic" in2="BackgroundImageFix" result="shape"/>
      <feColorMatrix in="SourceAlpha" result="hardAlpha" values="0 0 0 0 0 0 0 0 0 0 0 0 0 0 0 0 0 0 127 0"/>
      <feOffset dy="16.718"/>
      <feComposite in2="hardAlpha" k2="-1" k3="1" operator="arithmetic"/>
      <feColorMatrix values="0 0 0 0 0.890511 0 0 0 0 0.890511 0 0 0 0 0.890511 0 0 0 1 0"/>
      <feBlend in2="shape" result="effect1_innerShadow_126_2899"/>
    </filter>
    <filter id="e" width="34.983" height="29.74" x="35.761" y="21.587" color-interpolation-filters="sRGB" filterUnits="userSpaceOnUse">
      <feFlood flood-opacity="0" result="BackgroundImageFix"/>
      <feBlend in="SourceGraphic" in2="BackgroundImageFix" result="shape"/>
      <feColorMatrix in="SourceAlpha" result="hardAlpha" values="0 0 0 0 0 0 0 0 0 0 0 0 0 0 0 0 0 0 127 0"/>
      <feOffset dx="2.866" dy="3.344"/>
      <feGaussianBlur stdDeviation=".143"/>
      <feComposite in2="hardAlpha" k2="-1" k3="1" operator="arithmetic"/>
      <feColorMatrix values="0 0 0 0 1 0 0 0 0 1 0 0 0 0 1 0 0 0 1 0"/>
      <feBlend in2="shape" result="effect1_innerShadow_126_2899"/>
    </filter>
    <filter id="f" width="26.797" height="36.083" x="62.808" y="4.809" color-interpolation-filters="sRGB" filterUnits="userSpaceOnUse">
      <feFlood flood-opacity="0" result="BackgroundImageFix"/>
      <feBlend in="SourceGraphic" in2="BackgroundImageFix" result="shape"/>
      <feColorMatrix in="SourceAlpha" result="hardAlpha" values="0 0 0 0 0 0 0 0 0 0 0 0 0 0 0 0 0 0 127 0"/>
      <feOffset dx="-.478" dy="4.777"/>
      <feGaussianBlur stdDeviation=".239"/>
      <feComposite in2="hardAlpha" k2="-1" k3="1" operator="arithmetic"/>
      <feColorMatrix values="0 0 0 0 1 0 0 0 0 1 0 0 0 0 1 0 0 0 1 0"/>
      <feBlend in2="shape" result="effect1_innerShadow_126_2899"/>
    </filter>
  </defs>
  <path fill="#F5F5F5" stroke="#000" stroke-miterlimit="10" stroke-width=".216" d="m125.061 72.913-.007.003-.006.005-2.089 1.434-.024.007-1.658-1.189a.21.21 0 0 0-.167-.056.24.24 0 0 0-.145.072.24.24 0 0 0-.071.145.21.21 0 0 0 .06.173l1.464 1.61a.1.1 0 0 1 .009.041v.005l-.003.003-1.262 1.585a.22.22 0 0 0-.058.17.25.25 0 0 0 .072.144.24.24 0 0 0 .144.072.21.21 0 0 0 .172-.059l1.526-1.29 1.913 1.643a.17.17 0 0 0 .131.05.17.17 0 0 0 .117-.061.21.21 0 0 0 .027-.223l-.004-.007-.005-.007-1.399-1.967 1.503-2.037.006-.007.004-.009a.185.185 0 0 0-.25-.25Z"/>
  <path fill="#3EFFBB" stroke="#17191A" stroke-miterlimit="10" stroke-width=".383" d="M11 38.854v22.298l54.232 28V66.796z"/>
  <path fill="#4FFFC2" stroke="#17191A" stroke-miterlimit="10" stroke-width=".383" d="M14.35 66.79v37.22l50.842 27.719V93.335z"/>
  <path fill="#17191A" stroke="#17191A" stroke-miterlimit="10" stroke-width=".383" d="M14.35 63.532v4.135L65.191 93.32v-4.192z"/>
  <path fill="#1AD584" stroke="#17191A" stroke-miterlimit="10" stroke-width=".383" d="M116.062 66.79v37.22l-50.843 27.719V93.335z"/>
  <path fill="#17191A" stroke="#17191A" stroke-miterlimit="10" stroke-width=".383" d="M116.062 63.532v4.135L65.219 93.32v-4.192z"/>
  <path fill="#1AD584" stroke="#17191A" stroke-miterlimit="10" stroke-width=".383" d="M119.396 38.854v22.298l-54.177 28V66.796z"/>
  <g filter="url(#a)">
    <path fill="#6CFFB6" d="m11 38.85 54.232-27.552L119.41 38.85 65.232 66.793z"/>
  </g>
  <path stroke="#17191A" stroke-miterlimit="10" stroke-width=".383" d="m11 38.85 54.232-27.552L119.41 38.85 65.232 66.793z"/>
  <path fill="#10F48A" d="m75.998 60.818-55.41-26.75 31.288-15.763 52.305 27.705z"/>
  <path fill="#18B95B" d="M76.237 83.03V61.772l28.421-14.569v20.779z"/>
  <path fill="#000" fill-opacity=".2" d="m37.432 52.162-.602 22.532 8.598 4.218V56.38z"/>
  <g filter="url(#b)">
    <path fill="#fff" d="m34.078 50.962-.612 21.795 8.724 4.08V55.041z"/>
  </g>
  <path stroke="#17191A" stroke-miterlimit="10" stroke-width=".383" d="m34.078 50.962-.612 21.795 8.724 4.08V55.041z"/>
  <path fill="#000" fill-opacity=".2" d="m37.918 79.867-.61 36.214 8.723 5.03V83.947z"/>
  <g filter="url(#c)">
    <path fill="#fff" d="m35.373 78.626-.612 36.214 8.724 5.03V82.705z"/>
  </g>
  <path stroke="#17191A" stroke-miterlimit="10" stroke-width=".383" d="m35.373 78.626-.612 36.214 8.724 5.03V82.705z"/>
  <path fill="#D8D8D8" stroke="#17191A" stroke-miterlimit="10" stroke-width=".383" d="m96.721 50.745.556 22.019-8.724 4.08-.111-21.964z"/>
  <path fill="#18B95B" d="M76.954 124.586v-36.78l28.421-14.569v36.303z"/>
  <g filter="url(#d)">
    <path fill="#fff" d="m95.365 78.626.457 35.69-8.36 5.255-.21-36.866z"/>
  </g>
  <path stroke="#17191A" stroke-miterlimit="10" stroke-width=".383" d="m95.365 78.626.457 35.69-8.36 5.255-.21-36.866z"/>
  <path fill="#000" fill-opacity=".2" d="m36.352 51.696 52.732-28.614 8.835 4.47-53.843 28.223z"/>
  <path fill="#fff" stroke="#17191A" stroke-miterlimit="10" stroke-width=".383" d="m34.543 51.179 52.732-28.614 8.835 4.47-53.843 28.223z"/>
  <path fill="#fff" stroke="#17191A" stroke-miterlimit="10" stroke-width=".383" d="M96.606 50.572 43.652 22.294l-8.89 4.47 53.731 28.111z"/>
  <path fill="#282828" stroke="#000" stroke-miterlimit="10" stroke-width=".383" d="M82.586 5.652s7.001 2.124 11.335 7.21c3.946 4.582-.555 14.697-4.778 17.66-5.001 3.52-11.225 5.867-16.67 8.662-7.557 3.912-15.003 7.935-22.56 11.847-.166.112-.555-.279-.722-.223 0 0-2.612-2.291-4.056-6.371l9.78-3.912c1.722-.95 3.444-2.012 5.222-2.962.723-.391 1.112-.95.945-1.788-.222-1.23-1-2.292-1.723-3.298-.778-1.117-4.111-1.591-5.334-2.765-.606-.976 4.835.799 4.777 1.194l-2.627-5.732 4.685 2.832s7.334 1.9 11.057 1.51c1.39-.112 2.509-.662 3.842-.941 4.057-.95 7.494-4.872 9.05-8.952 1.944-4.974-.5-9.277-2.223-13.971Z"/>
  <g filter="url(#e)">
    <path fill="#F2F2F2" d="M63.43 29.78s-11.057-8.328-16.947-7.992c-5.946.39-12.447 11.903-10.002 19.057S49.04 50.849 49.04 50.849c-3.112-2.18-4.779-6.54-5-8.942-.39-4.527 1.866-11.515 5.21-12.911 11.435-4.777 21.017 10.986 21.017 10.986z"/>
  </g>
  <path stroke="#17191A" stroke-linejoin="round" stroke-miterlimit="10" stroke-width=".383" d="M63.43 29.78s-11.057-8.328-16.947-7.992c-5.946.39-12.447 11.903-10.002 19.057S49.04 50.849 49.04 50.849c-3.112-2.18-4.779-6.54-5-8.942-.39-4.527 1.866-11.515 5.21-12.911 11.435-4.777 21.017 10.986 21.017 10.986z"/>
  <g filter="url(#f)">
    <path fill="#F2F2F2" d="M70.266 39.982s8.957-26.843 18.959-31.09c0 0-4.168-3.13-8.946-3.857-7.502-1.118-16.781 24.758-16.781 24.758z"/>
  </g>
  <path stroke="#17191A" stroke-miterlimit="10" stroke-width=".383" d="M70.266 39.982s8.957-26.843 18.959-31.09c0 0-4.168-3.13-8.946-3.857-7.502-1.118-16.781 24.758-16.781 24.758z"/>
  <path fill="#282828" d="M46.994 23.908c3.465 1.237 10.445 6.916 12.87 11.633-9.424 5.928-16.336 2.227-10.984-2.475 2.074-1.486-3.92-6.714-10.797-8.91.766-1.197 5.549-1.449 8.91-.248"/>
  
</svg>
