<svg xmlns="http://www.w3.org/2000/svg" width="21" height="24" fill="none" viewBox="0 0 21 24">
  <path fill="#DAE6EC" stroke="#fff" stroke-width=".5" d="M9.946.774 19.7 4.21c.03.01.051.039.051.071v8a9.04 9.04 0 0 1-4.477 7.803L9.92 23.21 4.71 20.116A9.11 9.11 0 0 1 .25 12.28V4.278c0-.032.02-.06.05-.072L9.895.774a.08.08 0 0 1 .051 0Z"/>
  <path stroke="#A3AEB8" stroke-width=".5" d="m10.23 14.401-.23-.533-.23.533-.346.806-.874.08-.578.054.436.383.66.58-.194.855-.127.566.499-.297.754-.447.754.447.5.297-.128-.566-.193-.856.659-.579.436-.383-.578-.053-.873-.081z"/>
  <path stroke="#919FA6" stroke-width=".5" d="m17.786 5.354-7.738-2.813a.33.33 0 0 0-.224 0L2.213 5.353A.33.33 0 0 0 2 5.66v6.573a7.86 7.86 0 0 0 3.753 6.703l4.136 2.537a.09.09 0 0 0 .094 0l4.248-2.563A7.8 7.8 0 0 0 18 12.232V5.66a.33.33 0 0 0-.215-.306Z"/>
  <path fill="#A3AEB8" d="M14 7.911v2.249q0 .766-.084 1.116a1.54 1.54 0 0 1-.348.654 1.5 1.5 0 0 1-.638.437 2.5 2.5 0 0 1-.836.133q-.608 0-1.011-.137a1.4 1.4 0 0 1-.642-.438 1.9 1.9 0 0 1-.34-.62q-.1-.33-.101-1.041V7.91q0-.929.16-1.39.164-.463.642-.742.482-.279 1.167-.279.558 0 .999.196.44.19.658.47t.294.63q.08.348.08 1.115m-1.696-.566q0-.537-.054-.67-.05-.138-.244-.138-.189 0-.252.146-.058.141-.058.662v3.29q0 .586.054.707.06.12.248.121.188 0 .248-.141.058-.142.058-.638zM10 5.5l-.976 7H6.817a.83.83 0 0 1-.82-.7l-.68-4.3a1.73 1.73 0 0 1 1.709-2q.351 2.892.501 4.89.15-2.019.315-3.589A1.45 1.45 0 0 1 9.282 5.5z"/>
</svg>
