<svg xmlns="http://www.w3.org/2000/svg" width="21" height="24" fill="none" viewBox="0 0 21 24">
  <path fill="#10F48A" stroke="#8CFFCA" stroke-width=".5" d="M9.946.774 19.7 4.21c.03.01.051.039.051.071v8a9.04 9.04 0 0 1-4.477 7.803L9.92 23.21 4.71 20.116A9.11 9.11 0 0 1 .25 12.28V4.278c0-.032.02-.06.05-.072L9.895.774a.08.08 0 0 1 .051 0Z"/>
  <path fill="#10854E" stroke="#10854E" stroke-width=".5" d="m7.73 14.401-.23-.533-.23.533-.346.806-.874.08-.578.054.436.383.66.58-.194.855-.127.566.499-.297.754-.447.754.447.5.297-.128-.566-.193-.856.659-.579.436-.383-.578-.053-.874-.081zM12.73 14.401l-.23-.533-.23.533-.346.806-.874.08-.578.054.436.383.66.58-.194.855-.127.566.499-.297.754-.447.754.447.5.297-.128-.566-.193-.856.659-.579.436-.383-.578-.053-.873-.081z"/>
  <path stroke="#10854E" stroke-width=".5" d="m17.786 5.354-7.738-2.813a.33.33 0 0 0-.224 0L2.213 5.353A.33.33 0 0 0 2 5.66v6.573a7.86 7.86 0 0 0 3.753 6.703l4.136 2.537a.09.09 0 0 0 .094 0l4.248-2.563A7.8 7.8 0 0 0 18 12.232V5.66a.33.33 0 0 0-.215-.306Z"/>
  <path fill="#10854E" d="M13.998 11.33v1.17h-3.946v-.98q1.752-2.74 2.081-3.39.333-.653.333-1.018 0-.28-.102-.416-.098-.14-.302-.14a.34.34 0 0 0-.306.153q-.098.153-.098.607c0 .36-.292.653-.653.653h-.953v-.25q0-.577.062-.908.062-.336.306-.658t.635-.488q.39-.165.936-.165 1.07 0 1.616.51.55.504.55 1.28 0 .59-.31 1.248-.307.657-1.816 2.791zM9.865 5.632l-.95 6.868H7.153c-.618 0-1.145-.45-1.241-1.062l-.606-3.86A1.686 1.686 0 0 1 6.97 5.633q.341 2.838.488 4.798.147-1.982.306-3.521a1.42 1.42 0 0 1 1.413-1.277z"/>
</svg>
