<svg xmlns="http://www.w3.org/2000/svg" width="110" height="110" fill="none" viewBox="0 0 110 110">
  <path fill="#10F48A" fill-rule="evenodd" d="M87.996 23.734C75.286 10.306 55.099 5.467 37.08 13.116S8.52 38.647 9.35 57.117l-5.903 2.506a3.323 3.323 0 0 0-1.76 4.357l9.83 23.158a3.323 3.323 0 0 0 4.358 1.76l5.901-2.504c12.71 13.428 32.897 18.266 50.916 10.618 18.019-7.649 28.561-25.531 27.731-44.002l5.902-2.505a3.323 3.323 0 0 0 1.76-4.357l-9.83-23.159a3.323 3.323 0 0 0-4.357-1.76zm-76.07 32.29-.705.3c-.499-17.449 9.564-34.228 26.601-41.46s36.098-2.815 48.302 9.664l-.704.3C73.407 12.704 54.77 8.444 38.1 15.519c-16.668 7.076-26.55 23.442-26.174 40.505m26.36-40.068c16.423-6.971 34.778-2.815 46.663 9.071l-7.705 3.27.678-1.968 2.414.042-1.928-1.453.786-2.282-1.978 1.384-1.928-1.453.706 2.31-1.978 1.384 2.414.042.634 2.071-4.302 1.827c-8.394-6.023-19.634-7.653-29.84-3.321-10.204 4.332-16.84 13.55-18.338 23.77l-4.407 1.871-1.026-1.85 1.647-1.766-2.37.46-1.17-2.111-.295 2.396-2.37.46 2.188 1.02-.294 2.397 1.647-1.766 1.826.852-7.564 3.211c-.295-16.806 9.467-32.897 25.89-39.868m5.379 12.672c9.186-3.9 19.268-2.649 27.024 2.452l-1.058.45c-7.425-4.644-16.922-5.71-25.595-2.028s-14.504 11.254-16.322 19.82l-1.058.45c1.719-9.124 7.822-17.245 17.009-21.144m.556 1.31c8.415-3.571 17.619-2.596 24.875 1.819L28.25 49.095c1.864-8.286 7.557-15.584 15.971-19.156m27.73 65.326c-17.038 7.232-36.099 2.814-48.303-9.665l.705-.299c12.012 12.124 30.65 16.384 47.319 9.309s26.55-23.442 26.175-40.505l.705-.3c.498 17.448-9.565 34.228-26.602 41.46m-.465-1.092c-16.423 6.971-34.778 2.815-46.663-9.072l5.962-2.53.5 1.637-1.977 1.384 2.414.042.706 2.31.786-2.284 2.413.042L33.7 84.25l.786-2.283-1.977 1.385-1.284-.968 5.787-2.456c8.393 6.023 19.633 7.652 29.838 3.32 10.205-4.331 16.841-13.549 18.34-23.77l5.713-2.425-.203 1.651-2.37.461 2.188 1.02-.294 2.397 1.647-1.766 2.188 1.02-1.17-2.111 1.646-1.766-2.37.46-.854-1.54 6.066-2.574c.295 16.806-9.467 32.897-25.89 39.868M66.107 81.5c-9.186 3.9-19.267 2.648-27.024-2.453l1.058-.449c7.425 4.643 16.923 5.71 25.596 2.028 8.672-3.681 14.503-11.254 16.321-19.82l1.058-.45C81.397 69.48 75.294 77.6 66.108 81.5m-.556-1.311c-8.415 3.572-17.619 2.597-24.874-1.818l40.845-17.338c-1.864 8.286-7.556 15.584-15.97 19.156M94.64 22.977 4.19 61.37a1.424 1.424 0 0 0-.755 1.867l9.83 23.159a1.424 1.424 0 0 0 1.868.754l90.45-38.394a1.423 1.423 0 0 0 .754-1.867l-9.83-23.159a1.424 1.424 0 0 0-1.867-.754m-55.612-5.273 1.584 1.822 2.222-.943-1.244 2.069 1.584 1.822-2.352-.543L39.579 24l-.21-2.406-2.353-.543 2.222-.943zm29.027 68.384 1.584 1.822 2.222-.943-1.243 2.069 1.584 1.822-2.353-.543-1.243 2.07-.21-2.406-2.353-.543 2.222-.943zm-8.284-71.3.461 2.37 2.396.295-2.111 1.17.46 2.37-1.765-1.647-2.112 1.17 1.02-2.187-1.765-1.647 2.396.295zm-9.053 73.736.46 2.37 2.397.294-2.112 1.17.46 2.37-1.765-1.646-2.111 1.17 1.02-2.187-1.766-1.647 2.397.294zM24.804 31.386l-2.283-.785 1.385 1.977-1.453 1.928 2.308-.706 1.385 1.978.042-2.414 2.309-.706-2.283-.786.043-2.414zm59.33 44.71-2.283-.787 1.385 1.978-1.453 1.928 2.309-.706 1.385 1.978.042-2.414 2.308-.706-2.282-.786.042-2.414zm-2.704-41.21-3 1.274 6.544 15.415 5.056-2.146q1.437-.611 2.087-1.066.645-.465.965-1.062.316-.606.211-1.381-.1-.79-.98-2.866l-2.291-5.398q-.93-2.19-1.379-2.876a3 3 0 0 0-1.244-1.078q-.792-.384-1.933-.214-1.132.165-4.036 1.399m6.433 12.35-4.304-10.14q.657-.279.955-.237a.67.67 0 0 1 .487.299q.192.267.636 1.314l2.542 5.989q.655 1.542.605 1.98-.056.427-.921.795m-20.664-6.308 6.684-2.837 1.31 3.084-2.676 1.136 1.24 2.923 2.504-1.063 1.245 2.933-2.504 1.063 1.439 3.389 2.942-1.249 1.31 3.085-6.95 2.95zm-6.462 8.248 3.723-1.58-.259-.61q-.78-1.837-1.465-2.445-.68-.621-1.998-.657-1.31-.041-2.87.623-1.43.606-2.24 1.5-.816.886-.925 1.899-.1 1.009.652 2.78.521 1.228 1.17 1.885.66.653 1.336.894.675.242 2.59.597 1.91.346 2.47.604.55.261 1.127 1.622.262.62.196 1.018-.057.396-.457.565-.4.17-.667-.009-.257-.183-.625-1.05l-.796-1.875-3.723 1.58.429 1.01q.735 1.733 1.488 2.525.752.794 2.144.922 1.4.125 3.01-.559 1.466-.622 2.348-1.615.879-1.002.928-1.944.06-.946-.64-2.594-.962-2.265-2.09-2.99-1.127-.723-4.478-1.178-1.167-.156-1.533-.461-.375-.302-.702-1.073-.255-.6-.2-.972a.67.67 0 0 1 .428-.53q.333-.14.569.018t.575.958zm-9.49 4.029-3.722 1.58-.485-1.143q-.34-.8-.575-.958-.236-.158-.57-.017a.67.67 0 0 0-.426.53q-.056.372.199.971.327.772.702 1.073.366.306 1.533.462 3.35.454 4.478 1.178 1.127.723 2.09 2.99.699 1.647.64 2.593-.05.943-.928 1.945-.882.992-2.348 1.614-1.61.683-3.01.56-1.392-.13-2.145-.922-.751-.794-1.488-2.526l-.428-1.01 3.723-1.58.796 1.876q.367.866.625 1.05.267.179.667.008t.457-.564q.066-.4-.196-1.018-.578-1.362-1.127-1.623-.56-.258-2.47-.604-1.915-.355-2.59-.597-.676-.24-1.335-.894-.65-.657-1.171-1.885-.753-1.77-.652-2.78.11-1.013.925-1.898.81-.895 2.239-1.501 1.561-.663 2.87-.623 1.32.036 1.999.658.685.607 1.465 2.445zm-7.735 15.97-8.838-14.442-5.798 2.462 4.506 16.28 4.15-1.763-.937-2.871 1.438-.61 1.375 2.685zM33.405 59.34a197 197 0 0 0 3.353 6.206l-1.37.582q-.718-2.112-1.983-6.788m-18.065 3.6 4.037-1.713q1.638-.696 2.623-.81.994-.12 1.638.18.654.297 1.101.927.453.617 1.067 2.064l.57 1.342q.626 1.476.609 2.281t-.683 1.515q-.656.705-1.97 1.263l-1.076.457 2.636 6.208-4.009 1.701zm5.128.936 1.665 3.923q.176-.062.3-.116.551-.234.648-.59.102-.368-.262-1.226l-.538-1.266q-.334-.79-.684-.923-.348-.133-1.13.198" clip-rule="evenodd"/>
</svg>
