<svg xmlns="http://www.w3.org/2000/svg" fill="none" viewBox="0 0 56 56">
  <defs>
    <linearGradient id="b" x1="27.467" x2="1.309" y1="32.534" y2="21.736" gradientUnits="userSpaceOnUse">
      <stop stop-color="#E4E4E4"/>
      <stop offset=".458" stop-color="#fff"/>
      <stop offset="1" stop-color="#DADADA"/>
    </linearGradient>
    <linearGradient id="d" x1="28.533" x2="54.691" y1="32.534" y2="21.736" gradientUnits="userSpaceOnUse">
      <stop stop-color="#E4E4E4"/>
      <stop offset=".458" stop-color="#fff"/>
      <stop offset="1" stop-color="#DADADA"/>
    </linearGradient>
    <linearGradient id="g" x1="27.867" x2="27.867" y1="8" y2="47.2" gradientUnits="userSpaceOnUse">
      <stop stop-color="#fff"/>
      <stop offset=".489" stop-color="#fff" stop-opacity=".22"/>
      <stop offset="1" stop-color="#fff"/>
    </linearGradient>
    <linearGradient id="m" x1="28" x2="28" y1="17.334" y2="34.8" gradientUnits="userSpaceOnUse">
      <stop stop-color="#E9E9E9"/>
      <stop offset=".504" stop-color="#DCDCDC"/>
      <stop offset="1" stop-color="#CDCDCD"/>
    </linearGradient>
    <linearGradient id="n" x1="28.133" x2="28.133" y1="17.555" y2="38.392" gradientUnits="userSpaceOnUse">
      <stop stop-color="#727272"/>
      <stop offset=".495" stop-color="#9A9A9A"/>
      <stop offset="1" stop-color="#EBEBEB"/>
    </linearGradient>
    <linearGradient id="o" x1="31.85" x2="19.499" y1="26.441" y2="38.792" gradientUnits="userSpaceOnUse">
      <stop stop-color="#D6D6D6"/>
      <stop offset=".504" stop-color="#D3D3D3"/>
      <stop offset="1" stop-color="silver"/>
    </linearGradient>
    <linearGradient id="p" x1="31.85" x2="18.839" y1="26.441" y2="39.452" gradientUnits="userSpaceOnUse">
      <stop stop-color="#fff"/>
      <stop offset=".447" stop-color="#fff" stop-opacity=".19"/>
      <stop offset="1" stop-color="#fff"/>
    </linearGradient>
    <radialGradient id="e" cx="0" cy="0" r="1" gradientTransform="rotate(-125.322 21.068 6.597)scale(24.6757)" gradientUnits="userSpaceOnUse">
      <stop stop-color="#E4E4E4"/>
      <stop offset=".458" stop-color="#fff"/>
      <stop offset="1" stop-color="#C2C2C2"/>
    </radialGradient>
    <radialGradient id="f" cx="0" cy="0" r="1" gradientTransform="rotate(90 .133 27.733)scale(19.6)" gradientUnits="userSpaceOnUse">
      <stop stop-color="#E4E4E4"/>
      <stop offset="1" stop-color="#969696"/>
    </radialGradient>
    <radialGradient id="h" cx="0" cy="0" r="1" gradientTransform="rotate(-135 19.65 8.03)scale(23.9473)" gradientUnits="userSpaceOnUse">
      <stop stop-color="#E4E4E4"/>
      <stop offset="1" stop-color="#BEBEBE"/>
    </radialGradient>
    <radialGradient id="j" cx="0" cy="0" r="1" gradientTransform="matrix(0 12 -14.2667 0 27.867 30.668)" gradientUnits="userSpaceOnUse">
      <stop stop-color="#fff"/>
      <stop offset="1" stop-color="#fff" stop-opacity="0"/>
    </radialGradient>
    <radialGradient id="l" cx="0" cy="0" r="1" gradientTransform="matrix(0 11.0667 -19.4667 0 28 27.602)" gradientUnits="userSpaceOnUse">
      <stop stop-color="#fff"/>
      <stop offset="1" stop-color="#fff" stop-opacity="0"/>
    </radialGradient>
    <filter id="a" width="27.467" height="10.722" x="0" y="22.88" color-interpolation-filters="sRGB" filterUnits="userSpaceOnUse">
      <feFlood flood-opacity="0" result="BackgroundImageFix"/>
      <feBlend in="SourceGraphic" in2="BackgroundImageFix" result="shape"/>
      <feColorMatrix in="SourceAlpha" result="hardAlpha" values="0 0 0 0 0 0 0 0 0 0 0 0 0 0 0 0 0 0 127 0"/>
      <feOffset dy="1.067"/>
      <feGaussianBlur stdDeviation=".533"/>
      <feComposite in2="hardAlpha" k2="-1" k3="1" operator="arithmetic"/>
      <feColorMatrix values="0 0 0 0 1 0 0 0 0 1 0 0 0 0 1 0 0 0 0.25 0"/>
      <feBlend in2="shape" result="effect1_innerShadow_1642_17046"/>
      <feColorMatrix in="SourceAlpha" result="hardAlpha" values="0 0 0 0 0 0 0 0 0 0 0 0 0 0 0 0 0 0 127 0"/>
      <feOffset dy="-1.333"/>
      <feGaussianBlur stdDeviation=".027"/>
      <feComposite in2="hardAlpha" k2="-1" k3="1" operator="arithmetic"/>
      <feColorMatrix values="0 0 0 0 0 0 0 0 0 0 0 0 0 0 0 0 0 0 0.25 0"/>
      <feBlend in2="effect1_innerShadow_1642_17046" result="effect2_innerShadow_1642_17046"/>
    </filter>
    <filter id="c" width="27.467" height="10.722" x="28.533" y="22.88" color-interpolation-filters="sRGB" filterUnits="userSpaceOnUse">
      <feFlood flood-opacity="0" result="BackgroundImageFix"/>
      <feBlend in="SourceGraphic" in2="BackgroundImageFix" result="shape"/>
      <feColorMatrix in="SourceAlpha" result="hardAlpha" values="0 0 0 0 0 0 0 0 0 0 0 0 0 0 0 0 0 0 127 0"/>
      <feOffset dy="1.067"/>
      <feGaussianBlur stdDeviation=".533"/>
      <feComposite in2="hardAlpha" k2="-1" k3="1" operator="arithmetic"/>
      <feColorMatrix values="0 0 0 0 1 0 0 0 0 1 0 0 0 0 1 0 0 0 0.25 0"/>
      <feBlend in2="shape" result="effect1_innerShadow_1642_17046"/>
      <feColorMatrix in="SourceAlpha" result="hardAlpha" values="0 0 0 0 0 0 0 0 0 0 0 0 0 0 0 0 0 0 127 0"/>
      <feOffset dy="-1.333"/>
      <feGaussianBlur stdDeviation=".027"/>
      <feComposite in2="hardAlpha" k2="-1" k3="1" operator="arithmetic"/>
      <feColorMatrix values="0 0 0 0 0 0 0 0 0 0 0 0 0 0 0 0 0 0 0.25 0"/>
      <feBlend in2="effect1_innerShadow_1642_17046" result="effect2_innerShadow_1642_17046"/>
    </filter>
    <filter id="i" width="31.073" height="26.481" x="12.335" y="17.254" color-interpolation-filters="sRGB" filterUnits="userSpaceOnUse">
      <feFlood flood-opacity="0" result="BackgroundImageFix"/>
      <feBlend in="SourceGraphic" in2="BackgroundImageFix" result="shape"/>
      <feGaussianBlur result="effect1_foregroundBlur_1642_17046" stdDeviation=".533"/>
    </filter>
    <filter id="k" width="41.462" height="24.962" x="7.269" y="15.121" color-interpolation-filters="sRGB" filterUnits="userSpaceOnUse">
      <feFlood flood-opacity="0" result="BackgroundImageFix"/>
      <feBlend in="SourceGraphic" in2="BackgroundImageFix" result="shape"/>
      <feGaussianBlur result="effect1_foregroundBlur_1642_17046" stdDeviation=".533"/>
    </filter>
  </defs>
  <g filter="url(#a)">
    <path fill="url(#b)" d="M0 23.174a.24.24 0 0 1 .24-.24H23.2a4.267 4.267 0 0 1 4.267 4.266v1.067a4.267 4.267 0 0 1-4.267 4.267H9.36A9.36 9.36 0 0 1 0 23.174"/>
  </g>
  <g filter="url(#c)">
    <path fill="url(#d)" d="M56 23.174a.24.24 0 0 0-.24-.24H32.8a4.267 4.267 0 0 0-4.267 4.266v1.067a4.267 4.267 0 0 0 4.267 4.267h13.84a9.36 9.36 0 0 0 9.36-9.36"/>
  </g>
  <path fill="url(#e)" stroke="#F2F2F2" stroke-width=".8" d="m29.133 4.805-.2.346.2-.346a2.53 2.53 0 0 0-2.533 0L8.757 15.106A2.53 2.53 0 0 0 7.49 17.3v20.604c0 .905.483 1.74 1.267 2.193L26.6 50.4c.784.453 1.75.453 2.533 0l17.843-10.302a2.53 2.53 0 0 0 1.267-2.193V17.3c0-.905-.483-1.741-1.267-2.194z"/>
  <path fill="url(#f)" d="M26.8 8.616a2.13 2.13 0 0 1 2.133 0l14.841 8.568a2.13 2.13 0 0 1 1.067 1.848v17.136c0 .763-.407 1.467-1.067 1.848l-14.84 8.568a2.13 2.13 0 0 1-2.134 0l-14.84-8.568a2.13 2.13 0 0 1-1.068-1.848V19.032c0-.762.407-1.467 1.067-1.848z"/>
  <path stroke="url(#g)" stroke-opacity=".47" stroke-width=".267" d="M26.867 8.731a2 2 0 0 1 2 0l14.84 8.569a2 2 0 0 1 1 1.732v17.136a2 2 0 0 1-1 1.732l-14.84 8.569a2 2 0 0 1-2 0L12.026 37.9a2 2 0 0 1-1-1.732V19.032a2 2 0 0 1 1-1.732z"/>
  <path fill="url(#h)" d="M26.8 11.284a2.13 2.13 0 0 1 2.133 0l12.532 7.235a2.13 2.13 0 0 1 1.066 1.847v14.47c0 .763-.406 1.467-1.066 1.848l-12.532 7.235a2.13 2.13 0 0 1-2.133 0l-12.531-7.235a2.13 2.13 0 0 1-1.067-1.848v-14.47c0-.762.407-1.466 1.067-1.847z"/>
  <g filter="url(#i)">
    <path stroke="url(#j)" stroke-width=".8" d="m13.6 18.668 14.667 8.4m0 0 13.866-8.4m-13.866 8.4v15.6"/>
  </g>
  <g filter="url(#k)">
    <path stroke="url(#l)" stroke-width=".8" d="M8.533 16.535 28 27.602m19.467 11.067L28 27.602m0 0 19.467-11.067M28 27.602 8.533 38.669"/>
  </g>
  <path fill="url(#m)" fill-rule="evenodd" d="M19.31 26.157a.533.533 0 0 0 0 .754l1.063 1.062-1.062 1.062a.533.533 0 0 0 0 .755l8.445 8.445a.533.533 0 0 0 .755 0l8.445-8.445a.533.533 0 0 0 0-.755l-1.062-1.062 1.062-1.062a.534.534 0 0 0 0-.754L28.51 17.71a.533.533 0 0 0-.754 0z" clip-rule="evenodd"/>
  <path fill="url(#n)" d="m19.31 26.91-.377.378zm0-.753.378.377zm1.063 1.816.377.377.377-.377-.377-.377zm-1.062 1.062.377.377zm0 .755.377-.378zm8.445 8.445-.377.377zm.755 0 .377.377zm8.445-8.445.377.377zm0-.755-.377.377zm-1.062-1.062-.377-.377-.377.377.377.377zm1.062-1.062.377.377zm0-.754-.377.377zM28.51 17.71l.378-.377zm-.754 0 .377.377zm-8.068 8.823-.755-.755a1.067 1.067 0 0 0 0 1.509zm1.062 1.062-1.062-1.062-.755.754 1.063 1.062zm-1.062 1.816 1.062-1.062-.754-.754-1.063 1.062zm0 0-.755-.754a1.067 1.067 0 0 0 0 1.509zm8.445 8.446-8.445-8.446-.755.755 8.446 8.445zm0 0-.754.754a1.067 1.067 0 0 0 1.509 0zm8.446-8.446-8.446 8.446.755.754 8.445-8.445zm0 0 .754.755a1.067 1.067 0 0 0 0-1.509zm-1.062-1.062 1.062 1.062.754-.754-1.062-1.062zm1.062-1.816-1.062 1.062.754.754 1.062-1.062zm0 0 .754.754a1.067 1.067 0 0 0 0-1.509zm-8.446-8.446 8.446 8.446.754-.755-8.445-8.445zm0 0 .755-.754a1.067 1.067 0 0 0-1.509 0zm-8.445 8.446 8.445-8.446-.754-.754-8.446 8.446z"/>
  <rect width="13.011" height="13.011" x="18.933" y="29.41" fill="#A0A0A0" rx=".533" transform="rotate(-45 18.933 29.41)"/>
  <rect width="12.744" height="12.744" x="19.122" y="26.535" fill="url(#o)" stroke="url(#p)" stroke-width=".267" rx=".4" transform="rotate(-45 19.122 26.535)"/>
  
</svg>
