<svg xmlns="http://www.w3.org/2000/svg" width="200" height="154" fill="none" viewBox="0 0 200 154">
  <path fill="#000" stroke="#000" stroke-miterlimit="10" stroke-width=".299" d="M175.684 43.988c25.66 14.816 25.786 38.841.273 53.667-22.349 12.992-56.946 14.606-82.439 4.851l-16.324 9.482c-5.103 2.966-13.401 2.966-18.535 0-5.134-2.965-5.155-7.774-.052-10.729L83.24 86.947c5.102-2.966 13.4-2.966 18.535 0 15.402 8.895 40.286 8.885 55.594-.01 15.298-8.896 15.235-23.303-.167-32.199-15.392-8.885-40.277-8.874-55.574.01-5.103 2.966-13.401 2.966-18.535 0-5.134-2.965-5.155-7.763-.052-10.728 25.513-14.826 66.983-14.837 92.633-.021zM43.28 120.925c8.56 4.935 8.592 12.951.084 17.886-8.498 4.935-22.328 4.945-30.878 0s-8.592-12.94-.084-17.886 22.328-4.945 30.878-.01z"/>
  <path fill="#4C5154" stroke="#000" stroke-miterlimit="10" stroke-width=".299" d="m168.801 49.36-.053 17.08c.021-5.858-3.845-11.736-11.599-16.2-15.391-8.884-40.276-8.874-55.573.011-5.103 2.966-13.401 2.966-18.535 0-2.578-1.487-3.867-3.447-3.867-5.396l.053-17.078c0 1.949 1.288 3.908 3.866 5.396 5.134 2.965 13.422 2.965 18.535 0 15.297-8.896 40.182-8.896 55.574-.01 7.743 4.473 11.609 10.34 11.599 16.198Z"/>
  <path fill="#8C9194" stroke="#000" stroke-miterlimit="10" stroke-width=".299" d="M175.957 76.078c-22.349 12.992-56.946 14.606-82.438 4.851l-16.325 9.482c-5.102 2.966-13.4 2.966-18.535 0-2.577-1.487-3.866-3.447-3.866-5.396l-.052 17.079c0 1.949 1.278 3.908 3.866 5.396 5.134 2.965 13.432 2.955 18.535 0l16.324-9.482c25.482 9.754 60.079 8.141 82.439-4.852 12.678-7.365 19.027-17.005 19.048-26.655l.053-17.078c-.032 9.65-6.371 19.29-19.049 26.655Z"/>
  <mask id="a" width="142" height="61" x="54" y="49" maskUnits="userSpaceOnUse" style="mask-type:alpha">
    <path fill="#fff" stroke="#000" stroke-miterlimit="10" stroke-width=".299" d="M175.957 76.077c-22.349 12.993-56.946 14.606-82.438 4.852L77.194 90.41c-5.102 2.965-13.4 2.965-18.535 0-2.577-1.488-3.866-3.447-3.866-5.396l-.052 17.079c0 1.948 1.278 3.908 3.866 5.396 5.134 2.965 13.432 2.954 18.535 0l16.324-9.483c25.482 9.755 60.079 8.141 82.439-4.851 12.678-7.366 19.027-17.005 19.048-26.655l.053-17.079c-.032 9.65-6.371 19.29-19.049 26.655Z"/>
  </mask>
  <g fill="#444" mask="url(#a)">
    <path d="M138.632 13.496h68.847v130.647h-68.847zM133.753 79.09h2.168v28.731h-2.168zM131.585 79.09h.271v28.731h-.271z"/>
  </g>
  <path stroke="#000" stroke-miterlimit="10" stroke-width=".299" d="M175.957 76.078c-22.349 12.992-56.946 14.606-82.438 4.851l-16.325 9.482c-5.102 2.966-13.4 2.966-18.535 0-2.577-1.487-3.866-3.447-3.866-5.396l-.052 17.079c0 1.949 1.278 3.908 3.866 5.396 5.134 2.965 13.432 2.955 18.535 0l16.324-9.482c25.482 9.754 60.079 8.141 82.439-4.852 12.678-7.365 19.027-17.005 19.048-26.655l.053-17.078c-.032 9.65-6.371 19.29-19.049 26.655Z"/>
  <path fill="#444" stroke="#000" stroke-linecap="round" stroke-linejoin="round" stroke-width=".299" d="M79.001 93.248v9.022c0 .242.124.443.3.562l.063.035a.65.65 0 0 0 .637-.015l8.005-4.627c.467-.27.753-.766.753-1.307v-9.022a.66.66 0 0 0-.283-.55l-.1-.06a.65.65 0 0 0-.617.027l-1.647.952-.34.198-6.019 3.48c-.466.27-.752.767-.752 1.305"/>
  <path fill="#000" stroke="#000" stroke-linecap="round" stroke-linejoin="round" stroke-width=".299" d="M174.953 81.828v6.533c0 .175.09.321.217.407l.045.025a.47.47 0 0 0 .461-.01l5.781-3.352a1.09 1.09 0 0 0 .543-.946v-6.533a.48.48 0 0 0-.204-.398l-.073-.043a.47.47 0 0 0-.445.02l-1.189.689-.245.143-4.348 2.52a1.09 1.09 0 0 0-.543.945M79.001 93.052v6.638l6.264-3.45c.485-.266.783-.759.783-1.295v-6.639l-6.264 3.45a1.48 1.48 0 0 0-.783 1.293z"/>
  <path fill="#10F48A" stroke="#000" stroke-miterlimit="10" stroke-width=".299" d="M175.683 22.422c25.66 14.816 25.786 38.841.272 53.667-22.349 12.992-56.946 14.606-82.438 4.851l-16.324 9.483c-5.103 2.965-13.401 2.965-18.535 0-5.135-2.966-5.156-7.775-.053-10.73l24.633-14.312c5.103-2.965 13.401-2.965 18.535 0 15.402 8.895 40.287 8.885 55.595-.01 15.297-8.896 15.234-23.303-.168-32.199-15.391-8.885-40.276-8.874-55.573.01-5.103 2.966-13.401 2.966-18.535 0-5.135-2.964-5.156-7.763-.053-10.728 25.513-14.826 66.984-14.837 92.633-.021z"/>
  <path fill="#8C9194" stroke="#000" stroke-miterlimit="10" stroke-width=".299" d="m49.724 108.359-.053 17.079c0 3.216-2.127 6.433-6.36 8.885-8.497 4.935-22.328 4.945-30.878 0-4.296-2.483-6.443-5.742-6.433-9l.052-17.079c0 3.258 2.138 6.517 6.434 9 8.56 4.935 22.38 4.935 30.877 0 4.233-2.462 6.35-5.668 6.36-8.885Z"/>
  <mask id="b" width="44" height="31" x="6" y="108" maskUnits="userSpaceOnUse" style="mask-type:alpha">
    <path fill="#fff" d="m49.724 108.359-.053 17.079c0 3.216-2.127 6.433-6.36 8.885-8.497 4.935-22.328 4.945-30.878 0-4.296-2.483-6.443-5.742-6.433-9l.052-17.079c0 3.258 2.138 6.517 6.434 9 8.56 4.935 22.38 4.935 30.877 0 4.233-2.462 6.35-5.668 6.36-8.885"/>
  </mask>
  <g mask="url(#b)">
    <path fill="#444" d="M27.501 141.432h1.626v-23.853h-1.626z"/>
    <path stroke="#444" stroke-miterlimit="10" stroke-width=".598" d="M24.249 118.121v23.311"/>
    <path fill="#444" d="M29.67 109.455h20.057v16.357c0 6.696-8.781 12.208-20.058 12.909v-29.273z"/>
  </g>
  <path stroke="#000" stroke-miterlimit="10" stroke-width=".299" d="m49.724 108.359-.053 17.079c0 3.216-2.127 6.433-6.36 8.885-8.497 4.935-22.328 4.945-30.878 0-4.296-2.483-6.443-5.742-6.433-9l.052-17.079c0 3.258 2.138 6.517 6.434 9 8.56 4.935 22.38 4.935 30.877 0 4.233-2.462 6.35-5.668 6.36-8.885Z"/>
  <path fill="#10F48A" stroke="#000" stroke-miterlimit="10" stroke-width=".299" d="M43.28 99.359c8.56 4.935 8.592 12.95.084 17.885-8.497 4.935-22.328 4.946-30.877 0-8.55-4.945-8.592-12.94-.084-17.885s22.328-4.946 30.877-.01z"/>
  <path fill="#444" stroke="#000" stroke-linecap="round" stroke-miterlimit="10" stroke-width=".299" d="M41.596 108.091c0 .528-.107 1.059-.324 1.578a4.4 4.4 0 0 1-.285.57c-.637 1.106-1.784 2.151-3.442 3.028-5.397 2.859-14.148 2.859-19.546 0-1.657-.877-2.807-1.922-3.442-3.028a4.4 4.4 0 0 1-.284-.57 4.1 4.1 0 0 1-.324-1.578c0-1.871 1.348-3.744 4.05-5.173 5.398-2.858 14.15-2.858 19.546 0 2.7 1.429 4.05 3.302 4.05 5.173Z"/>
  <path fill="#000" stroke="#000" stroke-linecap="round" stroke-linejoin="round" stroke-width=".299" d="M41.054 110.259c-.535.922-1.43 1.8-2.683 2.575a12 12 0 0 1-.777.442c-1.703.894-3.738 1.505-5.897 1.838q-.536.083-1.08.143-.018.002-.034.002-.73.083-1.47.117-.39.022-.779.028a23 23 0 0 1-1.124 0 24 24 0 0 1-2.249-.145q-.016 0-.03-.002l-.076-.009a24 24 0 0 1-2.046-.317c-1.772-.354-3.43-.904-4.859-1.655a11 11 0 0 1-.777-.442 9.6 9.6 0 0 1-1.243-.898c-.623-.532-1.103-1.096-1.44-1.677.643-1.102 1.796-2.141 3.46-3.014q.191-.1.385-.194c5.449-2.65 13.96-2.586 19.26.194 1.496.785 2.58 1.705 3.25 2.684q.113.165.209.33"/>
  <path fill="#000" d="M80.627 37.348v6.535l5.421 3.223v-6.535zM81.058 79.962c2.756 0 4.991-1.29 4.991-2.883 0-1.591-2.235-2.882-4.991-2.882-2.757 0-4.992 1.29-4.992 2.882s2.235 2.883 4.992 2.883"/>
  <path fill="#8C9194" d="M77.643 69.317v7.762c0 1.09 1.528 1.971 3.414 1.971s3.415-.881 3.415-1.971v-7.762h-6.833z"/>
  <path stroke="#444" stroke-linecap="round" stroke-linejoin="round" stroke-width=".299" d="M81.369 70.257v8.793"/>
  <path fill="#444" d="M77.643 69.294v7.785c0 .952 1.339 1.97 2.99 1.97v-9.755z"/>
  <path stroke="#000" stroke-linecap="round" stroke-linejoin="round" stroke-width=".299" d="M77.643 69.317v7.762c0 1.09 1.528 1.971 3.414 1.971s3.415-.881 3.415-1.971v-7.762h-6.833z"/>
  <path fill="#8C9194" stroke="#000" stroke-linecap="round" stroke-linejoin="round" stroke-width=".299" d="M81.057 71.288c1.886 0 3.415-.883 3.415-1.971 0-1.09-1.529-1.972-3.415-1.972-1.885 0-3.414.883-3.414 1.972s1.529 1.97 3.414 1.97"/>
  <path stroke="#000" stroke-linecap="round" stroke-linejoin="round" stroke-width=".299" d="m78.483 68.022 1.444.729"/>
  <path fill="#000" d="M68.904 86.98c2.757 0 4.991-1.29 4.991-2.882s-2.234-2.883-4.991-2.883-4.991 1.29-4.991 2.883 2.234 2.882 4.99 2.882"/>
  <path fill="#8C9194" d="M65.485 76.337v7.762c0 1.09 1.528 1.971 3.414 1.971s3.414-.881 3.414-1.97v-7.763h-6.832z"/>
  <path stroke="#444" stroke-linecap="round" stroke-linejoin="round" stroke-width=".299" d="M69.214 77.278v8.792"/>
  <path fill="#444" d="M65.485 76.314V84.1c0 .952 1.339 1.971 2.99 1.971v-9.756z"/>
  <path stroke="#000" stroke-linecap="round" stroke-linejoin="round" stroke-width=".299" d="M65.485 76.337v7.762c0 1.09 1.528 1.971 3.414 1.971s3.414-.881 3.414-1.97v-7.763h-6.832z"/>
  <path fill="#8C9194" stroke="#000" stroke-linecap="round" stroke-linejoin="round" stroke-width=".299" d="M68.903 78.308c1.886 0 3.414-.882 3.414-1.971s-1.528-1.971-3.414-1.971-3.414.882-3.414 1.971 1.528 1.971 3.414 1.971"/>
  <path stroke="#000" stroke-linecap="round" stroke-linejoin="round" stroke-width=".299" d="m66.33 75.042 1.442.729"/>
  <path fill="#8C9194" stroke="#000" stroke-linecap="round" stroke-linejoin="round" stroke-width=".299" d="M89.654 29.368c.97.561 2.56.561 3.526 0l13.282-7.67c.971-.562.971-1.477 0-2.038l-1.793-1.035c-.97-.562-2.559-.562-3.526 0l-13.282 7.67c-.97.561-.97 1.476 0 2.038z"/>
  <path fill="#000" stroke="#000" stroke-linecap="round" stroke-linejoin="round" stroke-width=".299" d="m107.156 19.202-1.375.064-1.112-.641c-.97-.562-2.559-.562-3.526 0l-6.55 3.782 5.319 3.073 6.55-3.783c.486-.28.727-.65.727-1.018z"/>
  <path fill="#8C9194" stroke="#000" stroke-linecap="round" stroke-linejoin="round" stroke-width=".299" d="m99.916 25.48 6.55-5.099c.927-.662.927-1.676 0-2.214l-1.793-1.035c-.971-.562-2.643-.51-3.526.177l-6.55 5.098z"/>
  <rect width="59.344" height="23.033" fill="#10F48A" rx="11.516" transform="matrix(-1 0 0 1 76.286 38.254)"/>
  <path fill="#10F48A" d="M69.5 72.052c-5.588-.862-11.575-11.007-12.974-14.508l-3.655 2.12c1.14 3.796 10.583 12.05 16.63 12.388"/>
  <mask id="c" fill="#fff">
    <path fill-rule="evenodd" d="M112.473 14c8.314 0 15.053 6.74 15.053 15.053s-6.739 15.052-15.053 15.052h-2.096c5.025 4.52 10.38 11.336 13.356 19.983-3.757-7.888-12.468-16.96-23.168-19.983H60.05c-8.314 0-15.053-6.74-15.053-15.052C44.997 20.739 51.737 14 60.05 14z" clip-rule="evenodd"/>
  </mask>
  <path fill="#4C5154" fill-rule="evenodd" d="M112.473 14c8.314 0 15.053 6.74 15.053 15.053s-6.739 15.052-15.053 15.052h-2.096c5.025 4.52 10.38 11.336 13.356 19.983-3.757-7.888-12.468-16.96-23.168-19.983H60.05c-8.314 0-15.053-6.74-15.053-15.052C44.997 20.739 51.737 14 60.05 14z" clip-rule="evenodd"/>
  <path fill="#000" d="m110.377 44.105-.201.223-.581-.523h.782zm13.356 19.983.283-.097-.554.226zm-23.168-19.983v-.3h.041l.04.011zm26.661-15.052c0-8.148-6.605-14.753-14.753-14.753v-.6c8.479 0 15.353 6.874 15.353 15.353zm-14.753 14.752c8.148 0 14.753-6.605 14.753-14.752h.6c0 8.479-6.874 15.352-15.353 15.352zm-2.096 0h2.096v.6h-2.096zm13.072 20.38c-2.956-8.589-8.277-15.364-13.273-19.857l.401-.446c5.056 4.547 10.444 11.404 13.439 20.109zm-22.803-20.369c10.799 3.051 19.571 12.193 23.358 20.143l-.542.258c-3.727-7.826-12.377-16.828-22.979-19.823zm-40.596-.01h40.515v.6H60.05zM45.297 29.052c0 8.147 6.605 14.752 14.753 14.752v.6c-8.48 0-15.353-6.873-15.353-15.352zM60.05 14.3c-8.148 0-14.753 6.605-14.753 14.753h-.6c0-8.48 6.874-15.353 15.353-15.353zm52.423 0H60.05v-.6h52.423z" mask="url(#c)"/>
  <path fill="#8C9194" d="M56.665 22.405h7.198v4.135h-7.198zM69.091 22.405h18.786v4.135H69.091zM62.129 31.308h18.786v4.135H62.129z"/>
  <path fill="#10F48A" d="M86.553 31.308h8.781v4.135h-8.781z"/>
  <path fill="#8C9194" d="M93.105 22.405h14.694v4.135H93.105zM113.027 22.405h3.932v4.135h-3.932z"/>
</svg>
