<svg width="200" height="154" viewBox="0 0 200 154" fill="none" xmlns="http://www.w3.org/2000/svg">
<path d="M175.684 43.9881C201.344 58.8036 201.47 82.829 175.957 97.6549C153.608 110.647 119.011 112.261 93.5183 102.506L77.194 111.988C72.0914 114.954 63.793 114.954 58.659 111.988C53.5249 109.023 53.5039 104.214 58.6066 101.259L83.2396 86.9467C88.3423 83.9815 96.6406 83.9815 101.775 86.9467C117.177 95.8423 142.061 95.8318 157.369 86.9362C172.667 78.0406 172.604 63.6338 157.202 54.7382C141.81 45.8532 116.925 45.8636 101.628 54.7487C96.5254 57.7139 88.227 57.7139 83.093 54.7487C77.9589 51.7835 77.9379 46.9848 83.0406 44.0196C108.554 29.1936 150.024 29.1831 175.674 43.9986L175.684 43.9881Z" fill="black" stroke="black" stroke-width="0.299091" stroke-miterlimit="10"/>
<path d="M43.28 120.925C51.8402 125.86 51.8717 133.876 43.3638 138.811C34.8664 143.746 21.0358 143.756 12.486 138.811C3.93619 133.865 3.89428 125.871 12.4022 120.925C20.9101 115.98 34.7302 115.98 43.28 120.915V120.925Z" fill="black" stroke="black" stroke-width="0.299091" stroke-miterlimit="10"/>
<path d="M168.801 49.3608L168.748 66.4394C168.769 60.5824 164.903 54.7044 157.149 50.2409C141.758 41.3558 116.873 41.3663 101.576 50.2514C96.473 53.2166 88.1747 53.2166 83.0406 50.2514C80.4631 48.7636 79.1743 46.8042 79.1743 44.8554L79.2267 27.7767C79.2267 29.7256 80.5155 31.6849 83.093 33.1727C88.2271 36.1379 96.5149 36.1379 101.628 33.1727C116.925 24.2772 141.81 24.2772 157.202 33.1623C164.945 37.6362 168.811 43.5037 168.801 49.3608Z" fill="#4C5154" stroke="black" stroke-width="0.299091" stroke-miterlimit="10"/>
<path d="M175.957 76.0779C153.608 89.0702 119.011 90.6838 93.5187 80.9291L77.1944 90.4114C72.0918 93.3766 63.7935 93.3766 58.6594 90.4114C56.0819 88.9235 54.7931 86.9642 54.7931 85.0153L54.7407 102.094C54.7407 104.043 56.019 106.002 58.607 107.49C63.7411 110.455 72.0394 110.445 77.142 107.49L93.4663 98.0077C118.948 107.762 153.545 106.149 175.905 93.1565C188.583 85.7907 194.932 76.1512 194.953 66.5013L195.006 49.4226C194.974 59.0726 188.635 68.7121 175.957 76.0779Z" fill="#8C9194" stroke="black" stroke-width="0.299091" stroke-miterlimit="10"/>
<mask id="mask0_158_2633" style="mask-type:alpha" maskUnits="userSpaceOnUse" x="54" y="49" width="142" height="61">
<path d="M175.957 76.0774C153.608 89.0697 119.011 90.6833 93.5187 80.9286L77.1944 90.4109C72.0918 93.3761 63.7935 93.3761 58.6594 90.4109C56.0819 88.923 54.7931 86.9637 54.7931 85.0149L54.7407 102.094C54.7407 104.042 56.019 106.002 58.607 107.49C63.7411 110.455 72.0394 110.444 77.142 107.49L93.4663 98.0072C118.948 107.762 153.545 106.148 175.905 93.156C188.583 85.7902 194.932 76.1507 194.953 66.5008L195.006 49.4221C194.974 59.0721 188.635 68.7116 175.957 76.0774Z" fill="white" stroke="black" stroke-width="0.299091" stroke-miterlimit="10"/>
</mask>
<g mask="url(#mask0_158_2633)">
<rect x="138.632" y="13.4956" width="68.847" height="130.647" fill="#444444"/>
<rect x="133.753" y="79.0898" width="2.16841" height="28.7314" fill="#444444"/>
<rect x="131.585" y="79.0898" width="0.271051" height="28.7314" fill="#444444"/>
</g>
<path d="M175.957 76.0779C153.608 89.0702 119.011 90.6838 93.5187 80.9291L77.1944 90.4114C72.0918 93.3766 63.7935 93.3766 58.6594 90.4114C56.0819 88.9235 54.7931 86.9642 54.7931 85.0153L54.7407 102.094C54.7407 104.043 56.019 106.002 58.607 107.49C63.7411 110.455 72.0394 110.445 77.142 107.49L93.4663 98.0077C118.948 107.762 153.545 106.149 175.905 93.1565C188.583 85.7907 194.932 76.1512 194.953 66.5013L195.006 49.4226C194.974 59.0726 188.635 68.7121 175.957 76.0779V76.0779Z" stroke="black" stroke-width="0.299091" stroke-miterlimit="10"/>
<path d="M79.001 93.2478V102.27C79.001 102.512 79.1248 102.713 79.3019 102.832L79.3639 102.867C79.5527 102.968 79.7917 102.974 80.0012 102.852L88.0064 98.2246C88.4726 97.9555 88.7588 97.4587 88.7588 96.9175V87.8956C88.7588 87.6591 88.6438 87.4609 88.4756 87.3456L88.3752 87.2865C88.1893 87.1978 87.9622 87.1948 87.7586 87.3131L86.1121 88.2653L85.7728 88.4634L79.7533 91.9438C79.2871 92.2129 79.001 92.7097 79.001 93.2478Z" fill="#444444" stroke="black" stroke-width="0.299091" stroke-linecap="round" stroke-linejoin="round"/>
<path d="M174.953 81.8277V88.3608C174.953 88.5364 175.043 88.682 175.17 88.7677L175.215 88.7934C175.352 88.8662 175.524 88.8705 175.676 88.7827L181.457 85.4315C181.794 85.2367 182 84.8769 182 84.4851V77.952C182 77.7807 181.917 77.6372 181.796 77.5537L181.723 77.5109C181.589 77.4466 181.425 77.4445 181.278 77.5301L180.089 78.2196L179.844 78.3631L175.496 80.8834C175.16 81.0783 174.953 81.438 174.953 81.8277Z" fill="black" stroke="black" stroke-width="0.299091" stroke-linecap="round" stroke-linejoin="round"/>
<path d="M79.001 93.0515V99.6903L85.2653 96.2405C85.7504 95.9737 86.0483 95.4813 86.0483 94.945V88.3062L79.784 91.756C79.2988 92.0227 79.001 92.5151 79.001 93.0486V93.0515Z" fill="black" stroke="black" stroke-width="0.299091" stroke-linecap="round" stroke-linejoin="round"/>
<path d="M175.683 22.4222C201.343 37.2377 201.469 61.263 175.955 76.089C153.606 89.0813 119.009 90.6949 93.5168 80.9402L77.1925 90.4225C72.0899 93.3877 63.7916 93.3877 58.6575 90.4225C53.5234 87.4573 53.5025 82.648 58.6051 79.6933L83.2382 65.3808C88.3408 62.4156 96.6392 62.4156 101.773 65.3808C117.175 74.2763 142.06 74.2659 157.368 65.3703C172.665 56.4747 172.602 42.0679 157.2 33.1723C141.809 24.2872 116.924 24.2977 101.627 33.1828C96.5239 36.148 88.2256 36.148 83.0915 33.1828C77.9574 30.2176 77.9365 25.4188 83.0391 22.4536C108.552 7.6277 150.023 7.61722 175.672 22.4327L175.683 22.4222Z" fill="#10F48A" stroke="black" stroke-width="0.299091" stroke-miterlimit="10"/>
<path d="M49.7235 108.359L49.6711 125.438C49.6711 128.654 47.5441 131.871 43.3111 134.323C34.8137 139.258 20.9831 139.268 12.4333 134.323C8.13749 131.84 5.98956 128.581 6.00004 125.323L6.05243 108.244C6.05243 111.502 8.18988 114.761 12.4857 117.244C21.046 122.179 34.8661 122.179 43.3635 117.244C47.5965 114.782 49.713 111.576 49.7235 108.359Z" fill="#8C9194" stroke="black" stroke-width="0.299091" stroke-miterlimit="10"/>
<mask id="mask1_158_2633" style="mask-type:alpha" maskUnits="userSpaceOnUse" x="6" y="108" width="44" height="31">
<path d="M49.7235 108.359L49.6711 125.438C49.6711 128.654 47.5441 131.871 43.3111 134.323C34.8137 139.258 20.9831 139.268 12.4333 134.323C8.13749 131.84 5.98956 128.581 6.00004 125.323L6.05243 108.244C6.05243 111.502 8.18988 114.761 12.4857 117.244C21.046 122.179 34.8661 122.179 43.3635 117.244C47.5965 114.782 49.713 111.576 49.7235 108.359Z" fill="white"/>
</mask>
<g mask="url(#mask1_158_2633)">
<path d="M27.5011 141.432H29.1274L29.1274 117.579H27.5011L27.5011 141.432Z" fill="#444444"/>
<path d="M24.2485 118.121V141.432" stroke="#444444" stroke-width="0.598182" stroke-miterlimit="10"/>
<path d="M29.6694 109.455H49.7272V125.812C49.7272 132.508 40.946 138.02 29.6694 138.721V109.448V109.455Z" fill="#444444"/>
</g>
<path d="M49.7235 108.359L49.6711 125.438C49.6711 128.654 47.5441 131.871 43.3111 134.323C34.8137 139.258 20.9831 139.268 12.4333 134.323C8.13749 131.84 5.98956 128.581 6.00004 125.323L6.05243 108.244C6.05243 111.502 8.18988 114.761 12.4857 117.244C21.046 122.179 34.8661 122.179 43.3635 117.244C47.5965 114.782 49.713 111.576 49.7235 108.359Z" stroke="black" stroke-width="0.299091" stroke-miterlimit="10"/>
<path d="M43.2804 99.3589C51.8407 104.294 51.8722 112.309 43.3643 117.244C34.8668 122.179 21.0363 122.19 12.4865 117.244C3.93668 112.299 3.89477 104.304 12.4027 99.3589C20.9106 94.4134 34.7306 94.4134 43.2804 99.3484V99.3589Z" fill="#10F48A" stroke="black" stroke-width="0.299091" stroke-miterlimit="10"/>
<path d="M41.5959 108.091C41.5959 108.619 41.4887 109.15 41.2719 109.669C41.1931 109.861 41.0989 110.051 40.9873 110.239C40.3501 111.345 39.2028 112.39 37.5453 113.267C32.1481 116.126 23.3966 116.126 17.9994 113.267C16.3419 112.39 15.1924 111.345 14.5574 110.239C14.4458 110.051 14.3516 109.861 14.2728 109.669C14.056 109.15 13.9487 108.619 13.9487 108.091C13.9487 106.22 15.2975 104.347 17.9994 102.918C23.3966 100.06 32.1481 100.06 37.5453 102.918C40.245 104.347 41.5959 106.22 41.5959 108.091Z" fill="#444444" stroke="black" stroke-width="0.299091" stroke-miterlimit="10" stroke-linecap="round"/>
<path d="M41.0537 110.259C40.519 111.181 39.6234 112.059 38.3713 112.834C38.127 112.986 37.8673 113.133 37.5945 113.276C35.8912 114.17 33.8557 114.781 31.697 115.114C31.3405 115.169 30.9796 115.217 30.6165 115.257C30.6055 115.259 30.5945 115.259 30.5835 115.259C30.0971 115.314 29.6064 115.354 29.1135 115.376C28.8538 115.391 28.5942 115.4 28.3345 115.404C27.9604 115.413 27.5863 115.413 27.21 115.404C26.4552 115.389 25.7026 115.343 24.961 115.259C24.95 115.259 24.9412 115.259 24.9302 115.257C24.906 115.255 24.8796 115.252 24.8554 115.248C24.1622 115.171 23.4778 115.065 22.8089 114.931C21.0374 114.577 19.3782 114.027 17.95 113.276C17.6771 113.133 17.4175 112.988 17.1732 112.834C16.7089 112.55 16.2952 112.249 15.9299 111.936C15.3071 111.404 14.8274 110.84 14.4907 110.259C15.1333 109.157 16.2864 108.118 17.95 107.245C18.0776 107.179 18.2053 107.113 18.3351 107.051C23.7837 104.401 32.2955 104.465 37.5945 107.245C39.0908 108.03 40.1757 108.95 40.8447 109.929C40.9195 110.039 40.9899 110.149 41.0537 110.259Z" fill="black" stroke="black" stroke-width="0.299091" stroke-linecap="round" stroke-linejoin="round"/>
<path d="M80.627 37.3484V43.8833L86.048 47.1062V40.5713L80.627 37.3484Z" fill="black"/>
<path d="M81.0577 79.962C83.8144 79.962 86.049 78.6714 86.049 77.0795C86.049 75.4875 83.8144 74.197 81.0577 74.197C78.3011 74.197 76.0664 75.4875 76.0664 77.0795C76.0664 78.6714 78.3011 79.962 81.0577 79.962Z" fill="black"/>
<path d="M77.6429 69.3167V77.0789C77.6429 78.1686 79.1715 79.0501 81.0572 79.0501C82.9429 79.0501 84.4715 78.1686 84.4715 77.0789V69.3167H77.6392H77.6429Z" fill="#8C9194"/>
<path d="M81.3687 70.2573V79.0498" stroke="#444444" stroke-width="0.299091" stroke-linecap="round" stroke-linejoin="round"/>
<path d="M77.6431 69.2939V77.0785C77.6431 78.0306 78.982 79.0497 80.6334 79.0497V69.2939H77.6431Z" fill="#444444"/>
<path d="M77.6429 69.3167V77.0789C77.6429 78.1686 79.1715 79.0501 81.0572 79.0501C82.9429 79.0501 84.4715 78.1686 84.4715 77.0789V69.3167H77.6392H77.6429Z" stroke="black" stroke-width="0.299091" stroke-linecap="round" stroke-linejoin="round"/>
<path d="M81.0574 71.2877C82.9431 71.2877 84.4717 70.4052 84.4717 69.3165C84.4717 68.2278 82.9431 67.3452 81.0574 67.3452C79.1717 67.3452 77.6431 68.2278 77.6431 69.3165C77.6431 70.4052 79.1717 71.2877 81.0574 71.2877Z" fill="#8C9194" stroke="black" stroke-width="0.299091" stroke-linecap="round" stroke-linejoin="round"/>
<path d="M78.4834 68.0217L79.9265 68.7507" stroke="black" stroke-width="0.299091" stroke-linecap="round" stroke-linejoin="round"/>
<path d="M68.9039 86.9803C71.6605 86.9803 73.8952 85.6897 73.8952 84.0978C73.8952 82.5059 71.6605 81.2153 68.9039 81.2153C66.1473 81.2153 63.9126 82.5059 63.9126 84.0978C63.9126 85.6897 66.1473 86.9803 68.9039 86.9803Z" fill="black"/>
<path d="M65.4847 76.3369V84.0991C65.4847 85.1889 67.0133 86.0703 68.899 86.0703C70.7847 86.0703 72.3133 85.1889 72.3133 84.0991V76.3369H65.481H65.4847Z" fill="#8C9194"/>
<path d="M69.2139 77.2776V86.07" stroke="#444444" stroke-width="0.299091" stroke-linecap="round" stroke-linejoin="round"/>
<path d="M65.4849 76.3142V84.0987C65.4849 85.0509 66.8238 86.07 68.4752 86.07V76.3142H65.4849Z" fill="#444444"/>
<path d="M65.4847 76.3369V84.0991C65.4847 85.1889 67.0133 86.0703 68.899 86.0703C70.7847 86.0703 72.3133 85.1889 72.3133 84.0991V76.3369H65.481H65.4847Z" stroke="black" stroke-width="0.299091" stroke-linecap="round" stroke-linejoin="round"/>
<path d="M68.9031 78.3082C70.7888 78.3082 72.3174 77.4257 72.3174 76.337C72.3174 75.2483 70.7888 74.3657 68.9031 74.3657C67.0174 74.3657 65.4888 75.2483 65.4888 76.337C65.4888 77.4257 67.0174 78.3082 68.9031 78.3082Z" fill="#8C9194" stroke="black" stroke-width="0.299091" stroke-linecap="round" stroke-linejoin="round"/>
<path d="M66.3291 75.042L67.7722 75.771" stroke="black" stroke-width="0.299091" stroke-linecap="round" stroke-linejoin="round"/>
<path d="M89.6541 29.3675C90.6249 29.9291 92.2135 29.9291 93.1802 29.3675L106.462 21.6974C107.433 21.1358 107.433 20.2212 106.462 19.6595L104.669 18.6246C103.699 18.063 102.11 18.063 101.143 18.6246L87.8609 26.2947C86.8901 26.8563 86.8901 27.7709 87.8609 28.3326L89.6541 29.3675Z" fill="#8C9194" stroke="black" stroke-width="0.299091" stroke-linecap="round" stroke-linejoin="round"/>
<path d="M107.156 19.2022L105.781 19.2664L104.669 18.6246C103.699 18.063 102.11 18.063 101.143 18.6246L94.5923 22.4075L99.9116 25.4803L106.462 21.6974C106.948 21.4166 107.189 21.0476 107.189 20.6785L107.156 19.2022Z" fill="black" stroke="black" stroke-width="0.299091" stroke-linecap="round" stroke-linejoin="round"/>
<path d="M99.9155 25.4801L106.466 20.3814C107.393 19.7195 107.393 18.7046 106.466 18.167L104.673 17.1321C103.702 16.5704 102.03 16.6226 101.147 17.3086L94.5962 22.4073L99.9155 25.4801Z" fill="#8C9194" stroke="black" stroke-width="0.299091" stroke-linecap="round" stroke-linejoin="round"/>
<rect width="59.3438" height="23.0326" rx="11.5163" transform="matrix(-1 0 0 1 76.2856 38.2539)" fill="#10F48A"/>
<path d="M69.5007 72.0521C63.9119 71.1898 57.9251 61.0452 56.5256 57.5436L52.8713 59.6639C54.0111 63.4602 63.4542 71.7143 69.5007 72.0521Z" fill="#10F48A"/>
<mask id="path-43-inside-1_158_2633" fill="white">
<path fill-rule="evenodd" clip-rule="evenodd" d="M112.473 14C120.787 14 127.526 20.7393 127.526 29.0526C127.526 37.3659 120.787 44.1051 112.473 44.1051H110.377C115.402 48.6252 120.757 55.4414 123.733 64.0882C119.976 56.2 111.265 47.1281 100.565 44.1051H60.0496C51.7363 44.1051 44.997 37.3659 44.997 29.0526C44.997 20.7393 51.7363 14 60.0496 14H112.473Z"/>
</mask>
<path fill-rule="evenodd" clip-rule="evenodd" d="M112.473 14C120.787 14 127.526 20.7393 127.526 29.0526C127.526 37.3659 120.787 44.1051 112.473 44.1051H110.377C115.402 48.6252 120.757 55.4414 123.733 64.0882C119.976 56.2 111.265 47.1281 100.565 44.1051H60.0496C51.7363 44.1051 44.997 37.3659 44.997 29.0526C44.997 20.7393 51.7363 14 60.0496 14H112.473Z" fill="#4C5154"/>
<path d="M110.377 44.1051L110.176 44.3282L109.595 43.8051H110.377V44.1051ZM123.733 64.0882L124.016 63.9906L123.462 64.2172L123.733 64.0882ZM100.565 44.1051V43.8051H100.606L100.646 43.8164L100.565 44.1051ZM127.226 29.0526C127.226 20.905 120.621 14.3 112.473 14.3V13.7C120.952 13.7 127.826 20.5736 127.826 29.0526H127.226ZM112.473 43.8051C120.621 43.8051 127.226 37.2002 127.226 29.0526H127.826C127.826 37.5315 120.952 44.4051 112.473 44.4051V43.8051ZM110.377 43.8051H112.473V44.4051H110.377V43.8051ZM123.449 64.1858C120.493 55.5964 115.172 48.8213 110.176 44.3282L110.577 43.8821C115.633 48.4291 121.021 55.2864 124.016 63.9906L123.449 64.1858ZM100.646 43.8164C111.445 46.8672 120.217 56.0088 124.004 63.9592L123.462 64.2172C119.735 56.3912 111.085 47.3889 100.483 44.3938L100.646 43.8164ZM60.0496 43.8051H100.565V44.4051H60.0496V43.8051ZM45.2971 29.0526C45.2971 37.2002 51.902 43.8051 60.0496 43.8051V44.4051C51.5706 44.4051 44.697 37.5315 44.697 29.0526H45.2971ZM60.0496 14.3C51.902 14.3 45.2971 20.905 45.2971 29.0526H44.697C44.697 20.5736 51.5706 13.7 60.0496 13.7V14.3ZM112.473 14.3H60.0496V13.7H112.473V14.3Z" fill="black" mask="url(#path-43-inside-1_158_2633)"/>
<rect x="56.665" y="22.4055" width="7.198" height="4.13477" fill="#8C9194"/>
<rect x="69.0908" y="22.4055" width="18.7861" height="4.13477" fill="#8C9194"/>
<rect x="62.1289" y="31.3076" width="18.7861" height="4.13477" fill="#8C9194"/>
<rect x="86.5527" y="31.3079" width="8.78116" height="4.13477" fill="#10F48A"/>
<rect x="93.105" y="22.4055" width="14.6942" height="4.13477" fill="#8C9194"/>
<rect x="113.027" y="22.4055" width="3.93201" height="4.13477" fill="#8C9194"/>
</svg>
