<svg xmlns="http://www.w3.org/2000/svg" width="149" height="148" fill="none" viewBox="0 0 149 148">
  <defs>
    <radialGradient id="b" cx="0" cy="0" r="1" gradientTransform="rotate(90 8.5 64)scale(32)" gradientUnits="userSpaceOnUse">
      <stop stop-color="#fff"/>
      <stop offset="1" stop-color="#fff" stop-opacity="0"/>
    </radialGradient>
  </defs>
  <path fill="#313638" stroke="currentColor" stroke-linecap="round" stroke-linejoin="round" stroke-width=".35" d="M25.653 111.838v-5.147c0 1.969 1.578 3.972 4.908 5.854 11.633 6.617 40.308 9.381 64.043 6.192 16.944-2.274 26.792-6.986 26.803-11.894v5.147c-.022 4.908-9.859 9.609-26.814 11.895-23.734 3.188-52.41.413-64.043-6.192-3.33-1.894-4.908-3.896-4.897-5.855"/>
  <path fill="#4C5154" stroke="currentColor" stroke-linecap="round" stroke-linejoin="round" stroke-width=".35" d="M112.843 98.79c-10.643-6.05-36.859-8.586-58.57-5.659-21.699 2.917-30.666 10.186-20.023 16.237s36.859 8.586 58.57 5.658c21.698-2.916 30.666-10.185 20.023-16.236"/>
  <path fill="#4C5154" stroke="currentColor" stroke-linecap="round" stroke-linejoin="round" stroke-width=".35" d="m30.213 101.032 3.71-2.188c-5.44 3.211-5.767 7.063.316 10.523 10.643 6.051 36.859 8.587 58.569 5.659 21.46-2.884 30.46-10.022 20.382-16.03 1.23.74 2.471 1.47 3.7 2.21 11.024 6.562 1.176 14.364-22.287 17.52-23.734 3.189-52.409.414-64.042-6.192-6.65-3.776-6.301-7.987-.348-11.502"/>
  <path fill="#1D2022" stroke="currentColor" stroke-linecap="round" stroke-linejoin="round" stroke-width=".35" d="M121.407 110.01v-.566c-.022 1.926-1.556 3.809-4.429 5.528a1.7 1.7 0 0 0-.588.588c-.294.511-.566.968-.859 1.469a1.65 1.65 0 0 1-.708.653c-4.723 2.231-11.862 4.102-21.003 5.278a.87.87 0 0 1-.685-.207l-.838-.74a1.32 1.32 0 0 0-1.023-.327c-11.775 1.285-24.475 1.187-35.564-.065a1.12 1.12 0 0 0-.849.272l-.816.729a1.09 1.09 0 0 1-.881.272c-8.543-1.131-15.954-2.96-20.981-5.375a1.27 1.27 0 0 1-.577-.545c-.294-.5-.631-1.099-.87-1.49a1.8 1.8 0 0 0-.327-.436c-.196-.174-.435-.304-.49-.337-1.698-1.045-2.862-2.122-3.548-3.2-.293-.478-.5-.946-.609-1.425a3.7 3.7 0 0 1-.098-.838v3.265c0 .217.033.478.087.696 0 .011 0 .033.011.044.054.228.12.457.218.685 0 0 .01.022.01.033.099.228.218.468.36.696 0 .011.021.033.032.044.142.228.305.457.5.685l.099.098c.185.207.37.414.587.621.066.065.142.119.218.185.196.174.392.359.62.533.142.109.305.218.457.326.175.131.338.262.534.381.359.24.74.468 1.153.708 5.071 2.883 13.385 5.027 23.104 6.279 1.512.196 3.057.37 4.635.511.044 0 .087 0 .13.011 1.525.142 3.07.261 4.637.37.098 0 .196.011.283.022 1.534.098 3.09.174 4.657.228h.283c1.61.055 3.232.087 4.854.087h.098c7.171.022 14.473-.391 21.351-1.316 9.054-1.219 16.084-3.124 20.666-5.387.979-.49 1.85-.99 2.6-1.502.022-.011.033-.022.055-.032.348-.24.675-.49.979-.74a.6.6 0 0 0 .087-.077c.283-.239.544-.489.784-.729a.7.7 0 0 0 .087-.098c.228-.239.424-.489.609-.729.022-.032.044-.065.077-.109.174-.25.315-.5.435-.74.011-.032.032-.065.043-.098.12-.25.207-.511.272-.772 0-.022 0-.044.011-.066.055-.272.098-.533.098-.805v-2.546z"/>
  <g opacity=".66">
    <path stroke="#313638" stroke-linecap="round" stroke-linejoin="round" stroke-width=".35" d="m60.335 115.647 1.436-1.513c.207-.218.065-.577-.229-.609-8.618-.86-16.105-2.612-20.448-5.082-.152-.087-.293-.175-.435-.262a2.68 2.68 0 0 0-1.85-.337l-5.484.969"/>
    <path fill="#313638" d="M110.655 99.084a25 25 0 0 0-1.633-.838c-.109-.055-.239-.076-.37-.055l-3.025.349c-.163.021-.283.239-.109.326.501.229.969.479 1.404.718 3.939 2.242 4.712 4.669 2.818 6.911a.392.392 0 0 0 .24.642l2.699.37a.69.69 0 0 0 .566-.185c2.742-2.634 2.1-5.561-2.601-8.227zM56.58 94.59c-.38-.175-1.512-.675-1.512-.675a.9.9 0 0 0-.436-.066c-14.147 2.003-22.352 5.986-22.374 10.143 0 .315.25.576.566.555l2.95-.174a.52.52 0 0 0 .5-.479c.152-3.722 7.52-7.27 20.176-9.054.184-.022.391-.142.13-.262z"/>
    <path stroke="#313638" stroke-linecap="round" stroke-linejoin="round" stroke-width=".35" d="M101.035 100.509c-3.428-1.948-9.185-3.373-15.867-4.146l-11.35 5.866 12.797 9.076a2.23 2.23 0 0 0 1.633.391c14.299-2.143 20.034-7.062 12.797-11.176z"/>
  </g>
  <path fill="#1D2022" stroke="currentColor" stroke-linecap="round" stroke-linejoin="round" stroke-width=".35" d="M51.793 99.312a48 48 0 0 1 2.764-.86c-1.448.534-3.07.97-4.07 2.199-.686.838-.773 1.85-.13 2.742.5.686 1.229 1.186 1.958 1.6 5.746 3.265 19.904 4.636 31.635 3.058 11.72-1.578 16.563-5.507 10.817-8.771 0 0 2.47.936 3.276 1.327 2.035.958 2.927 2.253 2.873 3.407-.12 2.775-5.735 5.43-15.334 6.714-13.58 1.828-29.98.239-36.64-3.548-1.078-.609-2.351-1.48-2.71-2.742-.305-1.056.228-2.057 1.012-2.732.914-.794 2.96-1.86 4.538-2.394z"/>
  <path fill="#4C5154" stroke="currentColor" stroke-linecap="round" stroke-linejoin="round" stroke-width=".35" d="M97.03 100.314c6.367 3.612 1.002 7.955-11.97 9.707-12.972 1.741-28.642.228-35.009-3.385-6.366-3.613-1-7.955 11.971-9.707 12.972-1.741 28.642-.228 35.009 3.385"/>
  <path fill="#4C5154" d="M97.03 100.314c6.367 3.612 1.002 7.955-11.97 9.707-12.972 1.741-28.642.228-35.009-3.385-6.366-3.613-1-7.955 11.971-9.707 12.972-1.741 28.642-.228 35.009 3.385"/>
  <path fill="#8C9499" d="m98.532 101.587-.12-.12-23.473 4.059 20.775-5.713c-.076-.033-.142-.065-.218-.098l-20.763 5.713 16.704-7.073c-.098-.022-.196-.055-.305-.077l-16.682 7.063 11.655-8.075c-.12-.021-.25-.032-.37-.054l-11.644 8.064 5.985-8.684c-.13 0-.261-.022-.392-.033l-5.985 8.684v-8.902h-.414v8.891l-5.996-8.706c-.13 0-.272.022-.403.022l5.997 8.706-11.677-8.096c-.12.021-.25.032-.37.054l11.688 8.096-16.748-7.084c-.098.022-.207.054-.305.076l16.759 7.096-20.786-5.714c-.076.033-.152.066-.217.098l20.807 5.724-23.44-4.048s-.077.076-.11.12l23.452 4.048-24.366-2.209v.12l24.366 2.209-23.386-.338.12.12 23.364.337-20.6 1.361c.076.032.163.065.239.098l20.567-1.361-16.388 2.743c.109.022.207.054.315.087l16.378-2.743-11.296 3.733c.12.022.25.033.381.055l11.274-3.733-5.735 4.32c.131 0 .261.022.392.033l5.746-4.331v4.527h.413v-4.527l5.768 4.353c.13 0 .272-.011.403-.022l-5.779-4.353 11.405 3.776c.13-.022.25-.033.38-.054l-11.426-3.787 16.596 2.785c.109-.021.218-.054.327-.076l-16.64-2.786 20.84 1.382c.076-.032.152-.065.229-.108l-20.862-1.382 23.593-.338s.076-.076.109-.119l-23.593.337 24.496-2.22v-.12l-24.485 2.22 23.484-4.059z"/>
  <path fill="#393D3F" d="M88.564 103.763c4.07 2.307.642 5.082-7.65 6.203-8.293 1.11-18.316.142-22.375-2.165-4.07-2.308-.642-5.083 7.65-6.203s18.316-.142 22.375 2.165"/>
  <path fill="#10F48A" d="M83.232 104.623c2.622 1.491.413 3.286-4.94 4.005-5.355.718-11.82.098-14.442-1.393s-.413-3.287 4.94-4.005c5.355-.718 11.82-.098 14.442 1.393"/>
  <path stroke="#969696" stroke-linecap="round" stroke-linejoin="round" stroke-width=".35" d="M19.178 94.557c-2.437-5.29 20.394-21.036 51.017-35.172 30.612-14.136 57.415-21.308 59.853-16.019"/>
  <path fill="#10F48A" d="M35.643 79.887a1.654 1.654 0 1 0 0-3.308 1.654 1.654 0 0 0 0 3.308"/>
  <path fill="#313638" stroke="currentColor" stroke-width=".5" d="M107.5 28.654 73.244 16v82l18.058-11.07A33.93 33.93 0 0 0 107.5 58z"/>
  <path fill="#596266" d="m107.5 29-6-.5L73 16z"/>
  <path fill="#4C5154" stroke="currentColor" stroke-width=".5" d="M101.5 28.654 72.772 16 44.5 28.654V58a37.78 37.78 0 0 0 15.253 30.33L72.772 98l13.39-9.787A37.42 37.42 0 0 0 101.5 58z"/>
  <path fill="#10F48A" stroke="currentColor" stroke-width=".5" d="M95.5 33.03 72.82 23 50.5 33.03v23.263a30.02 30.02 0 0 0 12.073 24.065L72.82 88l10.538-7.735A29.74 29.74 0 0 0 95.5 56.293z"/>
  <mask id="a" width="46" height="65" x="50" y="23" maskUnits="userSpaceOnUse" style="mask-type:alpha">
    <path fill="#ECA300" d="M95.5 33.03 72.82 23 50.5 33.03v23.263a30.02 30.02 0 0 0 12.073 24.065L72.82 88l10.538-7.735A29.74 29.74 0 0 0 95.5 56.293z"/>
  </mask>
  <g mask="url(#a)">
    <path fill="url(#b)" fill-rule="evenodd" d="M53.35 87.5v-7.35H40.5v-.3h12.85v-9.7H40.5v-.3h12.85v-9.7H40.5v-.3h12.85v-9.7H40.5v-.3h12.85v-9.7H40.5v-.3h12.85v-9.7H40.5v-.3h12.85V23.5h.3v6.35h9.7V23.5h.3v6.35h9.7V23.5h.3v6.35h9.7V23.5h.3v6.35h9.7V23.5h.3v6.35h10.85v.3H93.65v9.7h10.85v.3H93.65v9.7h10.85v.3H93.65v9.7h10.85v.3H93.65v9.7h10.85v.3H93.65v9.7h10.85v.3H93.65v7.35h-.3v-7.35h-9.7v7.35h-.3v-7.35h-9.7v7.35h-.3v-7.35h-9.7v7.35h-.3v-7.35h-9.7v7.35zm40-57.35h-9.7v9.7h9.7zm-10 0h-9.7v9.7h9.7zm-10 0h-9.7v9.7h9.7zm-10 0h-9.7v9.7h9.7zm-9.7 19.7v-9.7h9.7v9.7zm10 0v-9.7h9.7v9.7zm10 0v-9.7h9.7v9.7zm10 0v-9.7h9.7v9.7zm9.7.3h-9.7v9.7h9.7zm-10 0h-9.7v9.7h9.7zm-10 0h-9.7v9.7h9.7zm-10 0h-9.7v9.7h9.7zm-9.7 19.7v-9.7h9.7v9.7zm10 0v-9.7h9.7v9.7zm10 0v-9.7h9.7v9.7zm10 0v-9.7h9.7v9.7zm9.7.3h-9.7v9.7h9.7zm-10 0h-9.7v9.7h9.7zm-10 0h-9.7v9.7h9.7zm-10 0h-9.7v9.7h9.7z" clip-rule="evenodd"/>
  </g>
  <path fill="currentColor" d="M67.709 60.305V63h-8.682v-2.256q3.858-6.308 4.58-7.803.733-1.503.733-2.343 0-.645-.225-.957-.214-.323-.664-.323t-.674.352q-.215.352-.215 1.396v1.504h-3.535v-.576q0-1.328.137-2.09.137-.772.674-1.513.537-.743 1.396-1.123.86-.381 2.06-.381 2.355 0 3.556 1.172 1.21 1.161 1.21 2.949 0 1.358-.683 2.87-.674 1.515-3.994 6.427zm1.65-13.115h6.963v3.163h-2.851v2.999h2.539v3.007h-2.54V63h-4.11zm15.069 0L86.78 63h-4.209l-.205-2.842h-1.474L80.648 63h-4.257l2.09-15.81zM82.25 57.356q-.312-2.685-.625-6.631-.625 4.53-.781 6.63z"/>
  <path stroke="#969696" stroke-linecap="round" stroke-linejoin="round" stroke-width=".35" d="M130.048 43.355c2.437 5.289-20.394 21.036-51.017 35.172s-57.404 21.318-59.853 16.03"/>
  <path fill="#10F48A" d="M118.882 58.59a2.58 2.58 0 1 0 .001-5.158 2.58 2.58 0 0 0-.001 5.159"/>
  <path stroke="#969696" stroke-linecap="round" stroke-linejoin="round" stroke-miterlimit="10" stroke-width=".35" d="M45.737 14.876a2.54 2.54 0 1 0 0-5.082 2.54 2.54 0 0 0 0 5.082M22.447 24.192a1.27 1.27 0 1 0 0-2.54 1.27 1.27 0 0 0 0 2.54M29.68 31.814l-4.269 4.269 4.268 4.268 4.269-4.268z"/>
  
</svg>
