<svg xmlns="http://www.w3.org/2000/svg" width="148" height="148" fill="none" viewBox="0 0 148 148">
  <defs>
    <radialGradient id="c" cx="0" cy="0" r="1" gradientTransform="rotate(90 10.652 62.945)scale(37.268)" gradientUnits="userSpaceOnUse">
      <stop stop-color="#fff"/>
      <stop offset="1" stop-color="#fff" stop-opacity="0"/>
    </radialGradient>
  </defs>
  <path fill="#313638" stroke="#000" stroke-linecap="round" stroke-linejoin="round" stroke-width=".35" d="M25.153 111.838v-5.147c0 1.969 1.578 3.972 4.908 5.854 11.633 6.617 40.308 9.381 64.043 6.192 16.944-2.274 26.792-6.986 26.803-11.894v5.147c-.022 4.908-9.859 9.609-26.814 11.895-23.735 3.188-52.41.413-64.043-6.192-3.33-1.894-4.908-3.896-4.897-5.855"/>
  <path fill="#4C5154" stroke="#000" stroke-linecap="round" stroke-linejoin="round" stroke-width=".35" d="M112.343 98.79c-10.643-6.05-36.859-8.586-58.57-5.659-21.699 2.917-30.666 10.186-20.023 16.237s36.859 8.586 58.57 5.659c21.698-2.917 30.666-10.186 20.023-16.237"/>
  <path fill="#4C5154" stroke="#000" stroke-linecap="round" stroke-linejoin="round" stroke-width=".35" d="m29.712 101.032 3.711-2.188c-5.44 3.211-5.767 7.063.316 10.523 10.643 6.051 36.858 8.587 58.569 5.659 21.46-2.884 30.459-10.022 20.382-16.03 1.23.74 2.471 1.47 3.7 2.21 11.024 6.562 1.176 14.364-22.287 17.52-23.734 3.189-52.41.414-64.042-6.192-6.65-3.776-6.301-7.987-.349-11.502"/>
  <path fill="#1D2022" stroke="#000" stroke-linecap="round" stroke-linejoin="round" stroke-width=".35" d="M120.907 110.01v-.566c-.022 1.926-1.556 3.809-4.429 5.528a1.7 1.7 0 0 0-.588.588c-.294.511-.566.968-.859 1.469a1.65 1.65 0 0 1-.708.653c-4.723 2.231-11.862 4.103-21.003 5.278a.87.87 0 0 1-.685-.207l-.838-.74a1.3 1.3 0 0 0-1.023-.326c-11.775 1.284-24.475 1.186-35.564-.066a1.12 1.12 0 0 0-.849.272l-.816.729c-.24.218-.566.316-.881.273-8.543-1.132-15.954-2.96-20.981-5.376a1.27 1.27 0 0 1-.577-.544c-.294-.501-.631-1.1-.87-1.491a1.8 1.8 0 0 0-.327-.436c-.196-.174-.435-.304-.49-.337-1.698-1.045-2.862-2.122-3.548-3.199-.293-.479-.5-.947-.609-1.426a3.7 3.7 0 0 1-.098-.838v3.265c0 .217.033.479.087.696 0 .011 0 .033.011.044.054.228.12.457.218.685 0 0 .01.022.01.033.099.229.218.468.36.696 0 .011.021.033.032.044.142.229.305.457.5.686q.05.048.099.098c.185.206.37.413.587.62.066.065.142.12.218.185.196.174.392.359.62.533.142.109.305.218.457.327.175.13.338.261.534.38.359.24.74.468 1.153.708 5.071 2.884 13.385 5.027 23.104 6.279 1.512.196 3.057.37 4.635.511.044 0 .087 0 .13.011 1.525.142 3.07.261 4.637.37.098 0 .196.011.283.022 1.534.098 3.09.174 4.657.229h.283c1.61.054 3.232.087 4.854.087h.098c7.171.021 14.473-.392 21.351-1.317 9.054-1.219 16.084-3.123 20.666-5.387.979-.49 1.85-.99 2.6-1.502.022-.011.033-.021.055-.032.348-.24.675-.49.979-.74a.6.6 0 0 0 .087-.077c.283-.239.544-.489.784-.729a.7.7 0 0 0 .087-.098c.228-.239.424-.489.609-.729.022-.032.044-.065.077-.109.174-.25.315-.5.435-.74.011-.032.032-.065.043-.097.12-.251.207-.512.272-.773 0-.022 0-.044.011-.065.055-.272.098-.534.098-.806v-2.546z"/>
  <g opacity=".66">
    <path stroke="#313638" stroke-linecap="round" stroke-linejoin="round" stroke-width=".35" d="m59.835 115.647 1.436-1.513c.207-.218.065-.577-.229-.609-8.618-.86-16.105-2.612-20.448-5.082a13 13 0 0 1-.435-.262 2.68 2.68 0 0 0-1.85-.337l-5.484.969"/>
    <path fill="#313638" d="M110.154 99.084c-.5-.283-1.055-.566-1.632-.838-.109-.055-.239-.076-.37-.055l-3.025.349c-.163.021-.283.24-.109.326.501.229.968.479 1.404.718 3.939 2.242 4.712 4.669 2.818 6.911a.392.392 0 0 0 .24.642l2.699.37a.68.68 0 0 0 .565-.185c2.743-2.634 2.101-5.561-2.6-8.227zM56.08 94.59c-.38-.175-1.512-.675-1.512-.675a.9.9 0 0 0-.436-.066c-14.147 2.003-22.352 5.986-22.374 10.143 0 .315.25.576.566.555l2.95-.174a.52.52 0 0 0 .5-.479c.152-3.722 7.52-7.27 20.176-9.054.184-.022.391-.142.13-.261z"/>
    <path stroke="#313638" stroke-linecap="round" stroke-linejoin="round" stroke-width=".35" d="M100.535 100.509c-3.428-1.948-9.185-3.373-15.867-4.146l-11.35 5.866 12.798 9.076a2.23 2.23 0 0 0 1.632.391c14.299-2.143 20.034-7.062 12.798-11.176z"/>
  </g>
  <path fill="#1D2022" stroke="#000" stroke-linecap="round" stroke-linejoin="round" stroke-width=".35" d="M51.292 99.312a48 48 0 0 1 2.765-.86c-1.448.534-3.07.97-4.07 2.199-.686.838-.773 1.85-.131 2.742.5.686 1.23 1.186 1.959 1.6 5.746 3.265 19.904 4.636 31.635 3.058 11.72-1.578 16.563-5.507 10.817-8.771 0 0 2.47.936 3.275 1.327 2.035.958 2.928 2.253 2.873 3.407-.119 2.775-5.735 5.43-15.333 6.714-13.581 1.828-29.98.239-36.64-3.548-1.078-.609-2.351-1.48-2.71-2.742-.305-1.056.228-2.057 1.012-2.732.914-.794 2.96-1.86 4.538-2.394z"/>
  <path fill="#4C5154" stroke="#000" stroke-linecap="round" stroke-linejoin="round" stroke-width=".35" d="M96.53 100.314c6.367 3.613 1.002 7.955-11.97 9.707-12.972 1.741-28.643.228-35.009-3.385s-1-7.955 11.97-9.707c12.973-1.741 28.643-.228 35.01 3.385"/>
  <path fill="#4C5154" d="M96.53 100.314c6.367 3.613 1.002 7.955-11.97 9.707-12.972 1.741-28.643.228-35.009-3.385s-1-7.955 11.97-9.707c12.973-1.741 28.643-.228 35.01 3.385"/>
  <path fill="#8C9499" d="m98.032 101.587-.12-.12-23.473 4.059 20.775-5.713c-.077-.033-.142-.065-.218-.098l-20.764 5.713 16.705-7.073c-.098-.022-.196-.055-.305-.076L73.95 105.34l11.656-8.074c-.12-.022-.25-.033-.37-.055l-11.645 8.064 5.986-8.684c-.13 0-.261-.022-.392-.033l-5.985 8.684v-8.901h-.414v8.89l-5.996-8.705c-.13 0-.272.021-.403.021l5.996 8.706-11.676-8.096c-.12.022-.25.032-.37.054l11.687 8.097-16.748-7.085c-.098.022-.206.055-.304.076l16.759 7.096-20.786-5.714c-.076.033-.152.066-.218.098l20.808 5.724-23.441-4.048s-.076.076-.109.12l23.452 4.048-24.366-2.209v.12l24.366 2.209-23.387-.337.12.119 23.365.338-20.6 1.36c.076.033.163.065.239.098l20.567-1.36-16.388 2.742c.108.022.206.054.315.087l16.378-2.742-11.296 3.732c.12.022.25.033.381.055l11.274-3.733-5.735 4.32c.13 0 .261.022.392.033l5.746-4.331v4.527h.413v-4.527l5.768 4.353c.13 0 .272-.011.403-.022l-5.779-4.353 11.405 3.776c.13-.022.25-.032.38-.054l-11.426-3.787 16.596 2.786c.109-.022.218-.055.326-.077l-16.639-2.785 20.84 1.382c.076-.033.152-.066.228-.109l-20.861-1.382 23.593-.338s.076-.076.109-.119l-23.593.337 24.496-2.22v-.12l-24.485 2.22 23.484-4.059z"/>
  <path fill="#393D3F" d="M88.064 103.763c4.07 2.307.642 5.082-7.65 6.203-8.293 1.11-18.316.142-22.375-2.165-4.07-2.307-.642-5.082 7.65-6.203s18.316-.142 22.375 2.165"/>
  <path fill="#10F48A" d="M82.732 104.623c2.622 1.491.413 3.286-4.941 4.005s-11.818.098-14.44-1.393c-2.623-1.491-.414-3.287 4.94-4.005s11.818-.098 14.44 1.393"/>
  <path stroke="#969696" stroke-linecap="round" stroke-linejoin="round" stroke-width=".35" d="M18.678 94.557c-2.437-5.289 20.394-21.036 51.017-35.172 30.612-14.136 57.415-21.308 59.853-16.019"/>
  <path fill="#10F48A" d="M35.143 79.887a1.654 1.654 0 1 0 0-3.308 1.654 1.654 0 0 0 0 3.308"/>
  <mask id="a" width="79" height="54" x="36" y="31" maskUnits="userSpaceOnUse" style="mask-type:alpha">
    <path fill="#000" stroke="#000" stroke-width=".582" d="m112.804 35.419-.001-.001zm0 0 .015-.016.002-.001-.017.017ZM40.431 82.895a.3.3 0 0 0-.092-.057l-3.344-3.343a.347.347 0 0 1 .202-.59l-.036-.289.036.29c.518-.066.86-.534.836-1.025a7 7 0 0 1-.008-.347V40.2a7.175 7.175 0 0 1 7.175-7.175h62.22q.189 0 .374.01c.49.024.958-.32 1.016-.839.031-.28.372-.4.572-.2l3.345 3.345a.3.3 0 0 0 .057.093 7.15 7.15 0 0 1 1.812 4.766v37.333a7.176 7.176 0 0 1-7.176 7.175H45.2a7.15 7.15 0 0 1-4.77-1.814Z"/>
  </mask>
  <g mask="url(#a)">
    <path fill="#121212" stroke="#000" stroke-width=".582" d="m112.804 35.419-.001-.001zm0 0 .015-.016.002-.001-.017.017ZM40.431 82.895a.3.3 0 0 0-.092-.057l-3.344-3.343a.347.347 0 0 1 .202-.59l-.036-.289.036.29c.518-.066.86-.534.836-1.025a7 7 0 0 1-.008-.347V40.2a7.175 7.175 0 0 1 7.175-7.175h62.22q.189 0 .374.01c.49.024.958-.32 1.016-.839.031-.28.372-.4.572-.2l3.345 3.345a.3.3 0 0 0 .057.093 7.15 7.15 0 0 1 1.812 4.766v37.333a7.176 7.176 0 0 1-7.176 7.175H45.2a7.15 7.15 0 0 1-4.77-1.814Z"/>
    <path fill="#4C5154" d="m108.744 69.56 8.855 7.84-1.554 6.083-8.788-7.233zM102.957 76.978l8.855 7.84-.067 2.372-8.788-7.232zM40.321 77.984l8.855 7.84-2.534 2.166-8.788-7.233z"/>
    <path stroke="#121212" stroke-width=".582" d="m112.804 35.419-.001-.001zm0 0 .015-.016.002-.001-.017.017ZM40.431 82.895a.3.3 0 0 0-.092-.057l-3.344-3.343a.347.347 0 0 1 .202-.59l-.036-.289.036.29c.518-.066.86-.534.836-1.025a7 7 0 0 1-.008-.347V40.2a7.175 7.175 0 0 1 7.175-7.175h62.22q.189 0 .374.01c.49.024.958-.32 1.016-.839.031-.28.372-.4.572-.2l3.345 3.345a.3.3 0 0 0 .057.093 7.15 7.15 0 0 1 1.812 4.766v37.333a7.176 7.176 0 0 1-7.176 7.175H45.2a7.15 7.15 0 0 1-4.77-1.814Z"/>
  </g>
  <mask id="b" width="78" height="53" x="34" y="29" maskUnits="userSpaceOnUse" style="mask-type:alpha">
    <path fill="#fff" stroke="#000" stroke-width=".582" d="M34.291 35.988a6.697 6.697 0 0 1 6.697-6.697h63.178a6.696 6.696 0 0 1 6.696 6.697v38.29a6.696 6.696 0 0 1-6.696 6.696H40.988a6.697 6.697 0 0 1-6.697-6.696z"/>
  </mask>
  <g mask="url(#b)">
    <path fill="#10F48A" stroke="#000" stroke-width=".582" d="M34.291 35.988a6.697 6.697 0 0 1 6.697-6.697h63.178a6.696 6.696 0 0 1 6.696 6.697v38.29a6.696 6.696 0 0 1-6.696 6.696H40.988a6.697 6.697 0 0 1-6.697-6.696z"/>
    <path fill="#4C5154" stroke="#000" stroke-width=".582" d="M34 35.988A6.99 6.99 0 0 1 40.988 29h63.178a6.99 6.99 0 0 1 6.988 6.988v38.29a6.99 6.99 0 0 1-6.988 6.987H40.988A6.99 6.99 0 0 1 34 74.278z"/>
    <path fill="url(#c)" fill-opacity=".4" fill-rule="evenodd" d="M51.295 89.56V81H36.329v-.349h14.966V69.354H36.329v-.35h14.966V57.709H36.329v-.35h14.966V46.063H36.329v-.35h14.966V34.416H36.329v-.35h14.966V22.77H36.329v-.35h14.966v-7.395h.35v7.396H62.94v-7.396h.35v7.396h11.296v-7.396h.35v7.396h11.297v-7.396h.349v7.396H97.88v-7.396h.35v7.396h12.635v.35H98.229v11.296h12.636v.35H98.229v11.296h12.636v.35H98.229v11.297h12.636v.35H98.229v11.296h12.636v.35H98.229V80.65h12.636v.35H98.229v8.56h-.35V81H86.584v8.56h-.35V81H74.938v8.56h-.35V81H63.29v8.56h-.349V81H51.644v8.56zM97.88 22.77H86.583v11.296H97.88zm-11.646 0H74.937v11.296h11.297zm-11.647 0H63.29v11.296h11.297zm-11.646 0H51.644v11.296h11.297zM51.644 45.711V34.416h11.297v11.296zm11.646 0V34.416h11.297v11.296zm11.647 0V34.416h11.297v11.296zm11.646 0V34.416H97.88v11.296zm11.297.35H86.583v11.297H97.88zm-11.646 0H74.937v11.297h11.297zm-11.647 0H63.29v11.297h11.297zm-11.646 0H51.644v11.297h11.297zM51.644 69.005V57.708h11.297v11.297zm11.646 0V57.708h11.297v11.297zm11.647 0V57.708h11.297v11.297zm11.646 0V57.708H97.88v11.297zm11.297.35H86.583V80.65H97.88zm-11.646 0H74.937V80.65h11.297zm-11.647 0H63.29V80.65h11.297zm-11.646 0H51.644V80.65h11.297z" clip-rule="evenodd"/>
    <path fill="#8C9194" stroke="#000" stroke-width=".582" d="M67.172 48.673 39.822 74.64c-4.578 4.347-1.502 12.055 4.811 12.055h54.929c6.327 0 9.397-7.738 4.79-12.075l-27.58-25.967a6.99 6.99 0 0 0-9.6.02Z"/>
    <path fill="#10F48A" stroke="#000" stroke-linecap="round" stroke-width=".582" d="m67.315 59.98-32.67-30.84h74.132L76.538 59.951a6.697 6.697 0 0 1-9.223.029Z"/>
    <path fill="#000" d="M55.037 30.165h35.08a5.984 5.984 0 0 1-5.984 5.984H61.021a5.984 5.984 0 0 1-5.984-5.984"/>
    <path stroke="#000" stroke-width=".582" d="M34.291 35.988a6.697 6.697 0 0 1 6.697-6.697h63.178a6.696 6.696 0 0 1 6.696 6.697v38.29a6.696 6.696 0 0 1-6.696 6.696H40.988a6.697 6.697 0 0 1-6.697-6.696z"/>
  </g>
  <path stroke="#969696" stroke-linecap="round" stroke-linejoin="round" stroke-width=".35" d="M129.548 43.355c2.437 5.289-20.394 21.036-51.017 35.172s-57.404 21.318-59.853 16.03"/>
  <path fill="#10F48A" d="M118.382 58.59a2.579 2.579 0 1 0 0-5.157 2.579 2.579 0 0 0 0 5.158"/>
  <path stroke="#969696" stroke-linecap="round" stroke-linejoin="round" stroke-miterlimit="10" stroke-width=".35" d="M45.237 14.876a2.54 2.54 0 1 0 0-5.082 2.54 2.54 0 0 0 0 5.082M21.947 24.192a1.27 1.27 0 1 0 0-2.54 1.27 1.27 0 0 0 0 2.54M29.18 31.815l-4.269 4.268 4.268 4.268 4.268-4.268z"/>
  
</svg>
