<svg width="22" height="22" viewBox="0 0 22 22" fill="none" xmlns="http://www.w3.org/2000/svg">
<defs>
<clipPath id="clip0_658_27115">
<rect width="14" height="14" fill="white" transform="translate(4 4)"/>
</clipPath>
</defs>
<circle cx="11" cy="11" r="10.5" fill="#191C1E" stroke="white"/>
<g clip-path="url(#clip0_658_27115)">
<path d="M8.66675 8.08333C8.66675 8.70217 8.91258 9.29566 9.35017 9.73325C9.78775 10.1708 10.3812 10.4167 11.0001 10.4167C11.6189 10.4167 12.2124 10.1708 12.65 9.73325C13.0876 9.29566 13.3334 8.70217 13.3334 8.08333C13.3334 7.46449 13.0876 6.871 12.65 6.43342C12.2124 5.99583 11.6189 5.75 11.0001 5.75C10.3812 5.75 9.78775 5.99583 9.35017 6.43342C8.91258 6.871 8.66675 7.46449 8.66675 8.08333Z" stroke="white" stroke-width="0.875" stroke-linecap="round" stroke-linejoin="round"/>
<path d="M7.5 16.25V15.0833C7.5 14.4645 7.74583 13.871 8.18342 13.4334C8.621 12.9958 9.21449 12.75 9.83333 12.75H11.5833" stroke="white" stroke-width="0.875" stroke-linecap="round" stroke-linejoin="round"/>
<path d="M16.2501 12.75H14.7917C14.5597 12.75 14.3371 12.8422 14.173 13.0063C14.0089 13.1704 13.9167 13.3929 13.9167 13.625C13.9167 13.8571 14.0089 14.0796 14.173 14.2437C14.3371 14.4078 14.5597 14.5 14.7917 14.5H15.3751C15.6071 14.5 15.8297 14.5922 15.9938 14.7563C16.1579 14.9204 16.2501 15.1429 16.2501 15.375C16.2501 15.6071 16.1579 15.8296 15.9938 15.9937C15.8297 16.1578 15.6071 16.25 15.3751 16.25H13.9167" stroke="#10F48A" stroke-width="0.875" stroke-linecap="round" stroke-linejoin="round"/>
<path d="M15.0833 16.2493V16.8327M15.0833 12.166V12.7493" stroke="#10F48A" stroke-width="0.875" stroke-linecap="round" stroke-linejoin="round"/>
</g>
</svg>
