<svg xmlns="http://www.w3.org/2000/svg" width="32" height="32" fill="none" viewBox="0 0 32 32">
  <path fill="#919FA6" d="M24 16a8 8 0 0 1-15.951.887C7.995 16.4 7.602 16 7.11 16s-.893.4-.849.888c.449 4.984 4.637 8.89 9.738 8.89 5.4 0 9.778-4.378 9.778-9.778 0-5.1-3.906-9.29-8.89-9.738-.489-.044-.888.358-.888.85 0 .49.4.883.887.937A8 8 0 0 1 24 16"/>
  <path stroke="#10F48A" stroke-linecap="round" stroke-linejoin="round" stroke-width="1.6" d="M16.457 16.457 8.89 8.89M16.45 12.784l.007 3.673-3.673-.007"/>
</svg>
