<svg xmlns="http://www.w3.org/2000/svg" width="32" height="32" fill="none" viewBox="0 0 32 32">
  <g clip-path="url(#a)">
    <g clip-path="url(#b)">
      <path fill="#919FA6" d="M6.82 11.149h19.36v1.8H6.82z"/>
      <path stroke="#10F48A" stroke-linecap="round" stroke-linejoin="round" stroke-width="1.25" d="M18 16h-2.5c-.398 0-.78.132-1.06.366-.282.235-.44.553-.44.884s.158.65.44.884c.28.234.662.366 1.06.366h1c.398 0 .78.132 1.06.366.282.235.44.553.44.884s-.158.65-.44.884A1.67 1.67 0 0 1 16.5 21H14M16 21.125V22m0-7v.875"/>
      <path stroke="#919FA6" stroke-linecap="round" stroke-linejoin="round" stroke-width="1.8" d="M20.044 6.545v2.773M11.966 6.545v2.773"/>
      <path stroke="#919FA6" stroke-linecap="round" stroke-linejoin="round" stroke-width="1.8" d="M20.496 7.931h-9c-3.122 0-5.072 1.557-5.072 4.417v8.61c0 2.905 1.95 4.497 5.071 4.497h8.991c3.132 0 5.072-1.565 5.072-4.426v-8.68c.01-2.861-1.93-4.418-5.062-4.418" clip-rule="evenodd"/>
    </g>
  </g>
  <defs>
    <clipPath id="a">
      <path fill="#fff" d="M0 0h32v32H0z"/>
    </clipPath>
    <clipPath id="b">
      <path fill="#fff" d="M0 0h32v32H0z"/>
    </clipPath>
  </defs>
</svg>
