<svg xmlns="http://www.w3.org/2000/svg" width="32" height="32" fill="none" viewBox="0 0 32 32">
  <g clip-path="url(#a)">
    <path fill="#919FA6" d="M24.6 18.748a.9.9 0 0 1-.9-.9V11.14c0-1.471-.417-2.563-1.005-3.256-.563-.662-1.381-1.084-2.515-1.084H10.81c-1.126 0-1.942.42-2.504 1.083C7.718 8.576 7.3 9.67 7.3 11.14v9.72c0 1.473.416 2.565 1.002 3.257.249.295.55.542.905.725.385.198.69.56.69.992 0 .576-.52 1.022-1.057.814-2.1-.815-3.34-2.979-3.34-5.789v-9.72C5.5 7.54 7.548 5 10.81 5h9.372c3.271 0 5.32 2.539 5.32 6.14v6.708a.9.9 0 0 1-.9.9"/>
    <path fill="#10F48A" fill-rule="evenodd" d="M25.63 20.74a.9.9 0 0 0-.9.9v1.33H23.4a.9.9 0 0 0 0 1.8h1.33v1.33a.9.9 0 0 0 1.8 0v-1.33h1.331a.9.9 0 0 0 0-1.8h-1.33v-1.33a.9.9 0 0 0-.9-.9" clip-rule="evenodd"/>
    <circle cx="15.789" cy="12.601" r="2.566" stroke="#919FA6" stroke-width="1.6"/>
    <path fill="#919FA6" fill-rule="evenodd" d="m12.445 22.472.549 1.028a1 1 0 0 0 1.395.387l2.363-1.415h2.428a2.5 2.5 0 0 0 2.5-2.5v-.245a2.8 2.8 0 0 0-2.8-2.8h-6.182a2.8 2.8 0 0 0-2.8 2.8v.245a2.5 2.5 0 0 0 2.5 2.5zm1.564-.467a.2.2 0 0 0 .28.078l1.547-.926a2 2 0 0 1 1.027-.285h2.317a.9.9 0 0 0 .9-.9v-.245a1.2 1.2 0 0 0-1.2-1.2h-6.182a1.2 1.2 0 0 0-1.2 1.2v.245a.9.9 0 0 0 .9.9h.706a.5.5 0 0 1 .441.265z" clip-rule="evenodd"/>
  </g>
  <defs>
    <clipPath id="a">
      <path fill="#fff" d="M0 0h32v32H0z"/>
    </clipPath>
  </defs>
</svg>
