<svg xmlns="http://www.w3.org/2000/svg" width="12" height="12" fill="none" viewBox="0 0 12 12">
  <g fill="#919FA6" clip-path="url(#a)">
    <path d="M9.047.75a.5.5 0 0 1 0 1H1.953a.203.203 0 0 0-.203.203v7.094a.5.5 0 0 1-1 0V1.953C.75 1.29 1.289.75 1.953.75z"/>
    <path fill-rule="evenodd" d="M3.953 2.75c-.664 0-1.203.539-1.203 1.203v6.094c0 .664.539 1.203 1.203 1.203h6.094c.664 0 1.203-.539 1.203-1.203V3.953c0-.664-.539-1.203-1.203-1.203zM3.75 3.953c0-.112.09-.203.203-.203h6.094c.112 0 .203.09.203.203v6.094c0 .112-.09.203-.203.203H3.953a.203.203 0 0 1-.203-.203z" clip-rule="evenodd"/>
  </g>
  <defs>
    <clipPath id="a">
      <path fill="#fff" d="M0 0h12v12H0z"/>
    </clipPath>
  </defs>
</svg>
