<svg xmlns="http://www.w3.org/2000/svg" width="20" height="20" fill="none" viewBox="0 0 20 20">
  <g stroke="#919FA6" stroke-linecap="round" stroke-linejoin="round" stroke-width="1.25" clip-path="url(#a)">
    <path d="M2.5 10a7.5 7.5 0 1 0 15 0 7.5 7.5 0 0 0-15 0"/>
    <path d="M7.5 6.666h3.408c.88 0 1.592.746 1.592 1.667 0 .92-.713 1.666-1.592 1.666.88 0 1.592.746 1.592 1.667 0 .92-.713 1.667-1.592 1.667H7.5M8.334 10h3.333M8.334 5.834v8.333-7.5M10.834 5.834v.833M10.834 13.334v.833"/>
  </g>
  <defs>
    <clipPath id="a">
      <path fill="#fff" d="M0 0h20v20H0z"/>
    </clipPath>
  </defs>
</svg>
