<svg xmlns="http://www.w3.org/2000/svg" width="48" height="48" fill="none" viewBox="0 0 48 48">
  <circle cx="24" cy="24" r="24" fill="#10F48A" fill-opacity=".1"/>
  <path fill="#919FA6" d="M23.369 35.232V12.91h1.43v22.323zm4.125-15.181q-.123-1.143-1.03-1.78-.897-.636-2.336-.636-1.012 0-1.736.305-.723.306-1.107.829a2 2 0 0 0-.393 1.195q0 .557.253.968.262.41.707.697.444.279.985.471t1.09.323l1.674.418q1.012.236 1.945.637a6.9 6.9 0 0 1 1.683 1.011q.75.61 1.186 1.474.435.863.436 2.023 0 1.57-.803 2.764-.801 1.185-2.32 1.858-1.508.662-3.653.662-2.084 0-3.619-.645-1.525-.645-2.389-1.884-.855-1.237-.924-3.017h3.183q.07.933.575 1.553.505.618 1.317.924a5.2 5.2 0 0 0 1.831.305q1.056 0 1.849-.314.802-.322 1.255-.89.454-.574.463-1.342-.01-.698-.41-1.151-.402-.462-1.125-.768a11 11 0 0 0-1.674-.558l-2.032-.523q-2.207-.566-3.488-1.718-1.273-1.16-1.273-3.078 0-1.579.854-2.764.864-1.186 2.346-1.84 1.482-.663 3.357-.663 1.901 0 3.331.663 1.44.654 2.259 1.822.819 1.16.846 2.669z"/>
</svg>
