<svg xmlns="http://www.w3.org/2000/svg" width="20" height="20" fill="none" viewBox="0 0 20 20">
  <defs>
    <clipPath id="a">
      <path fill="#fff" d="M0 0h20v20H0z"/>
    </clipPath>
  </defs>
  <g stroke="#fff" stroke-linecap="round" stroke-linejoin="round" stroke-width="1.6" clip-path="url(#a)">
    <path d="M2 5.714c0-.454.187-.89.52-1.212A1.8 1.8 0 0 1 3.779 4h12.444c.472 0 .924.18 1.257.502.334.322.521.758.521 1.212v8.572c0 .454-.187.89-.52 1.212a1.8 1.8 0 0 1-1.258.502H3.778c-.472 0-.924-.18-1.257-.502A1.68 1.68 0 0 1 2 14.286z"/>
    <path d="m2 6 8 5 8-5"/>
  </g>
</svg>
