<svg width="20" height="20" viewBox="0 0 20 20" fill="none" xmlns="http://www.w3.org/2000/svg">
<g clip-path="url(#clip0_3416_17165)">
<path d="M2.5 10C2.5 10.9849 2.69399 11.9602 3.0709 12.8701C3.44781 13.7801 4.00026 14.6069 4.6967 15.3033C5.39314 15.9997 6.21993 16.5522 7.12987 16.9291C8.03982 17.306 9.01509 17.5 10 17.5C10.9849 17.5 11.9602 17.306 12.8701 16.9291C13.7801 16.5522 14.6069 15.9997 15.3033 15.3033C15.9997 14.6069 16.5522 13.7801 16.9291 12.8701C17.306 11.9602 17.5 10.9849 17.5 10C17.5 9.01509 17.306 8.03982 16.9291 7.12987C16.5522 6.21993 15.9997 5.39314 15.3033 4.6967C14.6069 4.00026 13.7801 3.44781 12.8701 3.0709C11.9602 2.69399 10.9849 2.5 10 2.5C9.01509 2.5 8.03982 2.69399 7.12987 3.0709C6.21993 3.44781 5.39314 4.00026 4.6967 4.6967C4.00026 5.39314 3.44781 6.21993 3.0709 7.12987C2.69399 8.03982 2.5 9.01509 2.5 10Z" stroke="#919FA6" stroke-width="1.25" stroke-linecap="round" stroke-linejoin="round"/>
<path d="M12.1535 8.68732L11.774 9.5103H6.52051L6.82013 8.68732H12.1535ZM11.4384 10.3093L11.0509 11.1403H6.52051L6.82013 10.3093H11.4384ZM13.1283 6.51802L12.6569 7.52876C12.5077 7.40092 12.3453 7.28507 12.1695 7.1812C11.9937 7.07733 11.8046 6.99476 11.6022 6.9335C11.3998 6.86958 11.1827 6.83762 10.951 6.83762C10.5249 6.83762 10.1453 6.95215 9.81241 7.1812C9.47949 7.41024 9.21715 7.75382 9.02539 8.21191C8.83629 8.66735 8.74174 9.23464 8.74174 9.9138C8.74174 10.593 8.83629 11.1602 9.02539 11.6157C9.21715 12.0711 9.47949 12.4134 9.81241 12.6424C10.1453 12.8688 10.5249 12.982 10.951 12.982C11.1854 12.982 11.4038 12.9513 11.6062 12.8901C11.8113 12.8288 11.9977 12.7489 12.1655 12.6504C12.3359 12.5492 12.4891 12.4426 12.6249 12.3308L13.1083 13.3375C12.826 13.5932 12.4984 13.7863 12.1255 13.9168C11.7527 14.0473 11.3612 14.1126 10.951 14.1126C10.2825 14.1126 9.6899 13.9434 9.17321 13.6052C8.65918 13.267 8.25568 12.7849 7.96271 12.159C7.66974 11.5305 7.52326 10.782 7.52326 9.9138C7.52326 9.04288 7.66974 8.29315 7.96271 7.6646C8.25568 7.03604 8.65918 6.55265 9.17321 6.2144C9.6899 5.87615 10.2825 5.70703 10.951 5.70703C11.3771 5.70703 11.774 5.77761 12.1415 5.91877C12.5091 6.05726 12.838 6.25701 13.1283 6.51802Z" fill="#919FA6"/>
</g>
<defs>
<clipPath id="clip0_3416_17165">
<rect width="20" height="20" fill="white"/>
</clipPath>
</defs>
</svg>
