<svg xmlns="http://www.w3.org/2000/svg" width="48" height="48" fill="none" viewBox="0 0 48 48">
  <g stroke="#919FA6" stroke-linecap="round" stroke-linejoin="round" stroke-width="2" clip-path="url(#a)">
    <path d="M30 16h.02M25 42H12a6 6 0 0 1-6-6V12a6 6 0 0 1 6-6h24a6 6 0 0 1 6 6v13"/>
    <path d="m6 32 10-10c1.856-1.786 4.144-1.786 6 0l8 8"/>
    <path d="m28 28 2-2c1.34-1.287 2.9-1.647 4.364-1.08M32 38h12M38 32v12"/>
  </g>
  <defs>
    <clipPath id="a">
      <path fill="#fff" d="M0 0h48v48H0z"/>
    </clipPath>
  </defs>
</svg>
