<svg xmlns="http://www.w3.org/2000/svg" width="20" height="20" fill="none" viewBox="0 0 20 20">
  <g stroke="#919FA6" stroke-linecap="round" stroke-linejoin="round" stroke-width="1.25" clip-path="url(#a)">
    <path d="M2.5 10.833A.833.833 0 0 1 3.333 10h3.334a.833.833 0 0 1 .833.833v5a.833.833 0 0 1-.833.834H3.333a.833.833 0 0 1-.833-.834z"/>
    <path d="M7.5 7.5a.833.833 0 0 1 .833-.834h3.334a.833.833 0 0 1 .833.833v8.334a.833.833 0 0 1-.833.833H8.333a.833.833 0 0 1-.833-.833zM12.5 4.167a.833.833 0 0 1 .833-.833h3.334a.833.833 0 0 1 .833.833v11.667a.833.833 0 0 1-.833.833h-3.334a.833.833 0 0 1-.833-.833zM3.334 16.666H15"/>
  </g>
  <defs>
    <clipPath id="a">
      <path fill="#fff" d="M0 0h20v20H0z"/>
    </clipPath>
  </defs>
</svg>
