<svg width="20" height="20" viewBox="0 0 20 20" fill="none" xmlns="http://www.w3.org/2000/svg">
<defs>
<clipPath id="clip0_3416_17161">
<rect width="20" height="20" fill="white"/>
</clipPath>
</defs>
<g clip-path="url(#clip0_3416_17161)">
<path d="M2.5 10C2.5 10.9849 2.69399 11.9602 3.0709 12.8701C3.44781 13.7801 4.00026 14.6069 4.6967 15.3033C5.39314 15.9997 6.21993 16.5522 7.12987 16.9291C8.03982 17.306 9.01509 17.5 10 17.5C10.9849 17.5 11.9602 17.306 12.8701 16.9291C13.7801 16.5522 14.6069 15.9997 15.3033 15.3033C15.9997 14.6069 16.5522 13.7801 16.9291 12.8701C17.306 11.9602 17.5 10.9849 17.5 10C17.5 9.01509 17.306 8.03982 16.9291 7.12987C16.5522 6.21993 15.9997 5.39314 15.3033 4.6967C14.6069 4.00026 13.7801 3.44781 12.8701 3.0709C11.9602 2.69399 10.9849 2.5 10 2.5C9.01509 2.5 8.03982 2.69399 7.12987 3.0709C6.21993 3.44781 5.39314 4.00026 4.6967 4.6967C4.00026 5.39314 3.44781 6.21993 3.0709 7.12987C2.69399 8.03982 2.5 9.01509 2.5 10Z" stroke="#919FA6" stroke-width="1.25" stroke-linecap="round" stroke-linejoin="round"/>
<path d="M12.7226 14.0007H7.12953V12.938H12.7226V14.0007ZM11.0447 10.7967H7.10156V9.73402H11.0447V10.7967ZM9.10707 8.23988L9.23491 11.6876C9.25089 12.0312 9.20694 12.3388 9.10307 12.6104C8.9992 12.8794 8.81143 13.0938 8.53977 13.2536L7.51705 12.938C7.66087 12.93 7.7714 12.8568 7.84863 12.7183C7.92587 12.5798 7.97781 12.4173 8.00444 12.2309C8.03107 12.0418 8.04173 11.8714 8.0364 11.7195L7.92054 8.23988C7.89924 7.68058 8.00311 7.21316 8.23216 6.83762C8.46387 6.46209 8.77148 6.17978 9.15501 5.99068C9.53853 5.80158 9.95135 5.70703 10.3935 5.70703C10.7876 5.70703 11.1419 5.77228 11.4561 5.90279C11.7731 6.03329 12.0394 6.21174 12.2551 6.43812C12.4735 6.66184 12.6294 6.91752 12.7226 7.20517C12.8158 7.49281 12.8344 7.7951 12.7785 8.11204L11.6239 7.92827C11.6506 7.66726 11.6093 7.4502 11.5001 7.27708C11.3909 7.10396 11.2404 6.97346 11.0487 6.88557C10.8569 6.79767 10.6531 6.75373 10.4374 6.75373C10.211 6.75373 9.99529 6.807 9.79022 6.91353C9.5878 7.02006 9.42267 7.18253 9.29483 7.40092C9.16966 7.61932 9.10707 7.89897 9.10707 8.23988Z" fill="#919FA6"/>
</g>
</svg>
