<svg xmlns="http://www.w3.org/2000/svg" width="25" height="24" fill="none" viewBox="0 0 25 24">
  <path stroke="currentColor" stroke-width="1.35" d="M13.718 15.35a1.95 1.95 0 0 1 1.95-1.95h1.977a1.95 1.95 0 0 1 1.95 1.95v1.977a1.95 1.95 0 0 1-1.95 1.95h-1.977a1.95 1.95 0 0 1-1.95-1.95zM4.675 6.625a1.95 1.95 0 0 1 1.95-1.95h2.75a1.95 1.95 0 0 1 1.95 1.95v10.75a1.95 1.95 0 0 1-1.95 1.95h-2.75a1.95 1.95 0 0 1-1.95-1.95z"/>
  <rect width="5.22" height="5.22" x="16.852" y="4.048" stroke="#000" stroke-linecap="square" stroke-width="1.35" rx="1.5" transform="rotate(45 16.852 4.048)"/>
</svg>
