<svg width="12" height="12" viewBox="0 0 12 12" fill="none" xmlns="http://www.w3.org/2000/svg">
<g clip-path="url(#clip0_96_51263)">
<path d="M6 2.75C6.16576 2.75 6.32473 2.81585 6.44194 2.93306C6.55915 3.05027 6.625 3.20924 6.625 3.375C6.625 3.54076 6.55915 3.69973 6.44194 3.81694C6.32473 3.93415 6.16576 4 6 4C5.83424 4 5.67527 3.93415 5.55806 3.81694C5.44085 3.69973 5.375 3.54076 5.375 3.375C5.375 3.20924 5.44085 3.05027 5.55806 2.93306C5.67527 2.81585 5.83424 2.75 6 2.75Z" fill="currentColor"/>
<path d="M5.125 5C5.125 4.72386 5.34886 4.5 5.625 4.5H6.125C6.40114 4.5 6.625 4.72386 6.625 5V8H7C7.27614 8 7.5 8.22386 7.5 8.5C7.5 8.77614 7.27614 9 7 9H5.25C4.97386 9 4.75 8.77614 4.75 8.5C4.75 8.22386 4.97386 8 5.25 8H5.625V5.5C5.34886 5.5 5.125 5.27614 5.125 5Z" fill="currentColor"/>
<path fill-rule="evenodd" clip-rule="evenodd" d="M0.5 6C0.5 2.96243 2.96243 0.5 6 0.5C9.03757 0.5 11.5 2.96243 11.5 6C11.5 9.03757 9.03757 11.5 6 11.5C2.96243 11.5 0.5 9.03757 0.5 6ZM6 1.5C3.51472 1.5 1.5 3.51472 1.5 6C1.5 8.48528 3.51472 10.5 6 10.5C8.48528 10.5 10.5 8.48528 10.5 6C10.5 3.51472 8.48528 1.5 6 1.5Z" fill="currentColor"/>
</g>
<defs>
<clipPath id="clip0_96_51263">
<rect width="12" height="12" fill="white"/>
</clipPath>
</defs>
</svg>
