<svg xmlns="http://www.w3.org/2000/svg" width="20" height="20" fill="none" viewBox="0 0 20 20">
  <path stroke="#919FA6" stroke-width="1.25" d="m6.209 8.348 1.28-4A.5.5 0 0 1 7.965 4h4.07a.5.5 0 0 1 .476.348l1.28 4a.5.5 0 0 1-.476.652h-6.63a.5.5 0 0 1-.476-.652ZM1.209 15.348l1.28-4A.5.5 0 0 1 2.965 11h4.07a.5.5 0 0 1 .476.348l1.28 4a.5.5 0 0 1-.476.652h-6.63a.5.5 0 0 1-.476-.652ZM11.209 15.348l1.28-4a.5.5 0 0 1 .476-.348h4.07a.5.5 0 0 1 .476.348l1.28 4a.5.5 0 0 1-.476.652h-6.63a.5.5 0 0 1-.476-.652Z"/>
</svg>
