<svg xmlns="http://www.w3.org/2000/svg" width="32" height="32" fill="none" viewBox="0 0 32 32">
  <path stroke="#919FA6" stroke-width="1.6" d="M17.443 19.97a2.31 2.31 0 0 1 2.311-2.31h2.344a2.31 2.31 0 0 1 2.311 2.31v2.344a2.31 2.31 0 0 1-2.31 2.311h-2.345a2.31 2.31 0 0 1-2.31-2.31zM7.268 19.97a2.31 2.31 0 0 1 2.311-2.31h2.344a2.31 2.31 0 0 1 2.311 2.31v2.344a2.31 2.31 0 0 1-2.311 2.311H9.579a2.31 2.31 0 0 1-2.311-2.31zM7.268 9.686a2.31 2.31 0 0 1 2.311-2.311h2.344a2.31 2.31 0 0 1 2.311 2.31v2.345a2.31 2.31 0 0 1-2.311 2.31H9.579a2.31 2.31 0 0 1-2.311-2.31z"/>
  <rect width="6.187" height="6.187" x="21.157" y="6.575" stroke="#10F48A" stroke-linecap="square" stroke-width="1.6" rx="1.778" transform="rotate(45 21.157 6.575)"/>
</svg>
