<svg xmlns="http://www.w3.org/2000/svg" width="25" height="24" fill="none" viewBox="0 0 25 24">
  <g clip-path="url(#a)">
    <path fill="#000" d="M14.444 14.398a.643.643 0 0 1 .909 0l1.1 1.101-.908.91-1.101-1.101a.643.643 0 0 1 0-.91M12.5 16.343a.643.643 0 0 1 .908 0l1.101 1.101-.909.91-1.1-1.102a.643.643 0 0 1 0-.909"/>
    <path stroke="currentColor" stroke-width="1.35" d="m18.901 13.761-4.534 4.543a2.82 2.82 0 0 1-3.989 0L4.794 12.82a2.82 2.82 0 0 1 0-3.99l3.45-3.458a1.5 1.5 0 0 1 2.123 0l1.673 1.672"/>
    <path stroke="currentColor" stroke-width="1.35" d="m14.076 5.642-3.663 3.663a.75.75 0 0 0 0 1.06l.323.324c1.034 1.034 2.815.929 3.849-.105l3.243 3.194a.75.75 0 0 0 1.057-.004l1.395-1.394c1.143-1.143 1.041-2.545 0-3.586l-4.177-4.125a.75.75 0 0 0-1.057.003l-.958.958z"/>
  </g>
  <defs>
    <clipPath id="a">
      <path fill="#fff" d="M.5 0h24v24H.5z"/>
    </clipPath>
  </defs>
</svg>
