<svg xmlns="http://www.w3.org/2000/svg" width="25" height="24" fill="none" viewBox="0 0 25 24">
  <defs>
    <clipPath id="a">
      <path fill="#fff" d="M.5 0h24v24H.5z"/>
    </clipPath>
  </defs>
  <g clip-path="url(#a)">
    <path fill="currentColor" d="M18.649 15.746v-6.27c0-1.04-.322-1.815-.792-2.318a2.5 2.5 0 0 0-.864-.596V5.14c1.879.508 3.006 2.157 3.006 4.337v6.27c0 2.64-1.651 4.501-4.29 4.501H9.28c-2.638 0-4.28-1.861-4.28-4.5v-6.27C5 7.296 6.127 5.647 8.002 5.14v1.423a2.5 2.5 0 0 0-.86.595c-.47.504-.792 1.28-.792 2.32v6.27c0 1.04.32 1.817.789 2.32.458.492 1.156.83 2.141.83h6.43c.986 0 1.686-.339 2.147-.832.47-.503.792-1.28.792-2.319"/>
    <path stroke="currentColor" stroke-width="1.35" d="M15.43 3.988a1.2 1.2 0 0 1 1.2 1.2v.75a1.2 1.2 0 0 1-1.2 1.2H9.57a1.2 1.2 0 0 1-1.2-1.2v-.75a1.2 1.2 0 0 1 1.2-1.2z"/>
    <rect width="4.127" height="1.275" x="9.5" y="13.739" fill="#000" rx=".637"/>
    <rect width="6" height="1.275" x="9.5" y="10.739" fill="#000" rx=".637"/>
  </g>
  
</svg>
