<svg xmlns="http://www.w3.org/2000/svg" width="32" height="32" fill="none" viewBox="0 0 32 32">
  <path fill="#919FA6" fill-rule="evenodd" d="M7.822 19.556c0-1.08.876-1.956 1.956-1.956h11.146c1.204 0 2.18.875 2.18 1.956v3.555c0 .098-.087.177-.196.178H8a.18.18 0 0 1-.178-.178zm6.118 5.333H8a1.78 1.78 0 0 1-1.778-1.778v-3.555A3.556 3.556 0 0 1 9.778 16h11.146c2.19 0 3.965 1.592 3.965 3.556v3.555c0 .982-.888 1.778-1.983 1.778H13.94m4.016-14.667a2.4 2.4 0 1 1-4.8 0 2.4 2.4 0 0 1 4.8 0m1.6 0a4 4 0 1 1-8 0 4 4 0 0 1 8 0" clip-rule="evenodd"/>
  <path fill="#10F48A" fill-rule="evenodd" d="M23.646 13.422a.8.8 0 1 0 1.6 0v-1.51h1.51a.8.8 0 1 0 0-1.6h-1.51V8.8a.8.8 0 0 0-1.6 0v1.511h-1.513a.8.8 0 0 0 0 1.6h1.513z" clip-rule="evenodd"/>
</svg>
