<svg width="16" height="16" viewBox="0 0 16 16" fill="none" xmlns="http://www.w3.org/2000/svg">
<g clip-path="url(#clip0_658_28366)">
<path d="M13.3337 7.33444C13.1706 6.16125 12.6264 5.07421 11.7848 4.24077C10.9431 3.40733 9.85083 2.87372 8.67611 2.72214C7.50138 2.57056 6.30941 2.80943 5.28379 3.40194C4.25818 3.99445 3.45582 4.90773 3.00033 6.00111M2.66699 3.33444V6.00111H5.33366" stroke="#545D61" stroke-linecap="round" stroke-linejoin="round"/>
<path d="M2.66699 8.66602C2.83003 9.8392 3.37428 10.9262 4.2159 11.7597C5.05752 12.5931 6.14982 13.1267 7.32455 13.2783C8.49927 13.4299 9.69124 13.191 10.7169 12.5985C11.7425 12.006 12.5448 11.0927 13.0003 9.99935M13.3337 12.666V9.99935H10.667" stroke="#545D61" stroke-linecap="round" stroke-linejoin="round"/>
</g>
<defs>
<clipPath id="clip0_658_28366">
<rect width="16" height="16" fill="white"/>
</clipPath>
</defs>
</svg>
