<svg xmlns="http://www.w3.org/2000/svg" width="20" height="20" fill="none" viewBox="0 0 20 20">
  <g stroke="#fff" stroke-linecap="round" stroke-linejoin="round" stroke-width="1.25" clip-path="url(#a)">
    <path d="M10.833 14.167h-7.5A3.33 3.33 0 0 0 5 11.667v-2.5a5.83 5.83 0 0 1 3.333-5 1.667 1.667 0 0 1 3.334 0 5.83 5.83 0 0 1 3.259 4.308M7.5 14.167V15a2.5 2.5 0 0 0 3.35 2.352M17.5 12.5h-2.083a1.25 1.25 0 1 0 0 2.5h.833a1.25 1.25 0 0 1 0 2.5h-2.083M15.833 17.5v.833m0-6.666v.833"/>
  </g>
  <defs>
    <clipPath id="a">
      <path fill="#fff" d="M0 0h20v20H0z"/>
    </clipPath>
  </defs>
</svg>
