<svg xmlns="http://www.w3.org/2000/svg" width="20" height="20" fill="none" viewBox="0 0 20 20">
  <path fill="#fff" fill-rule="evenodd" d="M10 1.75c1.671 0 3.172.676 4.254 1.633.854.756 1.504 1.74 1.729 2.78.842.114 1.626.427 2.252.945.824.682 1.324 1.681 1.324 2.892s-.5 2.21-1.324 2.892c-.618.51-1.39.822-2.218.94-.182 1.332-.833 2.398-1.807 3.148-1.13.87-2.635 1.27-4.21 1.27a.833.833 0 1 1 0-1.666c1.316 0 2.43-.337 3.194-.925.691-.532 1.148-1.308 1.203-2.385l.005-.22V6.946c0-.702-.424-1.582-1.252-2.315-.813-.719-1.93-1.215-3.15-1.215s-2.337.496-3.15 1.215c-.773.684-1.194 1.497-1.247 2.172l-.005.143v6.108c0 .427-.322.78-.737.828l-.097.005h-.017c-1.113-.003-2.178-.33-2.982-.995C.941 12.21.441 11.21.441 10s.5-2.21 1.324-2.892c.626-.518 1.41-.83 2.252-.945.225-1.04.874-2.024 1.729-2.78C6.828 2.426 8.328 1.75 10 1.75M3.93 7.87a2.66 2.66 0 0 0-1.103.522c-.44.363-.72.89-.72 1.608 0 .717.28 1.245.72 1.608.287.238.662.42 1.103.521zm12.138 0v4.26a2.66 2.66 0 0 0 1.103-.522c.44-.364.72-.891.72-1.608s-.28-1.245-.72-1.608a2.66 2.66 0 0 0-1.103-.522" clip-rule="evenodd"/>
</svg>
