<svg xmlns="http://www.w3.org/2000/svg" width="24" height="24" fill="none" viewBox="0 0 24 24">
  <defs>
    <clipPath id="a">
      <path fill="#fff" d="M0 0h24v24H0z"/>
    </clipPath>
  </defs>
  <g stroke="#919FA6" stroke-linecap="round" stroke-linejoin="round" stroke-width="1.5" clip-path="url(#a)">
    <path d="M19.875 6.27A2.23 2.23 0 0 1 21 8.218v7.284c0 .809-.443 1.555-1.158 1.948l-6.75 4.27a2.27 2.27 0 0 1-2.184 0l-6.75-4.27A2.23 2.23 0 0 1 3 15.502V8.217c0-.81.443-1.554 1.158-1.947l6.75-3.98a2.33 2.33 0 0 1 2.25 0l6.75 3.98z"/>
    <path d="M9 12a3 3 0 1 0 6 0 3 3 0 0 0-6 0"/>
  </g>
  
</svg>
