<svg xmlns="http://www.w3.org/2000/svg" width="25" height="24" fill="none">
  <g clip-path="url(#a)">
    <path fill="#919FA6" fill-rule="evenodd" d="M18.195 2.7a.225.225 0 0 0-.36-.18l-2.043 1.532c-.12.09-.12.27 0 .36l2.043 1.533c.149.11.36.005.36-.18v-.872h1.306c.368 0 .677.28.677.637v1.346a.66.66 0 0 0 1.321 0V5.538c0-1.068-.894-1.966-1.997-1.966h-1.307zM6.78 18.72H5.42c-.343 0-.621-.295-.621-.66v-1.322a.66.66 0 1 0-1.322 0v1.322c0 1.095.913 1.982 1.944 1.982h1.36v.946c0 .188.216.293.363.177l2.054-1.607a.225.225 0 0 0 0-.354l-2.054-1.607a.225.225 0 0 0-.363.177v.947" clip-rule="evenodd"/>
    <path fill="#919FA6" d="M10.823 17.78c-.405.296-.408.899.034 1.135a6.608 6.608 0 0 0 8.595-9.524c-.268-.395-.835-.36-1.109.03a.67.67 0 0 0 .008.754 5.258 5.258 0 0 1-6.822 7.569.67.67 0 0 0-.706.037"/>
    <circle cx="10.591" cy="10.043" r="5.933" stroke="#919FA6" stroke-width="1.35"/>
    <path fill="#10F48A" d="M8.93 10.203a.225.225 0 0 1 0-.319l1.502-1.502a.225.225 0 0 1 .319 0l1.502 1.502a.225.225 0 0 1 0 .319l-1.502 1.502a.225.225 0 0 1-.319 0z"/>
  </g>
  <defs>
    <clipPath id="a">
      <path fill="#fff" d="M.5 0h24v24H.5z"/>
    </clipPath>
  </defs>
</svg>
