<svg width="24" height="24" viewBox="0 0 24 24" fill="none" xmlns="http://www.w3.org/2000/svg">
<g clip-path="url(#clip0_591_41300)">
<path d="M11.9989 3C14.3347 5.06658 17.3833 6.14257 20.4989 6C20.9524 7.54302 21.0912 9.16147 20.907 10.7592C20.7227 12.3569 20.2192 13.9013 19.4263 15.3005C18.6333 16.6998 17.5672 17.9254 16.2913 18.9045C15.0154 19.8836 13.5556 20.5962 11.9989 21C10.4421 20.5962 8.98234 19.8836 7.7064 18.9045C6.43047 17.9254 5.36437 16.6998 4.57145 15.3005C3.77854 13.9013 3.27499 12.3569 3.09073 10.7592C2.90647 9.16147 3.04527 7.54302 3.49886 6C6.61439 6.14257 9.66303 5.06658 11.9989 3Z" stroke="#919FA6" stroke-width="1.5" stroke-linecap="round" stroke-linejoin="round"/>
<path d="M14.4959 13.999H13.0508L14.6789 9.06641H16.5094L18.1375 13.999H16.6924L15.6134 10.4248H15.5749L14.4959 13.999ZM14.2261 12.0529H16.9429V13.0548H14.2261V12.0529Z" fill="#919FA6"/>
<path d="M9.86914 13.999V9.06641H13.3373V10.1454H11.2083V10.9932H13.1254V12.0722H11.2083V13.999H9.86914Z" fill="#919FA6"/>
<path d="M5.49478 14V13.0366L7.33485 11.5145C7.45688 11.4133 7.56125 11.3186 7.64796 11.2303C7.73627 11.1403 7.8037 11.048 7.85027 10.9533C7.89844 10.8585 7.92252 10.7534 7.92252 10.6378C7.92252 10.5109 7.89523 10.4025 7.84063 10.3126C7.78765 10.2227 7.71379 10.1537 7.61905 10.1055C7.52432 10.0557 7.41514 10.0308 7.2915 10.0308C7.16787 10.0308 7.05868 10.0557 6.96395 10.1055C6.87082 10.1553 6.79857 10.2283 6.74719 10.3247C6.6958 10.421 6.67011 10.5382 6.67011 10.6763H5.39844C5.39844 10.3295 5.47631 10.0308 5.63206 9.78035C5.78781 9.52987 6.00778 9.33719 6.29198 9.20231C6.57618 9.06744 6.90936 9 7.2915 9C7.68649 9 8.0285 9.06342 8.31751 9.19027C8.60814 9.31551 8.83212 9.49213 8.98948 9.72013C9.14844 9.94814 9.22792 10.2155 9.22792 10.5222C9.22792 10.7116 9.18858 10.9003 9.1099 11.0882C9.03123 11.2744 8.88993 11.4807 8.68601 11.7071C8.48209 11.9335 8.19227 12.2033 7.81655 12.5164L7.35412 12.9017V12.9306H9.2809V14H5.49478Z" fill="#919FA6"/>
</g>
<defs>
<clipPath id="clip0_591_41300">
<rect width="24" height="24" fill="white"/>
</clipPath>
</defs>
</svg>
