<svg width="20" height="20" viewBox="0 0 20 20" fill="none" xmlns="http://www.w3.org/2000/svg">
<defs>
<clipPath id="clip0_3416_17152">
<rect width="20" height="20" fill="white"/>
</clipPath>
</defs>
<g clip-path="url(#clip0_3416_17152)">
<path d="M2.5 10C2.5 10.9849 2.69399 11.9602 3.0709 12.8701C3.44781 13.7801 4.00026 14.6069 4.6967 15.3033C5.39314 15.9997 6.21993 16.5522 7.12987 16.9291C8.03982 17.306 9.01509 17.5 10 17.5C10.9849 17.5 11.9602 17.306 12.8701 16.9291C13.7801 16.5522 14.6069 15.9997 15.3033 15.3033C15.9997 14.6069 16.5522 13.7801 16.9291 12.8701C17.306 11.9602 17.5 10.9849 17.5 10C17.5 9.01509 17.306 8.03982 16.9291 7.12987C16.5522 6.21993 15.9997 5.39314 15.3033 4.6967C14.6069 4.00026 13.7801 3.44781 12.8701 3.0709C11.9602 2.69399 10.9849 2.5 10 2.5C9.01509 2.5 8.03982 2.69399 7.12987 3.0709C6.21993 3.44781 5.39314 4.00026 4.6967 4.6967C4.00026 5.39314 3.44781 6.21993 3.0709 7.12987C2.69399 8.03982 2.5 9.01509 2.5 10Z" stroke="#919FA6" stroke-width="1.25" stroke-linecap="round" stroke-linejoin="round"/>
<path d="M9.69167 15.0222V4.79492H10.3469V15.0222H9.69167ZM11.7411 7.96697C11.6985 7.58878 11.5227 7.29581 11.2138 7.08807C10.9048 6.87766 10.516 6.77246 10.0472 6.77246C9.71165 6.77246 9.42134 6.82573 9.17631 6.93226C8.93129 7.03613 8.74086 7.17995 8.60502 7.36373C8.47186 7.54483 8.40527 7.75124 8.40527 7.98295C8.40527 8.17738 8.45055 8.34517 8.5411 8.48633C8.63432 8.62749 8.7555 8.74601 8.90465 8.84189C9.05646 8.9351 9.21893 9.01367 9.39205 9.07759C9.56516 9.13885 9.73162 9.18945 9.89142 9.2294L10.6904 9.43715C10.9514 9.50107 11.2191 9.58762 11.4934 9.69682C11.7678 9.80602 12.0221 9.94984 12.2565 10.1283C12.4909 10.3067 12.68 10.5278 12.8238 10.7915C12.9703 11.0551 13.0435 11.3707 13.0435 11.7383C13.0435 12.2017 12.9237 12.6132 12.6839 12.9727C12.4469 13.3323 12.102 13.6159 11.6492 13.8237C11.1991 14.0314 10.6545 14.1353 10.0153 14.1353C9.4027 14.1353 8.87269 14.0381 8.42525 13.8437C7.97781 13.6492 7.62757 13.3736 7.37456 13.0167C7.12154 12.6571 6.98171 12.231 6.95508 11.7383H8.19354C8.21751 12.0339 8.31339 12.2803 8.48118 12.4774C8.65163 12.6718 8.8687 12.8169 9.13237 12.9128C9.3987 13.006 9.69034 13.0526 10.0073 13.0526C10.3562 13.0526 10.6665 12.998 10.9381 12.8889C11.2124 12.777 11.4282 12.6225 11.5853 12.4254C11.7425 12.2257 11.821 11.9926 11.821 11.7263C11.821 11.4839 11.7518 11.2855 11.6133 11.131C11.4775 10.9766 11.2923 10.8487 11.058 10.7475C10.8263 10.6463 10.5639 10.5571 10.271 10.4798L9.30415 10.2162C8.64897 10.0377 8.12962 9.77539 7.74609 9.42916C7.36523 9.08292 7.1748 8.62482 7.1748 8.05487C7.1748 7.58345 7.30265 7.17196 7.55833 6.8204C7.81401 6.46884 8.16025 6.19585 8.59703 6.00142C9.03382 5.80433 9.52654 5.70579 10.0752 5.70579C10.6292 5.70579 11.1179 5.803 11.5414 5.99743C11.9675 6.19185 12.3031 6.45952 12.5481 6.80043C12.7931 7.13867 12.921 7.52752 12.9316 7.96697H11.7411Z" fill="#919FA6"/>
</g>

</svg>
