<svg xmlns="http://www.w3.org/2000/svg" width="25" height="24" fill="none" viewBox="0 0 25 24">
  <path fill="currentColor" d="M19.347 8.363c-.103-.725-.38-1.287-.748-1.681-.46-.493-1.161-.832-2.147-.832H8.53c-.98 0-1.679.338-2.139.83C5.921 7.186 5.6 7.96 5.6 9v6c0 1.041.32 1.818.789 2.32.458.492 1.156.831 2.141.831h7.922c.986 0 1.686-.339 2.147-.832.368-.395.645-.957.748-1.682.05-.35.33-.637.683-.637.393 0 .716.32.67.709-.272 2.258-1.853 3.792-4.248 3.792H8.53c-2.638 0-4.28-1.862-4.28-4.501V9c0-2.64 1.65-4.5 4.28-4.5h7.922c2.395 0 3.976 1.534 4.247 3.791.047.39-.276.71-.669.71-.353 0-.633-.289-.683-.638"/>
  <path stroke="#000" stroke-width="1.2" d="M15 12a2 2 0 0 1 2-2h3.634c.755 0 1.366.611 1.366 1.366v1.268C22 13.39 21.389 14 20.634 14H17a2 2 0 0 1-2-2Z"/>
</svg>
