<svg xmlns="http://www.w3.org/2000/svg" width="32" height="32" fill="none" viewBox="0 0 32 32">
  <path fill="#919FA6" d="M8 16a8 8 0 0 0 15.951.887c.054-.488.447-.887.938-.887s.893.4.849.888c-.449 4.984-4.637 8.89-9.738 8.89-5.4 0-9.778-4.378-9.778-9.778 0-5.1 3.906-9.29 8.89-9.738.489-.044.888.358.888.85 0 .49-.4.883-.887.937A8 8 0 0 0 8 16"/>
  <path stroke="currentColor" stroke-linecap="round" stroke-linejoin="round" stroke-width="1.6" d="m23.945 8.055-7.568 7.569M23.937 11.728l.008-3.673-3.673.008"/>
</svg>
